<?xml version="1.0" encoding="UTF-8" standalone="no"?>
<svg
   width="24"
   height="24"
   viewBox="0 0 24 24"
   fill="none"
   version="1.1"
   id="svg6"
   sodipodi:docname="1dm_plus.svg"
   inkscape:version="1.2.1 (9c6d41e410, 2022-07-14)"
   xmlns:inkscape="http://www.inkscape.org/namespaces/inkscape"
   xmlns:sodipodi="http://sodipodi.sourceforge.net/DTD/sodipodi-0.dtd"
   xmlns="http://www.w3.org/2000/svg"
   xmlns:svg="http://www.w3.org/2000/svg">
  <defs
     id="defs10" />
  <sodipodi:namedview
     id="namedview8"
     pagecolor="#ffffff"
     bordercolor="#666666"
     borderopacity="1.0"
     inkscape:pageshadow="2"
     inkscape:pageopacity="0.0"
     inkscape:pagecheckerboard="0"
     showgrid="false"
     inkscape:zoom="16.937427"
     inkscape:cx="3.8671753"
     inkscape:cy="8.4723612"
     inkscape:window-width="1350"
     inkscape:window-height="721"
     inkscape:window-x="0"
     inkscape:window-y="0"
     inkscape:window-maximized="1"
     inkscape:current-layer="svg6"
     inkscape:showpageshadow="2"
     inkscape:deskcolor="#d1d1d1" />
  <g
     id="g236"
     transform="translate(0.5878905,-0.6590936)">
    <path
       id="path2"
       style="fill:none;stroke:#000000;stroke-linecap:round;stroke-linejoin:round;stroke-opacity:1"
       d="m 13.324219,7.4414062 c -2.006298,0 -3.7008189,1.3385369 -4.2363284,3.1718748 C 8.663481,10.197182 8.0826556,9.9414063 7.4414062,9.9414062 c -1.2994987,0 -2.3535156,1.0540168 -2.3535156,2.3535158 V 12.78125 C 3.3370524,13.06285 2,14.581911 2,16.412109 c 0,2.030498 1.6453233,3.675782 3.6757812,3.675782 h 7.6484378 3.822265 c 2.030398,0 3.677735,-1.645284 3.677735,-3.675782 0,-1.830198 -1.339046,-3.349259 -3.089844,-3.630859 v -0.927734 c 0,-0.210493 -0.01837,-0.41651 -0.04687,-0.619141 a 3.6538162,3.6538162 0 0 1 -0.01758,0.002 3.6538162,3.6538162 0 0 1 -3.654297,-3.6523436 3.6538162,3.6538162 0 0 1 0.0059,-0.082031 c -0.227727,-0.036261 -0.459329,-0.060547 -0.697265,-0.060547 z m -1.765625,3.6757818 h 0.882812 c 0.1624,0 0.292969,0.132522 0.292969,0.294921 v 1.763672 h 0.84375 c 0.2494,0 0.386162,0.290822 0.226563,0.482422 l -1.578126,1.894531 c -0.117499,0.1411 -0.335525,0.1411 -0.453124,0 l -1.578126,-1.894531 c -0.159599,-0.1916 -0.02284,-0.482422 0.226563,-0.482422 h 0.84375 v -1.763672 c 0,-0.162399 0.130569,-0.294922 0.292969,-0.294921 z m -2.5000002,4.117187 h 1.8769532 l 0.5,0.599609 c 0.294,0.3527 0.834906,0.3527 1.128906,0 l 0.5,-0.599609 h 1.876953 c 0.3248,0 0.587891,0.264944 0.587891,0.589844 V 17 c 0,0.3249 -0.263091,0.587891 -0.587891,0.587891 H 9.0585938 C 8.7337241,17.587891 8.4707031,17.3249 8.4707031,17 v -1.175781 c 0,-0.3249 0.263021,-0.589844 0.5878907,-0.589844 z m 4.5585942,1.177734 c -0.1624,0 -0.292969,0.130569 -0.292969,0.292969 0,0.1625 0.130569,0.294922 0.292969,0.294922 0.162499,0 0.294921,-0.132422 0.294921,-0.294922 0,-0.1624 -0.132422,-0.292969 -0.294921,-0.292969 z m 1.029296,0 c -0.162499,0 -0.292968,0.130569 -0.292968,0.292969 0,0.1625 0.130469,0.294922 0.292968,0.294922 0.1624,0 0.294922,-0.132422 0.294922,-0.294922 0,-0.1624 -0.132522,-0.292969 -0.294922,-0.292969 z" />
    <path
       fill-rule="evenodd"
       clip-rule="evenodd"
       d="m 18.257933,5.2302962 h -1.1765 v 1.7647 h -1.7647 v 1.17648 h 1.7647 v 1.7647 h 1.1765 v -1.76471 h 1.7647 v -1.17647 h -1.7647 z"
       fill="#000000"
       id="path4"
       style="stroke:#000000;stroke-linecap:round;stroke-linejoin:round;stroke-opacity:1" />
  </g>
</svg>
