<?xml version="1.0" encoding="UTF-8" standalone="no"?>
<svg
   width="192"
   height="192"
   viewBox="0 0 192 192"
   fill="none"
   version="1.1"
   id="svg327"
   sodipodi:docname="amazon_prime_video.svg"
   inkscape:version="1.2.1 (9c6d41e410, 2022-07-14)"
   xmlns:inkscape="http://www.inkscape.org/namespaces/inkscape"
   xmlns:sodipodi="http://sodipodi.sourceforge.net/DTD/sodipodi-0.dtd"
   xmlns="http://www.w3.org/2000/svg"
   xmlns:svg="http://www.w3.org/2000/svg">
  <defs
     id="defs331" />
  <sodipodi:namedview
     id="namedview329"
     pagecolor="#ffffff"
     bordercolor="#000000"
     borderopacity="0.25"
     inkscape:showpageshadow="2"
     inkscape:pageopacity="0.0"
     inkscape:pagecheckerboard="0"
     inkscape:deskcolor="#d1d1d1"
     showgrid="false"
     inkscape:zoom="1.4237134"
     inkscape:cx="-49.518395"
     inkscape:cy="114.48934"
     inkscape:window-width="1366"
     inkscape:window-height="768"
     inkscape:window-x="0"
     inkscape:window-y="0"
     inkscape:window-maximized="1"
     inkscape:current-layer="svg327" />
  <path
     d="M76 22L82 22C82 18.6863 79.3137 16 76 16L76 22ZM116 22L116 16C112.686 16 110 18.6863 110 22L116 22ZM116 170L110 170C110 173.314 112.686 176 116 176L116 170ZM76 170L76 176C79.3137 176 82 173.314 82 170L76 170ZM32 162C32 169.732 38.268 176 46 176L46 164C44.8954 164 44 163.105 44 162L32 162ZM32 30L32 162L44 162L44 30L32 30ZM46 16C38.268 16 32 22.268 32 30L44 30C44 28.8954 44.8954 28 46 28L46 16ZM76 16L46 16L46 28L76 28L76 16ZM96 36C88.268 36 82 29.732 82 22L70 22C70 36.3594 81.6406 48 96 48L96 36ZM110 22C110 29.732 103.732 36 96 36L96 48C110.359 48 122 36.3594 122 22L110 22ZM146 16L116 16L116 28L146 28L146 16ZM160 30C160 22.268 153.732 16 146 16L146 28C147.105 28 148 28.8954 148 30L160 30ZM160 162L160 30L148 30L148 162L160 162ZM146 176C153.732 176 160 169.732 160 162L148 162C148 163.105 147.105 164 146 164L146 176ZM116 176L146 176L146 164L116 164L116 176ZM96 156C103.732 156 110 162.268 110 170L122 170C122 155.641 110.359 144 96 144L96 156ZM82 170C82 162.268 88.268 156 96 156L96 144C81.6406 144 70 155.641 70 170L82 170ZM46 176L76 176L76 164L46 164L46 176Z"
     fill="black"
     id="path323" />
  <g
     id="g26511"
     transform="matrix(1.3114867,0,0,1.3114867,-39.506517,-98.536194)"
     style="stroke:#000000;stroke-width:1.60962;stroke-linecap:round;stroke-linejoin:round;stroke-dasharray:none;stroke-opacity:1">
    <path
       d="m 130.73667,144.47322 c -0.84838,-1.08791 -5.62917,-0.51401 -7.77504,-0.2595 -0.65375,0.0799 -0.75355,-0.48906 -0.1647,-0.89827 3.80768,-2.67986 10.05566,-1.90634 10.78428,-1.00807 0.72857,0.90327 -0.18965,7.16622 -3.76777,10.15547 -0.54893,0.45912 -1.07294,0.21458 -0.82839,-0.39425 0.80344,-2.00614 2.60497,-6.50249 1.75162,-7.59538"
       id="path10"
       style="fill:#000000;fill-opacity:1;fill-rule:evenodd;stroke:#000000;stroke-width:1.60962;stroke-linecap:round;stroke-linejoin:round;stroke-dasharray:none;stroke-opacity:1"
       inkscape:connector-curvature="0" />
    <g
       transform="matrix(0.01534819,0,0,-0.01534819,-0.22276628,119.96966)"
       id="g12"
       style="stroke:#000000;stroke-width:104.874;stroke-linecap:round;stroke-linejoin:round;stroke-dasharray:none;stroke-opacity:1">
      <g
         id="g24152"
         transform="matrix(7.4999995,0,0,-7.4999995,3135.5291,4930.5817)"
         style="stroke:#000000;stroke-width:13.9832;stroke-linecap:round;stroke-linejoin:round;stroke-dasharray:none;stroke-opacity:1">
        <path
           d="m 696.1013,897.75335 c -58.11169,42.83292 -142.34105,65.68583 -214.86092,65.68583 -101.68461,0 -193.22683,-37.60937 -262.48206,-100.16107 -5.44116,-4.91885 -0.5659,-11.62235 5.96353,-7.79179 74.7399,43.48586 167.15276,69.64701 262.61265,69.64701 64.37988,0 135.20216,-13.32001 200.32209,-40.96113 9.83763,-4.17885 18.06468,6.44234 8.44471,13.58115"
           id="path8"
           style="fill:#000000;fill-opacity:1;fill-rule:evenodd;stroke:#000000;stroke-width:13.9832;stroke-linecap:round;stroke-linejoin:round;stroke-dasharray:none;stroke-opacity:1"
           inkscape:connector-curvature="0" />
      </g>
    </g>
  </g>
</svg>
