<?xml version="1.0" encoding="UTF-8" standalone="no"?>
<!-- Generator: Adobe Illustrator 24.0.0, SVG Export Plug-In . SVG Version: 6.00 Build 0)  -->

<svg
   version="1.1"
   id="Слой_1"
   x="0px"
   y="0px"
   viewBox="0 0 192 192"
   xml:space="preserve"
   sodipodi:docname="download.svg"
   width="192"
   height="192"
   inkscape:version="1.2.1 (9c6d41e410, 2022-07-14)"
   xmlns:inkscape="http://www.inkscape.org/namespaces/inkscape"
   xmlns:sodipodi="http://sodipodi.sourceforge.net/DTD/sodipodi-0.dtd"
   xmlns="http://www.w3.org/2000/svg"
   xmlns:svg="http://www.w3.org/2000/svg"><defs
   id="defs3855">
	<linearGradient
   id="SVGID_1_"
   gradientUnits="userSpaceOnUse"
   x1="25.275499"
   y1="285.36841"
   x2="487.47061"
   y2="285.36841"
   gradientTransform="matrix(0.32452781,0,0,0.32378134,12.799182,13.141951)">
		<stop
   offset="0"
   style="stop-color:#FF6060"
   id="stop3840" />
		<stop
   offset="1"
   style="stop-color:#E23D3D"
   id="stop3842" />
	</linearGradient>
	
	
	
</defs><sodipodi:namedview
   id="namedview3853"
   pagecolor="#ffffff"
   bordercolor="#666666"
   borderopacity="1.0"
   inkscape:showpageshadow="2"
   inkscape:pageopacity="0.0"
   inkscape:pagecheckerboard="0"
   inkscape:deskcolor="#d1d1d1"
   showgrid="false"
   inkscape:zoom="2.5104167"
   inkscape:cx="95.80083"
   inkscape:cy="96"
   inkscape:window-width="1366"
   inkscape:window-height="688"
   inkscape:window-x="0"
   inkscape:window-y="0"
   inkscape:window-maximized="1"
   inkscape:current-layer="Слой_1" />
<style
   type="text/css"
   id="style3838">
	.st0{fill:url(#SVGID_1_);}
	.st1{fill:#313131;}
</style>
<path
   id="path3849"
   style="fill:#000000;stroke-width:0.32383"
   class="st1"
   d="m 163.42188,16.00255 c -0.18301,0.0046 -0.36702,0.01791 -0.55079,0.04093 -11.3617,1.425024 -21.79819,5.79307 -30.52148,12.317159 -3.43675,2.568921 -3.02285,7.836768 0.78711,9.814353 9.64171,5.008587 18.14146,11.895112 25.01172,20.170591 3.0181,3.641727 8.89189,2.393224 10.15429,-2.159743 1.7557,-6.336671 2.69336,-13.007853 2.69336,-19.903546 0,-5.376961 -0.56647,-10.625749 -1.65039,-15.679575 -0.58111,-2.705244 -3.17872,-4.668772 -5.92382,-4.600173 z m -3.55079,7.056198 c 1.47857,-0.03695 2.87841,1.020364 3.19141,2.477467 0.58382,2.722097 0.88867,5.549851 0.88867,8.445995 0,3.714166 -0.50551,7.307679 -1.45117,10.720744 -0.67997,2.452323 -3.84313,3.125199 -5.46875,1.163687 -3.70047,-4.457347 -8.27943,-8.167254 -13.47266,-10.864986 -2.05212,-1.065167 -2.27493,-3.902625 -0.42382,-5.2863 4.69854,-3.514013 10.31979,-5.865669 16.43945,-6.633216 0.099,-0.0124 0.1983,-0.02093 0.29687,-0.02339 z" />
<path
   id="path4346"
   style="fill:#000000;stroke-width:0.32383"
   class="st1"
   d="m 28.57421,16.001739 c 0.18301,0.0046 0.36702,0.01791 0.55079,0.04094 11.3617,1.425023 21.79819,5.79307 30.52148,12.317159 3.43675,2.56892 3.02285,7.836768 -0.78711,9.814352 -9.64171,5.008588 -18.14146,11.895113 -25.01172,20.170591 -3.0181,3.641728 -8.89189,2.393224 -10.15429,-2.159743 C 21.93766,49.848366 21,43.177184 21,36.28149 c 0,-5.37696 0.56647,-10.625748 1.65039,-15.679574 0.58111,-2.705244 3.17872,-4.668772 5.92382,-4.600173 z m 3.55079,7.056198 c -1.47857,-0.03695 -2.87841,1.020364 -3.19141,2.477466 -0.58382,2.722097 -0.88867,5.549851 -0.88867,8.445996 0,3.714166 0.50551,7.307679 1.45117,10.720743 0.67997,2.452324 3.84313,3.125199 5.46875,1.163688 3.70047,-4.457347 8.27943,-8.167254 13.47266,-10.864986 2.05212,-1.065168 2.27493,-3.902626 0.42382,-5.2863 -4.69854,-3.514013 -10.31979,-5.865669 -16.43945,-6.633217 -0.099,-0.01241 -0.1983,-0.02093 -0.29687,-0.02339 z" /><path
   style="color:#000000;fill:#000000;stroke-width:0.925005;-inkscape-stroke:none"
   d="m 95.99802,34.715382 c -8.883593,0 -17.42627,1.543363 -25.347326,4.374948 -17.022353,6.087262 -31.179469,18.110309 -39.965081,33.579164 -6.160982,10.846954 -9.682476,23.402864 -9.682476,36.732226 0,1.96577 0.07486,3.92058 0.231482,5.86214 1.45e-4,0.002 -1.44e-4,0.004 0,0.006 0.770953,9.90256 3.487184,19.27431 7.760088,27.71883 v 0.002 c 6.77907,13.38357 17.46564,24.44645 30.580999,31.71475 4.912014,2.72337 11.354315,0.0228 12.811106,-5.41272 v -0.002 c 0.984086,-3.67843 1.491943,-7.5428 1.55889,-11.50589 6.679681,2.99042 14.048975,4.73773 21.824453,4.73773 7.775825,0 15.144545,-1.74706 21.824465,-4.73773 0.0683,4.05456 0.59994,8.01033 1.63122,11.77121 1.47591,5.38891 7.84844,8.0702 12.74781,5.3983 13.30473,-7.25242 24.15124,-18.39443 31.00599,-31.90607 4.29211,-8.46016 7.02095,-17.85564 7.78902,-27.78561 v -0.009 c 0.15644,-1.94037 0.23149,-3.89227 0.23149,-5.8513 v -0.002 c -0.003,-13.3259 -3.52515,-25.881724 -9.6861,-36.728622 l -1.59687,-2.810145 h -0.17179 C 150.61434,55.656724 137.09101,44.61983 120.95654,38.951356 113.14235,36.206959 104.73245,34.715382 95.99802,34.715382 Z m 0,11.088976 c 7.46798,0 14.61787,1.271868 21.26927,3.607887 14.63449,5.141492 26.84173,15.462805 34.38056,28.727738 2.5e-4,4.45e-4 -2.5e-4,0.0014 0,0.0019 l 0.006,0.01083 c 5.24145,9.232648 8.23315,19.873772 8.23571,31.250917 -5e-5,1.68158 -0.0638,3.34023 -0.19532,4.96875 v 0.009 l -0.002,0.0108 c -0.65234,8.46342 -2.97023,16.43905 -6.62618,23.64528 -5.35261,10.55073 -13.68228,19.29955 -23.75951,25.46279 -0.38434,-2.12004 -0.65466,-4.28058 -0.65466,-6.51912 0,-0.74561 0.0214,-1.48174 0.0651,-2.19829 v -0.004 -0.004 c 0.39267,-6.57754 -7.14633,-11.43833 -12.98833,-8.31853 l -0.002,0.002 c -5.94241,3.17524 -12.71485,4.97417 -19.956329,4.97417 -7.24147,0 -14.013915,-1.79894 -19.956317,-4.97417 h -0.0019 v -0.002 c -5.841988,-3.11979 -13.382804,1.741 -12.990143,8.31853 v 0.004 l 0.0019,0.004 c 0.04371,0.71693 0.0633,1.45293 0.0633,2.1983 0,2.1502 -0.247338,4.22664 -0.602215,6.26643 -9.903211,-6.16143 -18.089413,-14.82974 -23.372491,-25.25882 l -0.0019,-0.002 c -3.638749,-7.1919 -5.945644,-15.14835 -6.600866,-23.59114 v -0.009 -0.009 c -0.131551,-1.62912 -0.195314,-3.28731 -0.195314,-4.97597 0,-11.384551 2.991914,-22.028198 8.237519,-31.263549 7.47689,-13.164583 19.559012,-23.428011 34.046003,-28.608619 6.74284,-2.4104 14.004944,-3.725202 21.600205,-3.725202 z M 95.770155,76.0608 c -4.229593,0 -8.303398,0.786165 -12.047938,2.230791 -5.13e-4,1.97e-4 -0.0013,-1.98e-4 -0.0019,0 -0.0012,4.72e-4 -0.0024,0.0013 -0.0036,0.0019 -10.874891,4.188352 -18.984903,13.860198 -20.92742,25.625159 -3.11e-4,0.002 -0.0015,0.004 -0.0019,0.006 -0.295823,1.77516 -0.446689,3.59146 -0.446689,5.43258 0,5.06468 1.145049,9.90019 3.199161,14.21497 5.68e-4,9.3e-4 0.0012,0.003 0.0019,0.004 5.352595,11.29218 16.921825,19.07723 30.224734,19.07723 13.302917,0 24.873947,-7.78505 30.226547,-19.07723 5.7e-4,-9.2e-4 9.3e-4,-0.003 0.002,-0.004 2.05454,-4.31569 3.19765,-9.15239 3.20097,-14.21497 v -0.002 -0.002 c 0,-1.77296 -0.14078,-3.51147 -0.4069,-5.20519 v -0.002 -0.002 C 126.91638,92.27763 118.76805,82.502917 107.81634,78.28973 104.07546,76.850759 100.00491,76.060745 95.770201,76.060745 Z m 0,11.088976 c 2.85684,0 5.552155,0.52658 8.049445,1.487193 7.29277,2.80557 12.74436,9.33224 13.99203,17.229061 0.1786,1.13672 0.27308,2.29783 0.27308,3.48697 -0.003,3.40796 -0.76328,6.59965 -2.12674,9.4628 l -0.004,0.006 -0.002,0.006 c -3.55622,7.5096 -11.21491,12.73681 -20.186002,12.73681 -8.971078,0 -16.627966,-5.22721 -20.184183,-12.73681 l -0.0036,-0.006 -0.0019,-0.006 c -1.364388,-2.86508 -2.124936,-6.05192 -2.124936,-9.4592 0,-1.24231 0.100981,-2.44955 0.296587,-3.62052 l 0.0019,-0.006 v -0.007 C 75.04194,97.888977 80.473984,91.426018 87.720163,88.636635 l 0.0019,-0.0019 h 0.0036 c 2.486163,-0.959643 5.184039,-1.485389 8.044014,-1.485389 z m 21.857015,66.959794 c -2.6e-4,0.005 2.6e-4,0.008 0,0.0127 1.1e-4,-0.002 -0.002,-0.004 -0.002,-0.006 z m -47.057857,2.12431 c 0.0017,8.8e-4 0.0038,9.1e-4 0.0055,0.002 -0.0016,-8.5e-4 -0.0038,8.5e-4 -0.0055,0 z"
   id="path4371" /></svg>
