<?xml version="1.0" encoding="UTF-8" standalone="no"?>
<svg
   width="192"
   height="192"
   viewBox="0 0 192 192"
   fill="none"
   version="1.1"
   id="svg14"
   sodipodi:docname="sd_maid.svg"
   inkscape:version="1.2.1 (9c6d41e410, 2022-07-14)"
   xml:space="preserve"
   xmlns:inkscape="http://www.inkscape.org/namespaces/inkscape"
   xmlns:sodipodi="http://sodipodi.sourceforge.net/DTD/sodipodi-0.dtd"
   xmlns="http://www.w3.org/2000/svg"
   xmlns:svg="http://www.w3.org/2000/svg"><defs
     id="defs18" /><sodipodi:namedview
     id="namedview16"
     pagecolor="#ffffff"
     bordercolor="#666666"
     borderopacity="1.0"
     inkscape:showpageshadow="2"
     inkscape:pageopacity="0.0"
     inkscape:pagecheckerboard="0"
     inkscape:deskcolor="#d1d1d1"
     showgrid="false"
     inkscape:zoom="2.5104167"
     inkscape:cx="95.80083"
     inkscape:cy="96"
     inkscape:window-width="1366"
     inkscape:window-height="688"
     inkscape:window-x="0"
     inkscape:window-y="0"
     inkscape:window-maximized="1"
     inkscape:current-layer="svg14" /><path
     id="path2"
     style="color:#000000;fill:#000000;stroke-linejoin:round;-inkscape-stroke:none"
     d="M 96 32 C 56.30664 32 24 64.30664 24 104 L 24 160.61328 C 24 169.04001 30.959642 176 39.386719 176 L 84.105469 176 C 84.040676 175.22551 84.171169 174.83141 84.412109 174.17969 C 84.419842 174.14986 84.429942 174.11575 84.447266 174.04297 C 84.492717 173.85194 84.562241 173.5485 84.650391 173.16211 C 84.826683 172.38933 85.076588 171.27793 85.376953 169.92578 C 85.720141 168.38085 86.226952 166.05737 86.677734 164 L 39.386719 164 C 37.445616 164 36 162.55453 36 160.61328 L 36 104 C 36 70.791906 62.791906 44 96 44 C 113.01437 44 128.33307 51.043565 139.23828 62.369141 C 140.33141 60.624978 141.34791 59.004208 142.08984 57.824219 C 142.47452 57.212414 142.78961 56.712759 143.01562 56.355469 C 143.12864 56.176823 143.21756 56.035541 143.28906 55.923828 C 143.32482 55.867972 143.35463 55.822668 143.39062 55.767578 C 143.40862 55.740036 143.42749 55.712616 143.46289 55.660156 C 143.49832 55.607694 143.24746 55.844107 143.89453 55.091797 L 144.18555 54.753906 C 144.55608 53.386539 145.11705 52.554828 145.59375 51.917969 C 145.59894 51.911029 145.60418 51.905358 145.60938 51.898438 C 132.68347 39.584708 115.21442 32 96 32 z M 150.31055 67.298828 C 149.94989 67.873901 149.69103 68.285497 149.30078 68.908203 L 149.30273 68.908203 C 148.27667 70.546649 147.76773 71.354104 147.07422 72.457031 C 147.37532 72.944545 147.66377 73.440788 147.95117 73.9375 L 150.27148 75.46875 C 152.10304 76.676626 152.54703 76.933447 153.66406 77.652344 C 153.92159 77.23195 154.11564 76.91923 154.38477 76.478516 C 156.0049 73.819279 157.548 71.287687 158.43555 69.833984 C 158.43355 69.832784 158.43169 69.831278 158.42969 69.830078 L 157.20508 71.814453 L 153.66016 69.478516 C 152.35769 68.621612 151.41527 68.017093 150.31055 67.298828 z M 164.73633 82.550781 C 164.69455 82.619362 164.67438 82.65247 164.63281 82.720703 L 164.63281 82.724609 L 164.63086 82.726562 C 163.70169 84.248184 162.81712 85.688089 162.13672 86.789062 C 161.45632 87.890037 161.44151 88.004901 160.71875 89.039062 L 160.71289 89.046875 L 160.70703 89.054688 C 160.58278 89.231244 160.31528 89.379968 160.14648 89.554688 C 160.14558 89.569706 160.18169 89.654506 160.17969 89.666016 C 160.0613 90.232231 159.97276 90.417554 159.91016 90.582031 C 159.78494 90.910986 159.72994 91.010055 159.68164 91.109375 C 159.58508 91.308013 159.53376 91.398992 159.47656 91.503906 C 159.36217 91.713734 159.24434 91.92044 159.09375 92.181641 C 158.79258 92.704041 158.37462 93.413679 157.8418 94.3125 C 157.32293 95.18776 156.41166 96.702673 155.69531 97.900391 C 155.89656 99.905733 156 101.94044 156 104 L 156 160.61328 C 156 162.55422 154.55422 164 152.61328 164 L 114.17383 164 C 113.94531 164.19744 113.80926 164.32094 113.55469 164.53906 C 111.68734 166.13905 109.14861 168.27432 106.35742 170.58984 C 103.01158 173.36545 101.61676 174.50861 99.806641 176 L 152.61328 176 C 161.04032 176 168 169.04032 168 160.61328 L 168 104 C 168 96.533621 166.85662 89.328589 164.73633 82.550781 z M 87.728516 170.37891 C 87.35769 170.55957 87.280448 170.72772 87.205078 170.79492 C 87.281505 170.73762 87.588597 170.48838 87.728516 170.37891 z " /><path
     d="M60 48L46 22"
     stroke="black"
     stroke-width="12"
     stroke-linecap="round"
     stroke-linejoin="round"
     id="path4" /><path
     d="M132 48L146 22"
     stroke="black"
     stroke-width="12"
     stroke-linecap="round"
     stroke-linejoin="round"
     id="path6" /><circle
     style="fill:#000000;fill-rule:evenodd;stroke-width:2.70064;stroke-linecap:round;stroke-linejoin:round"
     id="path853"
     cx="71"
     cy="77"
     r="11" /><path
     id="circle1435"
     style="fill:#000000;fill-rule:evenodd;stroke-width:2.70064;stroke-linecap:round;stroke-linejoin:round"
     d="M 121 66 A 11 11 0 0 0 110 77 A 11 11 0 0 0 121 88 A 11 11 0 0 0 123.95508 87.585938 C 124.4806 86.69956 125.24096 85.41204 125.72656 84.59375 C 127.51262 81.584062 129.00716 79.069139 130.07031 77.289062 C 130.21055 77.054265 130.27748 76.945006 130.40234 76.736328 L 130.28516 76.660156 L 131.68945 74.412109 A 11 11 0 0 0 121 66 z " /><path
     id="rect902"
     style="fill:#000000;fill-rule:evenodd;stroke:#000000;stroke-width:1.26356;stroke-linecap:round;stroke-linejoin:round"
     d="M 24.630859 100.63086 L 24.630859 111.36914 L 116.85156 111.36914 C 119.15329 107.47345 120.99282 104.36924 123.20508 100.63086 L 24.630859 100.63086 z M 147.05664 100.63086 C 145.18796 103.7341 142.82037 107.64074 140.56445 111.36914 L 167.36914 111.36914 L 167.36914 100.63086 L 147.05664 100.63086 z " /><path
     id="path959"
     style="isolation:isolate;fill:#000000;fill-opacity:1;stroke-width:10.2082"
     d="m 156.4391,51.547054 c -0.4218,0.01025 -0.82697,0.07146 -1.19627,0.159249 -1.79369,0.452225 -5.44307,3.829414 -5.44307,5.044296 0,0.166394 3.61259,2.666595 8.01507,5.542662 4.40503,2.878824 8.11235,5.223757 8.23436,5.223757 0.45682,0 1.88571,-4.198851 2.03368,-5.961405 0.19467,-2.336153 -0.26828,-3.460488 -2.35268,-5.74213 -2.02472,-2.213553 -5.24085,-3.828495 -7.97519,-4.187009 -0.45579,-0.06125 -0.89413,-0.09188 -1.3159,-0.08167 z m -7.99512,7.456808 c -0.0439,0.05104 -1.94775,3.082376 -4.22684,6.719059 -2.27911,3.639336 -4.50333,7.177203 -4.94462,7.875549 l -0.79747,1.276029 8.49357,5.602482 c 7.33309,4.836047 8.53658,5.544601 8.8325,5.124125 0.18692,-0.267457 1.86028,-2.97468 3.70847,-6.001318 1.8456,-3.029293 3.91778,-6.432515 4.60566,-7.556543 l 1.2561,-2.033684 -8.41383,-5.542662 c -4.63607,-3.050117 -8.46936,-5.512343 -8.5135,-5.463037 z m -11.5042,18.522327 c -0.30889,0.32156 -37.897889,63.928741 -38.001731,64.299911 -0.04187,0.15619 3.501581,2.77787 7.875491,5.80196 4.3765,3.02664 8.10811,5.46201 8.27424,5.42312 0.31146,-0.0714 39.3841,-64.452734 39.21797,-64.618924 -0.76838,-0.76868 -17.19465,-11.08512 -17.36597,-10.906067 z M 96.764813,146.19247 c -0.04694,0.0613 -1.515923,6.64209 -3.249887,14.63452 -1.736584,7.99509 -3.236194,14.74151 -3.32964,14.99335 -0.02552,0.0714 -0.02655,0.14801 -0.02042,0.17966 0.261739,-0.009 2.216881,-1.6132 12.361534,-10.02887 5.5446,-4.59973 10.0886,-8.48427 10.0886,-8.65301 0.005,-0.30931 -15.69493,-11.32532 -15.850677,-11.12544 z" /></svg>
