<?xml version="1.0" encoding="UTF-8" standalone="no"?>
<svg
   width="192"
   height="192"
   version="1.1"
   id="svg6"
   sodipodi:docname="bugreport.svg"
   inkscape:version="1.2.1 (9c6d41e410, 2022-07-14)"
   xmlns:inkscape="http://www.inkscape.org/namespaces/inkscape"
   xmlns:sodipodi="http://sodipodi.sourceforge.net/DTD/sodipodi-0.dtd"
   xmlns="http://www.w3.org/2000/svg"
   xmlns:svg="http://www.w3.org/2000/svg"
   xmlns:rdf="http://www.w3.org/1999/02/22-rdf-syntax-ns#"
   xmlns:cc="http://creativecommons.org/ns#"
   xmlns:dc="http://purl.org/dc/elements/1.1/">
  <metadata
     id="metadata12">
    <rdf:RDF>
      <cc:Work
         rdf:about="">
        <dc:format>image/svg+xml</dc:format>
        <dc:type
           rdf:resource="http://purl.org/dc/dcmitype/StillImage" />
      </cc:Work>
    </rdf:RDF>
  </metadata>
  <defs
     id="defs10" />
  <sodipodi:namedview
     pagecolor="#ffffff"
     bordercolor="#666666"
     borderopacity="1"
     objecttolerance="10"
     gridtolerance="10"
     guidetolerance="10"
     inkscape:pageopacity="0"
     inkscape:pageshadow="2"
     inkscape:window-width="1366"
     inkscape:window-height="688"
     id="namedview8"
     showgrid="false"
     inkscape:zoom="2.5104167"
     inkscape:cx="95.80083"
     inkscape:cy="96"
     inkscape:current-layer="svg6"
     inkscape:showpageshadow="2"
     inkscape:pagecheckerboard="0"
     inkscape:deskcolor="#d1d1d1"
     inkscape:window-x="0"
     inkscape:window-y="0"
     inkscape:window-maximized="1" />
  <path
     id="rect838"
     style="fill:#000000;stroke-width:687.754;stroke-linecap:round;stroke-linejoin:round;paint-order:markers fill stroke"
     d="m 50.230356,16 a 5.7044319,5.7121841 0 0 0 -5.570294,5.712872 5.7044319,5.7121841 0 0 0 5.705059,5.710918 v 0.113281 A 21.517117,24.756605 0 0 1 67.25569,40.210858 45.635455,57.121841 0 0 0 52.771363,66.159991 68.795449,57.121841 0 0 0 52.994019,66.271318 61.197146,61.280311 0 0 0 21.619122,97.220436 C 7.9285115,127.38071 20.123466,162.35757 48.759658,175.49556 a 5.6930231,5.7007597 0 0 0 7.531225,-2.85546 l 10.162076,-22.40421 a 45.635455,59.977933 0 0 0 29.546778,14.2812 45.635455,59.977933 0 0 0 29.435453,-14.2812 l 10.2734,22.40421 c 1.25497,2.85608 4.67903,4.09162 7.53122,2.72071 28.63622,-13.02377 40.83116,-47.9772 27.14054,-78.251702 a 61.208554,61.291735 0 0 0 -31.37489,-30.83779 68.795449,57.121841 0 0 0 0.11132,-0.111327 45.635455,57.121841 0 0 0 -14.48433,-25.949133 21.517117,24.756605 0 0 1 17.00191,-12.673787 V 27.42379 A 5.7044319,5.7121841 0 0 0 147.33941,21.712872 5.7044319,5.7121841 0 0 0 141.63436,16 5.7044319,5.7121841 0 0 0 139.69686,16.335937 32.925981,36.180974 0 0 0 115.63053,33.025335 45.635455,57.121841 0 0 0 95.999737,27.42379 45.635455,57.121841 0 0 0 76.368942,33.136663 32.925981,36.180974 0 0 0 52.302614,16.335937 5.7044319,5.7121841 0 0 0 50.365121,16 5.7044319,5.7121841 0 0 0 50.230356,16 Z m 45.755709,21.43157 c 4.521025,0.03987 9.006555,1.254338 13.333935,3.642566 l 8.49607,6.513651 c 3.52725,3.655012 6.52553,8.254127 8.83982,13.482377 l -7.08982,3.322255 c -0.30334,0.142085 -0.49308,0.382218 -0.7793,0.542967 -4.5378,1.576593 -9.31185,2.701799 -14.2187,3.318348 H 87.427499 c -5.090576,-0.630572 -10.04001,-1.806967 -14.73042,-3.468739 -0.298882,-0.169204 -0.496915,-0.421574 -0.814451,-0.57031 l -6.66404,-3.121083 c 2.383949,-5.393606 5.485637,-10.142488 9.152314,-13.855424 a 10.000967,10.000967 0 0 0 0.04687,-0.05078 c 0.392659,-0.106497 0.770425,-0.292556 1.107418,-0.562498 l 5.570294,-4.462876 c 0.03668,-0.02938 0.07055,-0.06112 0.105468,-0.0918 l 0.01758,0.02344 0.886716,-0.681639 c 4.48823,-2.613344 9.166271,-3.922538 13.880814,-3.980455 z M 68.05647,73.814263 a 68.795449,57.121841 0 0 0 18.583922,4.439438 L 58.921734,139.39217 48.537002,162.10694 C 29.370151,149.99715 21.849985,124.41192 32.003853,101.90597 A 49.00107,49.067661 0 0 1 56.513539,77.339642 c 0.912706,-0.456975 1.959523,-0.795937 2.986318,-1.138668 A 47.346785,47.411128 0 0 1 67.25569,73.92559 Z m 55.88653,0 0.57812,0.111327 c 3.08039,0.571218 6.17041,1.49037 9.13669,2.632805 0.57044,0.228488 1.01155,0.441432 1.58203,0.669919 a 49.012479,49.079085 0 0 1 24.75578,24.677656 c 10.15386,22.50596 2.6337,48.09118 -16.53315,60.20097 L 133.07773,139.25936 105.35909,78.253701 A 68.795449,57.121841 0 0 0 123.943,73.814263 Z m -27.701076,8.927705 12.384726,26.878812 15.3476,33.77528 -1.6914,-3.71678 -3.46483,3.05858 a 10.000967,10.000967 0 0 0 -0.45313,0.42774 l 0.20704,-0.20704 -6.99607,6.17186 c -5.03409,3.5788 -10.30289,5.31196 -15.593701,5.37889 -5.315258,-0.0501 -10.608294,-1.78144 -15.665965,-5.37498 l -7.24607,-6.39647 -3.181629,-2.80663 z" />
</svg>
