<?xml version="1.0" encoding="UTF-8" standalone="no"?>
<svg
   viewBox="0 0 192 192"
   fill="none"
   class="logo"
   data-v-208a69ab=""
   version="1.1"
   id="svg10"
   sodipodi:docname="cdek.svg"
   width="192"
   height="192"
   inkscape:version="1.2.1 (9c6d41e410, 2022-07-14)"
   xmlns:inkscape="http://www.inkscape.org/namespaces/inkscape"
   xmlns:sodipodi="http://sodipodi.sourceforge.net/DTD/sodipodi-0.dtd"
   xmlns="http://www.w3.org/2000/svg"
   xmlns:svg="http://www.w3.org/2000/svg">
  <defs
     id="defs14" />
  <sodipodi:namedview
     id="namedview12"
     pagecolor="#ffffff"
     bordercolor="#666666"
     borderopacity="1.0"
     inkscape:showpageshadow="2"
     inkscape:pageopacity="0.0"
     inkscape:pagecheckerboard="0"
     inkscape:deskcolor="#d1d1d1"
     showgrid="false"
     inkscape:zoom="2.5104167"
     inkscape:cx="96.995851"
     inkscape:cy="96"
     inkscape:window-width="1366"
     inkscape:window-height="688"
     inkscape:window-x="0"
     inkscape:window-y="0"
     inkscape:window-maximized="1"
     inkscape:current-layer="svg10" />
  <path
     fill-rule="evenodd"
     clip-rule="evenodd"
     d="m 124.05195,117.99999 h 11.37039 l 4.88519,-13.8404 5.07948,-4.242337 4.00104,12.516637 c 1.2374,3.86865 2.51117,5.5661 5.28935,5.5661 h 8.70546 L 154.40208,93.438778 176,74 H 162.05195 L 148.9413,87.840722 c -1.52727,1.611238 -3.07221,3.197123 -4.6213,5.091322 h -0.13195 L 150.73455,74 h -11.37143 z"
     fill="#1ab248"
     data-v-208a69ab=""
     id="path2"
     style="fill:#000000;stroke-width:1.04328" />
  <path
     fill-rule="evenodd"
     clip-rule="evenodd"
     d="m 123.56156,74.001743 c 3.56571,5.79e-4 7.02441,0.0011 9.92104,0.0014 l -2.34702,7.264583 c -0.73766,2.282458 -2.60987,3.374412 -6.73662,3.374412 -7.16488,0 -17.76675,-0.0012 -24.932467,-0.0025 l 2.347017,-7.264571 C 102.55086,75.091346 104.42286,74 108.54961,74 c 4.26857,0 9.75688,8.91e-4 15.01195,0.0017 z M 102.7627,90.67914 c 7.16468,0 17.76717,0.0012 24.93288,0.0031 l -2.34701,7.264293 c -0.73766,2.283077 -2.60987,3.374377 -6.73673,3.374377 -7.16498,0 -17.76685,-0.001 -24.932567,-0.003 l 2.34702,-7.263556 c 0.73735,-2.283495 2.60955,-3.375114 6.736407,-3.375114 z m 18.8612,16.68124 c -7.1652,-0.001 -17.76707,-0.003 -24.932057,-0.003 -4.12748,0 -5.99906,1.09193 -6.73641,3.37375 l -2.34701,7.26555 c 7.16571,6.3e-4 17.767577,0.003 24.932877,0.003 4.12644,0 5.99875,-1.09225 6.7361,-3.37532 z"
     fill="#1ab248"
     data-v-208a69ab=""
     id="path4"
     style="fill:#000000;stroke-width:1.04328" />
  <path
     fill-rule="evenodd"
     clip-rule="evenodd"
     d="m 72.495273,84.597713 6.10213,0.0025 c 5.19917,0.0012 4.01247,6.3382 1.3812,12.514333 -2.31855,5.443534 -6.42774,10.247284 -11.32998,10.246654 l -10.17278,-0.001 c -4.05755,0 -5.92831,1.09193 -6.7174,3.37365 l -2.51169,7.26514 7.45954,0.001 7.29184,-0.0593 c 6.4666,-0.0521 11.76062,-0.5082 17.95148,-5.93801 6.54255,-5.73593 14.17081,-20.637055 12.8639,-29.255711 -1.0238,-6.753863 -4.74245,-8.743852 -13.74722,-8.74448 L 64.657043,74 l -9.55439,27.28963 6.07065,0.008 c 3.61299,0.004 5.42618,0.0483 7.34805,-4.998814 z"
     fill="#1ab248"
     data-v-208a69ab=""
     id="path6"
     style="fill:#000000;stroke-width:1.04328" />
  <path
     fill-rule="evenodd"
     clip-rule="evenodd"
     d="m 44.442603,84.635636 -4.58961,0.0012 c -9.19419,0.0044 -17.0727,22.728094 -6.20167,22.724324 l 6.98494,-0.001 c 4.02847,0 7.01901,1.43565 5.69486,5.30682 l -1.82473,5.33196 -7.4081,0.001 -6.02577,-0.0593 c -7.70879,-0.0752 -12.68328,-3.78385 -14.47443,-9.41511 -1.93828,-6.09379 0.79823,-18.803819 8.74062,-26.945755 4.60841,-4.72341 10.99199,-7.576648 19.17661,-7.577276 L 59.636363,74 l -2.36374,6.659441 c -1.52717,4.302738 -4.64737,3.981853 -6.42795,3.981224 z"
     fill="#1ab248"
     data-v-208a69ab=""
     id="path8"
     style="fill:#000000;stroke-width:1.04328" />
</svg>
