<?xml version="1.0" encoding="UTF-8" standalone="no"?>
<svg
   width="192"
   height="192"
   version="1.1"
   id="svg863"
   sodipodi:docname="droid_ify.svg"
   inkscape:version="1.2.1 (9c6d41e410, 2022-07-14)"
   xml:space="preserve"
   xmlns:inkscape="http://www.inkscape.org/namespaces/inkscape"
   xmlns:sodipodi="http://sodipodi.sourceforge.net/DTD/sodipodi-0.dtd"
   xmlns="http://www.w3.org/2000/svg"
   xmlns:svg="http://www.w3.org/2000/svg"><defs
     id="defs867" /><sodipodi:namedview
     id="namedview865"
     pagecolor="#ffffff"
     bordercolor="#666666"
     borderopacity="1.0"
     inkscape:showpageshadow="2"
     inkscape:pageopacity="0.0"
     inkscape:pagecheckerboard="0"
     inkscape:deskcolor="#d1d1d1"
     showgrid="false"
     inkscape:zoom="2.2488991"
     inkscape:cx="-2.890303"
     inkscape:cy="113.61114"
     inkscape:window-width="1350"
     inkscape:window-height="721"
     inkscape:window-x="0"
     inkscape:window-y="0"
     inkscape:window-maximized="1"
     inkscape:current-layer="svg863" /><path
     d="m 127,68 a 9,9 0 0 1 -9,9 9,9 0 0 1 -9,-9 9,9 0 0 1 9,-9 9,9 0 0 1 9,9 z m -44,0 a 9,9 0 0 1 -9,9 9,9 0 0 1 -9,-9 9,9 0 0 1 9,-9 9,9 0 0 1 9,9 z"
     fill="#000000"
     id="path855" /><path
     d="M 142.1,22 123.65,40.5 M 49.86,22 68.31,40.5"
     fill="none"
     stroke="#000000"
     stroke-linecap="round"
     stroke-width="12"
     id="path857" /><path
     style="color:#000000;fill:#000000"
     d="M 96,27 C 65.695437,27 41,51.695437 41,82 v 39 c 0,30.30456 24.695437,55 55,55 30.30456,0 55,-24.69544 55,-55 V 82 C 151,51.695437 126.30456,27 96,27 Z m 0,12 c 23.81929,0 43,19.180712 43,43 v 3 H 53 V 82 C 53,58.180712 72.180712,39 96,39 Z M 53,97 h 86 v 24 c 0,23.81929 -19.18071,43 -43,43 -23.819288,0 -43,-19.18071 -43,-43 z"
     id="path859" /><path
     inkscape:export-ydpi="48.18"
     inkscape:export-xdpi="48.18"
     inkscape:export-filename="/home/rafael/workspace/logo-osi/3/png/logo396x412.png"
     id="path3773"
     d="m 96.000001,129.29215 m 3.302817,8.60353 a 9.2154488,9.2154488 0 1 0 -6.605635,0 l -6.207525,16.17496 a 26.540495,26.540495 0 1 1 19.020682,0 z"
     inkscape:connector-curvature="0"
     style="text-anchor:middle;fill:#000000;fill-opacity:1;stroke:#000000;stroke-width:1.5;stroke-linejoin:round;stroke-dasharray:none;stroke-opacity:1" /></svg>
