<?xml version="1.0" encoding="UTF-8" standalone="no"?>
<!-- Created with Inkscape (http://www.inkscape.org/) -->

<svg
   version="1.1"
   id="svg2"
   width="192"
   height="192"
   viewBox="0 0 192 192"
   sodipodi:docname="fastfood.svg"
   inkscape:version="1.2.1 (9c6d41e410, 2022-07-14)"
   xmlns:inkscape="http://www.inkscape.org/namespaces/inkscape"
   xmlns:sodipodi="http://sodipodi.sourceforge.net/DTD/sodipodi-0.dtd"
   xmlns="http://www.w3.org/2000/svg"
   xmlns:svg="http://www.w3.org/2000/svg">
  <defs
     id="defs6" />
  <sodipodi:namedview
     id="namedview4"
     pagecolor="#ffffff"
     bordercolor="#666666"
     borderopacity="1.0"
     inkscape:showpageshadow="2"
     inkscape:pageopacity="0.0"
     inkscape:pagecheckerboard="0"
     inkscape:deskcolor="#d1d1d1"
     showgrid="false"
     inkscape:zoom="2.5104167"
     inkscape:cx="95.80083"
     inkscape:cy="96"
     inkscape:window-width="1366"
     inkscape:window-height="688"
     inkscape:window-x="0"
     inkscape:window-y="0"
     inkscape:window-maximized="1"
     inkscape:current-layer="g8" />
  <g
     inkscape:groupmode="layer"
     inkscape:label="Image"
     id="g8">
    <path
       id="path908"
       style="fill:#000000;fill-opacity:1;stroke-width:0.635093"
       d="m 102.17753,16 c -0.2879,0 -0.61034,0.07817 -0.9318,0.184769 -0.34541,0.09902 -0.67834,0.232096 -0.97399,0.431551 -0.14857,0.09619 -0.276969,0.219023 -0.40697,0.339785 -0.01379,0.01211 -0.031,0.01615 -0.04465,0.02852 -0.0025,0.002 -0.0101,0.01765 -0.01239,0.01984 -0.04211,0.04119 -0.09425,0.07019 -0.134002,0.11409 -0.207185,0.228813 -0.790682,1.324424 -1.506268,2.734385 -1.234103,2.378537 -2.925684,5.887401 -4.696241,9.830147 l -5.119357,11.397614 -35.130595,0.316224 h -0.05336 -0.02109 c -0.01008,8.9e-5 -0.0135,-8.9e-5 -0.02357,0 C 21.66733,41.397308 18.211938,41.498134 17.162584,42.447281 16.523629,43.025206 16,44.217396 16,45.096098 c 0,0.05594 0.01407,0.107314 0.01613,0.16245 C 16.015424,45.278022 16,45.309273 16,45.327991 c 0,0.144317 0.03734,0.285429 0.06328,0.42783 0.0038,0.02422 0.0032,0.05038 0.0074,0.07441 0.0032,0.01743 0.0014,0.03599 0.005,0.05332 0.0023,0.01234 0.0013,0.02616 0.0037,0.03844 v 0.0013 c 0.0043,0.02172 0.01399,0.04046 0.01861,0.06201 0.0094,0.03384 0.02026,0.06682 0.03101,0.100444 0.147896,0.608428 0.435429,1.139858 0.831306,1.582349 0.06135,0.06868 0.114557,0.144293 0.181146,0.208337 0.0127,0.01223 0.02185,0.02762 0.03474,0.03968 l 0.0012,0.0013 0.0012,0.0012 0.0012,0.0013 c 0.04095,0.03808 0.09244,0.06537 0.135241,0.101682 0.01811,0.0154 0.03864,0.02832 0.05707,0.0434 0.134752,0.11042 0.266786,0.223665 0.418137,0.316225 0.0043,0.0027 0.0093,0.0048 0.01364,0.0074 0.661786,0.401113 1.473374,0.627425 2.384724,0.627425 0.08082,0 0.116298,0.0093 0.191075,0.0099 0.0077,8.9e-5 0.01223,0.0011 0.01985,0.0013 0.151631,0.0025 0.273163,0.01589 0.404485,0.0248 l 0.756854,0.122743 c 0.120998,0.03805 0.244913,0.0755 0.336245,0.137651 0.411429,0.31943 0.544122,0.981534 0.729562,2.402042 0.193743,1.484133 2.363653,28.127128 4.821552,59.206591 0.772475,9.76765 1.41563,17.25625 2.10059,25.44652 1.43832,17.70259 2.6227,31.85668 2.75695,32.33149 0.05513,0.19499 0.146454,0.40661 0.234501,0.61631 0.0013,0.004 0.0075,0.0694 0.0087,0.0732 0.723439,2.24155 3.358443,4.97578 5.685117,5.90032 0.371578,0.14766 1.141316,0.28231 2.05344,0.39559 1.160507,0.19703 2.555304,0.31113 4.140385,0.3125 0.0445,4e-5 0.06791,-0.003 0.111666,-0.003 0.06611,3.2e-4 0.115084,0.006 0.18239,0.006 0.0054,0 0.0083,0 0.01365,0 0.0036,0 0.0063,0 0.0099,0 0.860172,-3.4e-4 1.575175,-0.0163 2.177513,-0.0558 0.323407,-0.0211 0.545298,-0.0693 0.81021,-0.10541 0.242131,-0.0264 0.535336,-0.0407 0.741969,-0.0769 0.917892,-0.15786 1.502196,-0.41802 1.938051,-0.81225 0.642289,-0.58096 0.993476,-1.41422 1.081937,-2.29045 v -0.001 c 0.04105,-0.16552 0.0794,-0.32985 0.0794,-0.46756 0,-0.12931 -0.03807,-0.28485 -0.07445,-0.43899 -0.05823,-0.77644 -0.371216,-1.54139 -0.976471,-2.20983 -0.199281,-0.22008 -0.422761,-0.40262 -0.692335,-0.55307 -0.08437,-0.047 -0.208628,-0.0721 -0.302742,-0.11285 -0.806792,-0.35128 -1.95613,-0.49976 -3.928218,-0.50472 -1.015159,-0.003 -2.021042,-0.0713 -2.868611,-0.17114 -0.584939,-0.0949 -1.055473,-0.24322 -1.46781,-0.42286 -0.223657,-0.10159 -0.432145,-0.21434 -0.607967,-0.34722 -0.74867,-1.71572 -1.913154,-14.10991 -5.382184,-56.94917 C 34.052055,95.393302 32.956936,81.65067 32.126025,71.057262 32.094448,70.652771 32.040139,69.973664 32.009396,69.579084 31.462739,62.595743 31.325782,60.569258 31.107372,57.549024 30.982929,55.837963 30.6553,51.646226 30.645814,51.348605 l -0.03474,-2.309037 5.852617,-0.02356 h 36.68898 c 0.330019,0 0.443014,-0.0013 0.768021,-0.0013 0.09348,0 0.127784,6e-6 0.220856,0 0.07536,0 0.103574,6e-6 0.178669,0 0.05157,0 0.07139,6e-6 0.122829,0 5.94041,-1.02e-4 9.768116,-0.0084 14.13959,-0.01364 0.939422,-0.0011 2.169604,-8.89e-4 3.043556,-0.0025 1.468115,-0.0027 3.824131,-7.62e-4 5.116854,-0.005 0.268361,-8.89e-4 0.800974,-2.98e-4 1.062086,-0.0013 0.01214,-4.4e-5 0.01391,4.5e-5 0.02604,0 6.047718,-0.02178 10.158288,-0.06426 12.989418,-0.145093 0.003,-8.9e-5 0.004,8.9e-5 0.007,0 1.41407,-0.04041 2.50719,-0.09037 3.36242,-0.152528 0.002,-1.2e-4 0.002,1.21e-4 0.004,0 0.29749,-0.02164 0.42815,-0.05347 0.67125,-0.07813 1.80993,-0.153347 2.56135,-0.357412 2.88598,-0.651044 0.78133,-0.706708 1.14133,-1.78016 1.10179,-2.859631 0.0429,-0.916397 -0.27707,-1.805607 -0.95042,-2.491331 -0.0155,-0.01782 -0.025,-0.03949 -0.0409,-0.05705 -0.015,-0.01655 -0.0332,-0.02855 -0.0484,-0.04464 -0.0161,-0.01519 -0.0269,-0.0334 -0.0434,-0.04836 -0.0122,-0.01106 -0.0308,-0.01891 -0.0434,-0.02976 -0.20044,-0.195734 -0.41944,-0.364351 -0.73701,-0.493552 -0.38631,-0.157104 -0.90711,-0.27028 -1.67625,-0.35094 h -10e-4 c -0.464,-0.04862 -1.24172,-0.06764 -1.912,-0.09549 -1.59165,-0.107003 -3.58886,-0.186147 -6.6529,-0.240579 l -8.306816,-0.14633 c -0.673748,-0.08692 -1.200808,-0.182262 -1.400807,-0.30258 l 4.448083,-9.663982 c 0.47517,-1.032398 0.78749,-1.811366 1.2209,-2.788945 0.58108,-1.313916 1.1182,-2.514847 1.57203,-3.595004 0.79438,-1.894173 1.40804,-3.425449 1.68122,-4.289452 0.0833,-0.249004 0.21352,-0.599361 0.21589,-0.675851 3.3e-4,-0.01084 -0.0111,-0.03336 -0.0112,-0.04464 0.003,-0.02606 0.041,-0.1244 0.041,-0.143803 0,-0.03741 -0.0162,-0.06842 -0.0174,-0.10541 5.7e-4,-0.007 0.0174,-0.04876 0.0174,-0.05456 0,-0.155194 -0.0395,-0.320535 -0.0931,-0.487354 -0.01,-0.147912 -0.0472,-0.295989 -0.0856,-0.429069 v -0.0012 c -0.0814,-0.280552 -0.23522,-0.562503 -0.45415,-0.845609 -0.0346,-0.04812 -0.071,-0.09258 -0.10794,-0.138889 -0.0686,-0.08262 -0.10574,-0.154286 -0.18612,-0.243055 -0.34241,-0.37816 -0.76553,-0.665418 -1.22337,-0.873019 -0.007,-0.0035 -0.013,-0.0077 -0.0198,-0.01116 -0.0741,-0.03309 -0.15114,-0.05571 -0.22709,-0.08432 -0.44769,-0.186001 -0.92876,-0.290821 -1.41954,-0.300103 C 102.32062,16.023016 102.24558,16 102.17753,16 Z m 10.3826,49.531449 c -1.77912,0 -3.767,0.113354 -5.82532,0.2939 -1.21671,0.07211 -2.39373,0.166559 -3.55476,0.276535 -3.09822,0.171219 -5.310726,0.529405 -8.035088,1.222728 -0.07363,0.01782 -0.168402,0.03151 -0.240707,0.0496 -0.08639,0.02161 -0.168212,0.04879 -0.254353,0.07068 -0.230531,0.06012 -0.400217,0.08994 -0.643949,0.15501 -0.295233,0.07882 -0.660674,0.200839 -0.980194,0.2939 -3.671667,1.0298 -7.122141,2.314999 -10.305672,3.860383 -0.06003,0.02883 -0.145189,0.06206 -0.203481,0.09053 -0.08369,0.04086 -0.162233,0.09011 -0.245669,0.131448 -1.005787,0.499444 -1.981579,1.027382 -2.934373,1.576147 -0.156542,0.09117 -0.30865,0.187453 -0.464041,0.280261 -6.334351,3.736624 -11.446276,8.562878 -15.107372,14.280806 -0.198171,0.303848 -0.398419,0.605361 -0.586877,0.912702 -0.234901,0.389513 -0.449607,0.790645 -0.671245,1.188005 -0.275539,0.488243 -0.578566,0.96782 -0.828817,1.463294 -0.754457,1.493772 -1.368339,2.946489 -1.8785,4.412221 -0.398082,1.047395 -0.715117,2.060841 -0.973987,3.040692 -0.630913,2.193529 -0.848128,3.988639 -0.833784,6.909749 -0.03806,0.84664 -0.05925,1.71992 -0.05832,2.63394 0.0041,3.96836 0.182118,5.77774 0.858605,7.65256 0.643985,2.63211 1.805338,4.35275 4.00638,6.55261 1.234758,1.2341 3.288305,2.76231 4.563477,3.39658 0.374495,0.18628 0.880577,0.33494 1.537288,0.46876 0.109126,0.0391 0.224325,0.0831 0.343691,0.11905 l 1.072008,0.56548 4.292993,0.0285 c 2.287904,0.10004 6.526468,0.15018 11.347899,0.18849 1.423162,0.019 3.132061,0.0404 4.77937,0.0521 1.250886,0.005 3.497561,0.005 4.905928,0.009 5.93633,0.0236 12.29556,0.0369 21.18084,0.0359 0.21073,0.001 0.28991,0.003 0.50251,0.004 25.7119,0.17132 47.02334,0.5319 48.35822,0.81101 0.80207,0.43122 1.69967,1.415 2.11796,2.3326 0.0453,0.0958 0.08,0.19199 0.12161,0.28895 0.22623,0.57912 0.35213,1.07386 0.36601,1.55134 -0.0156,0.20972 -0.021,0.4092 -0.0583,0.64361 -0.003,0.0145 -0.003,0.0288 -0.005,0.0434 -0.025,0.1534 -0.0579,0.26935 -0.0844,0.4117 -0.0501,0.18127 -0.11988,0.37666 -0.19604,0.57664 -0.33888,0.52513 -0.80992,1.1158 -1.33752,1.64311 -0.54783,0.54753 -0.95671,0.91952 -1.42687,1.19172 -1.23377,0.31246 -3.22042,0.46802 -5.84517,0.60145 -0.48888,0.0135 -0.91036,0.0632 -1.40328,0.0632 -0.0603,0 -0.10768,0.004 -0.1675,0.004 -4.74637,0.008 -6.65342,0.24174 -8.36019,1.01191 -0.21663,0.065 -0.5098,0.12814 -0.63401,0.19469 -0.27229,0.14587 -0.88704,0.64077 -1.62911,1.26737 -1.65551,1.31105 -3.93083,3.35991 -5.99407,5.4576 -0.10587,0.10764 -0.1707,0.16313 -0.2742,0.26786 -0.1412,0.13737 -0.28408,0.26365 -0.42433,0.4018 -1.03813,1.02243 -1.92683,1.89768 -2.7458,2.68354 -0.24358,0.22957 -0.42495,0.37106 -0.65263,0.58036 -2.45366,2.18891 -4.05575,3.13917 -5.5387,3.31598 -0.24986,-0.004 -0.49964,-0.0341 -0.75314,-0.0955 -0.41625,-0.11166 -0.85165,-0.3197 -1.3065,-0.58656 -1.17463,-0.79424 -2.94352,-2.32129 -5.23473,-4.50151 -0.47712,-0.46796 -0.88917,-0.86432 -1.42934,-1.39633 -0.29976,-0.29525 -0.60382,-0.5672 -0.907,-0.85815 -0.34872,-0.33296 -0.68086,-0.65249 -1.02981,-0.97594 -0.55425,-0.51709 -1.07863,-0.99835 -1.61546,-1.47694 -0.51136,-0.4712 -0.92987,-0.82409 -1.37351,-1.21157 -0.47238,-0.41521 -0.88578,-0.77429 -1.3003,-1.12227 -0.0867,-0.07 -0.19156,-0.16435 -0.27545,-0.23065 -1.00303,-0.83109 -1.85879,-1.49927 -2.26437,-1.70388 -0.31303,-0.15792 -0.73926,-0.28425 -1.25936,-0.39807 l -0.51976,-0.31018 -2.74578,-0.0198 c -3.59236,-0.22777 -9.919272,-0.29765 -23.376971,-0.29765 -0.0742,0 -0.103637,0 -0.177423,0 -0.06174,0 -0.08936,0 -0.15137,0 -0.09909,0 -0.138647,0.001 -0.236985,0.001 -0.08576,-1e-5 -0.138355,-0.001 -0.224579,-0.001 -9.24905,0 -14.37962,0.0272 -18.103779,0.10293 -3.289123,0.0457 -5.575998,0.13836 -6.517662,0.35838 -0.06273,0.0104 -0.166523,0.0177 -0.224573,0.0285 -0.382029,0.0712 -0.665553,0.15262 -0.8859,0.24554 -0.221111,0.093 -0.37757,0.19749 -0.507462,0.31498 -0.130242,0.1178 -0.246922,0.24143 -0.349891,0.38566 -5.33e-4,6.4e-4 -6.98e-4,0.002 -0.0013,0.003 -0.219769,0.30864 -0.377327,0.7364 -0.49506,1.40255 -0.246953,0.93323 -0.316229,2.6464 -0.290336,5.83708 5.1e-5,0.006 -4.4e-5,0.0154 0,0.0211 -0.01288,1.23153 -0.02602,2.43406 -0.02602,4.20135 0,0.0208 -7e-6,0.0338 0,0.0545 -7e-6,0.0403 0,0.0561 0,0.0967 0,0.0113 0.0012,0.0209 0.0012,0.0323 -6e-6,0.0557 -0.0012,0.0777 -0.0012,0.13393 0,0.0945 0.0024,0.15717 0.0025,0.2505 -8.3e-5,0.19154 -0.0025,0.27575 -0.0025,0.4737 0,8.41629 0.03794,10.91949 0.67869,12.90681 0.0011,0.004 0.0014,0.0172 0.0025,0.0211 0.0022,0.008 0.0065,0.017 0.0087,0.0248 0.01555,0.0474 0.03956,0.10063 0.05583,0.14757 0.167487,0.54538 0.428581,1.11986 0.748169,1.70512 0.04639,0.0943 0.06602,0.16386 0.11539,0.26289 1.038128,2.08215 2.454209,3.72739 4.352549,5.04467 0.629864,0.52111 1.258884,0.97492 1.84872,1.27977 0.709704,0.3668 2.180715,0.84018 3.71853,1.27356 0.359934,0.10913 0.704032,0.22569 1.084415,0.32614 0.230481,0.0609 0.485214,0.10811 0.723356,0.16246 0.07841,0.018 0.160901,0.0474 0.238224,0.0645 0.04242,0.009 0.116591,0.0156 0.161294,0.0248 3.101638,0.63562 9.115758,0.78225 29.065814,0.749 4.58904,0.0276 8.64967,0.0708 13.46834,0.0695 13.91884,0.0234 23.16479,-0.001 29.32512,-0.19593 l 10.01162,-0.031 2.73833,-1.10616 c 0.0366,-0.014 0.0841,-0.0241 0.12035,-0.0385 0.14318,-0.0566 0.26857,-0.1174 0.40821,-0.17485 l 0.32756,-0.13268 c 0.0608,-0.0246 0.12039,-0.06 0.18114,-0.0856 4.1249,-1.78586 6.66128,-3.99648 8.27332,-7.22969 0.019,-0.0382 0.0322,-0.0783 0.0509,-0.11657 0.0199,-0.0361 0.0413,-0.0718 0.0608,-0.10788 0.10076,-0.17932 0.21304,-0.35851 0.29902,-0.53572 0.006,-0.0134 0.009,-0.0263 0.0148,-0.0397 0.19987,-0.4171 0.37284,-0.82976 0.48142,-1.22644 0.0853,-0.3118 0.13101,-0.59163 0.19976,-0.89038 0.0195,-0.0721 0.03,-0.14254 0.0484,-0.21454 0.0667,-0.30462 0.15538,-0.62755 0.20473,-0.91766 0.006,-0.0367 0.0125,-0.0726 0.0186,-0.10912 0.16235,-0.89111 0.22668,-1.74374 0.20472,-2.53721 0.002,-0.0517 0.026,-0.16211 0.026,-0.20833 0,-0.29991 -0.0507,-0.60191 -0.12654,-0.90155 -0.0248,-0.22236 -0.0648,-0.44752 -0.12408,-0.63368 -0.17323,-0.65935 -0.43193,-1.2264 -0.80029,-1.6332 -0.15799,-0.17448 -0.34202,-0.32602 -0.54097,-0.46007 -0.30399,-0.23507 -0.64389,-0.42086 -1.03353,-0.53695 -0.35982,-0.10838 -0.75595,-0.16366 -1.18615,-0.16366 -0.23498,0 -0.48608,0.0316 -0.73949,0.0881 h -0.001 c -0.75597,0.11491 -1.44327,0.43174 -1.88098,0.9561 -0.007,0.009 -0.0172,0.0313 -0.0248,0.0409 -0.008,0.009 -0.0219,0.017 -0.0298,0.026 -0.47512,0.54547 -0.982,1.98491 -1.22462,3.36311 -0.0716,0.28853 -0.1717,0.54993 -0.22831,0.83705 -0.35547,1.80297 -0.75047,2.78451 -1.51246,3.60121 -0.078,0.0819 -0.1305,0.15337 -0.21465,0.2381 -0.27988,0.26333 -0.596,0.5149 -0.98392,0.77505 -0.26581,0.17826 -0.56813,0.31937 -0.85115,0.47619 -0.32413,0.17056 -0.64968,0.32361 -0.98888,0.4762 -0.0601,0.0248 -0.12025,0.0488 -0.18115,0.0732 -1.1661,0.45927 -2.69352,0.80878 -4.9692,1.05779 -4.90345,0.25905 -14.80277,0.35855 -33.72731,0.36706 -1.1819,2.8e-4 -1.75939,0.004 -3.02122,0.004 -10.16111,-1.5e-4 -17.930328,-0.005 -23.865829,-0.0645 -4.175704,-0.0675 -7.521393,-0.14901 -10.031467,-0.24305 -1.016873,-0.0446 -2.08507,-0.0858 -2.907075,-0.14509 -0.947618,-0.0714 -1.705227,-0.16191 -2.416983,-0.25794 -0.295023,-0.0371 -0.638961,-0.0692 -0.902025,-0.11036 -0.73479,-0.12406 -1.301858,-0.27575 -1.822661,-0.44023 -1.174209,-0.51251 -2.472999,-1.22742 -3.239599,-1.88617 -0.23208,-0.19943 -0.364577,-0.37021 -0.539725,-0.5444 -0.239133,-0.28588 -0.406061,-0.54246 -0.575709,-0.80358 -0.01868,-0.0304 -0.04039,-0.0622 -0.05831,-0.093 -0.534384,-1.2222 -0.643854,-3.27362 -0.780436,-9.11089 l -0.111596,-4.76322 v -4.07615 h 21.888072 c 17.848913,0 22.333203,0.17101 23.724383,0.9065 0.94348,0.4988 4.28753,3.52882 7.43209,6.73366 3.14454,3.20485 6.63782,6.22544 7.76213,6.71258 0.0568,0.0246 0.12957,0.041 0.18859,0.0645 0.0649,0.0347 0.20652,0.14752 0.2556,0.16617 0.81252,0.30876 1.91189,0.4616 3.07582,0.5444 0.0276,0.003 0.0554,0.004 0.0831,0.006 0.29618,0.0241 0.59289,0.0361 0.89458,0.0459 0.0642,0.003 0.12893,0.006 0.19355,0.007 0.10851,0.002 0.21491,0.006 0.32385,0.006 0.15064,6.3e-4 0.29871,0.005 0.44915,0.003 0.10905,-0.003 0.20759,-0.0112 0.31639,-0.0161 0.19732,-0.007 0.39302,-0.0168 0.58811,-0.0298 0.0537,-0.004 0.10776,-0.004 0.1613,-0.009 h 0.001 c 1.09774,-0.0829 2.14028,-0.25748 3.01255,-0.53323 0.36812,-0.11352 0.70196,-0.2428 0.99011,-0.3869 0.55909,-0.27961 1.80123,-1.25892 3.35128,-2.61039 0.14697,-0.12816 0.3416,-0.32424 0.49381,-0.45883 0.44097,-0.38522 0.85577,-0.73501 1.36359,-1.20287 1.1653,-1.03872 2.36659,-2.14334 3.55722,-3.316 l 2.50632,-2.46776 3.9493,-3.84551 7.67033,-0.31621 c 0.16405,-0.007 0.23823,-0.0132 0.39579,-0.0198 0.27952,-0.0114 0.4289,-0.0224 0.68862,-0.0335 0.9547,-0.0211 1.81364,-0.0622 2.55221,-0.11905 0.0354,-0.003 0.0753,-0.005 0.11043,-0.009 0.0394,-0.003 0.0802,-0.007 0.11911,-0.01 3.07792,-0.1915 4.34944,-0.52617 5.6876,-1.34674 0.27485,-0.15933 0.53559,-0.28313 0.84248,-0.48611 0.44834,-0.29655 0.93487,-0.70075 1.42189,-1.13591 0.0806,-0.0705 0.15368,-0.14528 0.23202,-0.21702 0.96873,-0.89703 1.90144,-1.93088 2.42443,-2.77407 0.76032,-1.22581 1.13985,-2.29127 1.33257,-3.74257 0.39983,-1.27324 0.49687,-2.36552 0.335,-3.80086 -0.0439,-0.38992 -0.12977,-0.7836 -0.21714,-1.17685 -0.13084,-2.05548 -0.56368,-3.06003 -1.85367,-4.91693 -0.472,-0.67943 -1.10893,-1.36887 -1.79412,-2.01514 -0.12936,-0.13527 -0.25763,-0.26367 -0.38836,-0.38442 l -0.001,-0.001 c -0.19691,-0.18178 -0.39413,-0.36118 -0.59184,-0.50595 -0.0504,-0.0369 -0.14463,-0.0809 -0.19976,-0.11905 -0.15663,-0.12004 -0.29737,-0.24864 -0.46157,-0.36458 l -2.69738,-1.90477 -0.76926,-0.005 -0.59305,-0.31273 h -0.0694 l -46.68074,-10e-4 c -0.12824,-2e-5 -0.20368,2e-5 -0.33252,0 -37.975614,-0.25031 -45.815127,-0.32851 -48.355752,-1.0206 h -0.0013 c -0.07147,-0.0319 -0.172943,-0.0566 -0.239469,-0.0905 -0.720624,-0.36726 -1.327543,-0.76762 -1.86981,-1.20041 -0.05139,-0.046 -0.102716,-0.0904 -0.153849,-0.13765 -0.722072,-0.73139 -1.444983,-1.65901 -1.909515,-2.47149 -0.06162,-0.13163 -0.128989,-0.25724 -0.184873,-0.39558 -0.03357,-0.0871 -0.07404,-0.16519 -0.105461,-0.25546 -0.06153,-0.16738 -0.107206,-0.35704 -0.1613,-0.53447 -0.182631,-0.63882 -0.321824,-1.36108 -0.425577,-2.16643 v -3.99555 c 0,-1.14808 0.01614,-1.89073 0.02854,-2.72571 0.122707,-1.3246 0.313597,-2.55068 0.56454,-3.71777 2.084549,-7.866758 8.3536,-16.093153 15.820804,-20.5606 1.727188,-1.033337 3.441175,-1.905519 5.168966,-2.697185 0.312448,-0.136972 0.609186,-0.285614 0.928075,-0.417906 0.15728,-0.06688 0.31513,-0.132077 0.472732,-0.197176 1.081945,-0.436624 2.193885,-0.851121 3.348782,-1.235122 1.293836,-0.430199 2.624276,-0.784638 3.959233,-1.127237 0.119537,-0.02869 0.235739,-0.06003 0.356096,-0.08804 4.644718,-1.045363 9.788798,-1.517866 16.044138,-1.517866 4.34529,0 8.00828,0.211899 11.32929,0.653526 0.51705,0.07965 1.09701,0.13226 1.59685,0.220737 0.0758,0.01231 0.14663,0.02956 0.22209,0.04216 1.00629,0.181747 1.97567,0.386567 2.92321,0.607641 1.59307,0.392242 3.17158,0.832434 4.71982,1.343015 0.68249,0.225073 1.35042,0.470331 2.01373,0.722967 0.22128,0.08624 0.43975,0.185677 0.66008,0.275296 7.64432,3.151277 14.04961,8.125265 18.04174,13.965834 0.0709,0.104719 0.13154,0.209087 0.201,0.313741 0.51894,0.779851 1.00883,1.570071 1.43928,2.377241 1.50405,2.820374 2.73229,6.163184 3.37111,8.880244 0.004,0.0192 0.009,0.0489 0.0137,0.0682 0.0796,0.43966 0.15876,0.87929 0.21465,1.32069 0.0543,0.42957 0.13302,0.86719 0.22333,1.29465 0.009,0.14733 0.0316,0.31467 0.0323,0.45015 0.005,1.04263 0.41996,1.899 1.02734,2.55457 0.0377,0.0554 0.0772,0.15109 0.11415,0.19346 0.0563,0.0646 0.12914,0.11111 0.19108,0.16989 0.003,0.002 0.005,0.004 0.007,0.006 0.45119,0.42522 1.0301,0.70713 1.67006,0.82342 0.0634,0.0149 0.1266,0.0319 0.19231,0.0434 0.008,0.001 0.0165,0.001 0.0248,0.002 0.22603,0.0381 0.45915,0.0657 0.71344,0.0657 0.14203,0 0.28741,-0.0381 0.43177,-0.0682 0.0259,-0.003 0.051,-0.008 0.0769,-0.0124 0.0944,-0.023 0.18728,-0.0497 0.28166,-0.0843 0.0659,-0.0155 0.1305,-0.0391 0.19603,-0.0583 0.10202,-0.0294 0.20435,-0.0534 0.30399,-0.0905 0.14998,-0.058 0.2949,-0.1245 0.44046,-0.20338 0.28444,-0.147 0.55765,-0.31601 0.7978,-0.53323 0.18644,-0.16863 0.34015,-0.38832 0.48018,-0.62997 0.005,-0.009 0.01,-0.0191 0.0148,-0.0285 0.11788,-0.20816 0.20291,-0.46382 0.28785,-0.72048 0.029,-0.0904 0.0589,-0.17788 0.0844,-0.27406 0.0736,-0.20815 0.13543,-0.45424 0.16377,-0.71553 0.0739,-0.29044 0.12313,-0.58177 0.1216,-0.86682 -5.8e-4,-0.10717 -0.0199,-0.2492 -0.0248,-0.36458 0.0772,-1.90538 -0.23869,-4.30012 -0.9802,-6.82171 -0.77,-2.618506 -1.79935,-5.079652 -3.09194,-7.442988 -0.0665,-0.130426 -0.11938,-0.261684 -0.18735,-0.391862 -0.47736,-0.91422 -1.10777,-1.890992 -1.79785,-2.885682 -0.86529,-1.306531 -1.81072,-2.58693 -2.84628,-3.830618 -1.79928,-2.160878 -3.87483,-4.155826 -6.18142,-5.988366 -1.76581,-1.505156 -3.54102,-2.835929 -5.19129,-3.802099 -0.16692,-0.09772 -0.35572,-0.18245 -0.52485,-0.279017 -3.80359,-2.334352 -7.99155,-4.140575 -12.76606,-5.52458 -1.6024,-0.502764 -3.21955,-0.948118 -4.83273,-1.324405 -1.51512,-0.353424 -3.02279,-0.580263 -4.69873,-0.756455 -2.66054,-0.383239 -5.86341,-0.598001 -9.28825,-0.639882 -0.73138,-0.02794 -1.53249,-0.09921 -2.21226,-0.09921 z" />
    <path
       id="path918"
       style="fill:none;fill-opacity:1;stroke-width:2;stroke:#000000;stroke-opacity:1;stroke-dasharray:none;stroke-linejoin:round;stroke-linecap:round"
       d="m 102.17753,16 c -0.2879,0 -0.61034,0.07817 -0.9318,0.184769 -0.34541,0.09902 -0.67834,0.232096 -0.97399,0.431551 -0.14857,0.09619 -0.276969,0.219023 -0.40697,0.339785 -0.01379,0.01211 -0.031,0.01615 -0.04465,0.02852 -0.0025,0.002 -0.0101,0.01765 -0.01239,0.01984 -0.04211,0.04119 -0.09425,0.07019 -0.134002,0.11409 -0.207185,0.228813 -0.790682,1.324424 -1.506268,2.734385 -1.234103,2.378537 -2.925684,5.887401 -4.696241,9.830147 l -5.119357,11.397614 -35.130595,0.316224 h -0.05336 -0.02109 c -0.01008,8.9e-5 -0.0135,-8.9e-5 -0.02357,0 C 21.66733,41.397308 18.211938,41.498134 17.162584,42.447281 16.523629,43.025206 16,44.217396 16,45.096098 c 0,0.05594 0.01407,0.107314 0.01613,0.16245 C 16.015424,45.278022 16,45.309273 16,45.327991 c 0,0.144317 0.03734,0.285429 0.06328,0.42783 0.0038,0.02422 0.0032,0.05038 0.0074,0.07441 0.0032,0.01743 0.0014,0.03599 0.005,0.05332 0.0023,0.01234 0.0013,0.02616 0.0037,0.03844 v 0.0013 c 0.0043,0.02172 0.01399,0.04046 0.01861,0.06201 0.0094,0.03384 0.02026,0.06682 0.03101,0.100444 0.147896,0.608428 0.435429,1.139858 0.831306,1.582349 0.06135,0.06868 0.114557,0.144293 0.181146,0.208337 0.0127,0.01223 0.02185,0.02762 0.03474,0.03968 l 0.0012,0.0013 0.0012,0.0012 0.0012,0.0013 c 0.04095,0.03808 0.09244,0.06537 0.135241,0.101682 0.01811,0.0154 0.03864,0.02832 0.05707,0.0434 0.134752,0.11042 0.266786,0.223665 0.418137,0.316225 0.0043,0.0027 0.0093,0.0048 0.01364,0.0074 0.661786,0.401113 1.473374,0.627425 2.384724,0.627425 0.08082,0 0.116298,0.0093 0.191075,0.0099 0.0077,8.9e-5 0.01223,0.0011 0.01985,0.0013 0.151631,0.0025 0.273163,0.01589 0.404485,0.0248 l 0.756854,0.122743 c 0.120998,0.03805 0.244913,0.0755 0.336245,0.137651 0.411429,0.31943 0.544122,0.981534 0.729562,2.402042 0.193743,1.484133 2.363653,28.127128 4.821552,59.206591 0.772475,9.76765 1.41563,17.25625 2.10059,25.44652 1.43832,17.70259 2.6227,31.85668 2.75695,32.33149 0.05513,0.19499 0.146454,0.40661 0.234501,0.61631 0.0013,0.004 0.0075,0.0694 0.0087,0.0732 0.723439,2.24155 3.358443,4.97578 5.685117,5.90032 0.371578,0.14766 1.141316,0.28231 2.05344,0.39559 1.160507,0.19703 2.555304,0.31113 4.140385,0.3125 0.0445,4e-5 0.06791,-0.003 0.111666,-0.003 0.06611,3.2e-4 0.115084,0.006 0.18239,0.006 0.0054,0 0.0083,0 0.01365,0 0.0036,0 0.0063,0 0.0099,0 0.860172,-3.4e-4 1.575175,-0.0163 2.177513,-0.0558 0.323407,-0.0211 0.545298,-0.0693 0.81021,-0.10541 0.242131,-0.0264 0.535336,-0.0407 0.741969,-0.0769 0.917892,-0.15786 1.502196,-0.41802 1.938051,-0.81225 0.642289,-0.58096 0.993476,-1.41422 1.081937,-2.29045 v -0.001 c 0.04105,-0.16552 0.0794,-0.32985 0.0794,-0.46756 0,-0.12931 -0.03807,-0.28485 -0.07445,-0.43899 -0.05823,-0.77644 -0.371216,-1.54139 -0.976471,-2.20983 -0.199281,-0.22008 -0.422761,-0.40262 -0.692335,-0.55307 -0.08437,-0.047 -0.208628,-0.0721 -0.302742,-0.11285 -0.806792,-0.35128 -1.95613,-0.49976 -3.928218,-0.50472 -1.015159,-0.003 -2.021042,-0.0713 -2.868611,-0.17114 -0.584939,-0.0949 -1.055473,-0.24322 -1.46781,-0.42286 -0.223657,-0.10159 -0.432145,-0.21434 -0.607967,-0.34722 -0.74867,-1.71572 -1.913154,-14.10991 -5.382184,-56.94917 C 34.052055,95.393302 32.956936,81.65067 32.126025,71.057262 32.094448,70.652771 32.040139,69.973664 32.009396,69.579084 31.462739,62.595743 31.325782,60.569258 31.107372,57.549024 30.982929,55.837963 30.6553,51.646226 30.645814,51.348605 l -0.03474,-2.309037 5.852617,-0.02356 h 36.68898 c 0.330019,0 0.443014,-0.0013 0.768021,-0.0013 0.09348,0 0.127784,6e-6 0.220856,0 0.07536,0 0.103574,6e-6 0.178669,0 0.05157,0 0.07139,6e-6 0.122829,0 5.94041,-1.02e-4 9.768116,-0.0084 14.13959,-0.01364 0.939422,-0.0011 2.169604,-8.89e-4 3.043556,-0.0025 1.468115,-0.0027 3.824131,-7.62e-4 5.116854,-0.005 0.268361,-8.89e-4 0.800974,-2.98e-4 1.062086,-0.0013 0.01214,-4.4e-5 0.01391,4.5e-5 0.02604,0 6.047718,-0.02178 10.158288,-0.06426 12.989418,-0.145093 0.003,-8.9e-5 0.004,8.9e-5 0.007,0 1.41407,-0.04041 2.50719,-0.09037 3.36242,-0.152528 0.002,-1.2e-4 0.002,1.21e-4 0.004,0 0.29749,-0.02164 0.42815,-0.05347 0.67125,-0.07813 1.80993,-0.153347 2.56135,-0.357412 2.88598,-0.651044 0.78133,-0.706708 1.14133,-1.78016 1.10179,-2.859631 0.0429,-0.916397 -0.27707,-1.805607 -0.95042,-2.491331 -0.0155,-0.01782 -0.025,-0.03949 -0.0409,-0.05705 -0.015,-0.01655 -0.0332,-0.02855 -0.0484,-0.04464 -0.0161,-0.01519 -0.0269,-0.0334 -0.0434,-0.04836 -0.0122,-0.01106 -0.0308,-0.01891 -0.0434,-0.02976 -0.20044,-0.195734 -0.41944,-0.364351 -0.73701,-0.493552 -0.38631,-0.157104 -0.90711,-0.27028 -1.67625,-0.35094 h -10e-4 c -0.464,-0.04862 -1.24172,-0.06764 -1.912,-0.09549 -1.59165,-0.107003 -3.58886,-0.186147 -6.6529,-0.240579 l -8.306816,-0.14633 c -0.673748,-0.08692 -1.200808,-0.182262 -1.400807,-0.30258 l 4.448083,-9.663982 c 0.47517,-1.032398 0.78749,-1.811366 1.2209,-2.788945 0.58108,-1.313916 1.1182,-2.514847 1.57203,-3.595004 0.79438,-1.894173 1.40804,-3.425449 1.68122,-4.289452 0.0833,-0.249004 0.21352,-0.599361 0.21589,-0.675851 3.3e-4,-0.01084 -0.0111,-0.03336 -0.0112,-0.04464 0.003,-0.02606 0.041,-0.1244 0.041,-0.143803 0,-0.03741 -0.0162,-0.06842 -0.0174,-0.10541 5.7e-4,-0.007 0.0174,-0.04876 0.0174,-0.05456 0,-0.155194 -0.0395,-0.320535 -0.0931,-0.487354 -0.01,-0.147912 -0.0472,-0.295989 -0.0856,-0.429069 v -0.0012 c -0.0814,-0.280552 -0.23522,-0.562503 -0.45415,-0.845609 -0.0346,-0.04812 -0.071,-0.09258 -0.10794,-0.138889 -0.0686,-0.08262 -0.10574,-0.154286 -0.18612,-0.243055 -0.34241,-0.37816 -0.76553,-0.665418 -1.22337,-0.873019 -0.007,-0.0035 -0.013,-0.0077 -0.0198,-0.01116 -0.0741,-0.03309 -0.15114,-0.05571 -0.22709,-0.08432 -0.44769,-0.186001 -0.92876,-0.290821 -1.41954,-0.300103 C 102.32062,16.023016 102.24558,16 102.17753,16 Z m 10.3826,49.531449 c -1.77912,0 -3.767,0.113354 -5.82532,0.2939 -1.21671,0.07211 -2.39373,0.166559 -3.55476,0.276535 -3.09822,0.171219 -5.310726,0.529405 -8.035088,1.222728 -0.07363,0.01782 -0.168402,0.03151 -0.240707,0.0496 -0.08639,0.02161 -0.168212,0.04879 -0.254353,0.07068 -0.230531,0.06012 -0.400217,0.08994 -0.643949,0.15501 -0.295233,0.07882 -0.660674,0.200839 -0.980194,0.2939 -3.671667,1.0298 -7.122141,2.314999 -10.305672,3.860383 -0.06003,0.02883 -0.145189,0.06206 -0.203481,0.09053 -0.08369,0.04086 -0.162233,0.09011 -0.245669,0.131448 -1.005787,0.499444 -1.981579,1.027382 -2.934373,1.576147 -0.156542,0.09117 -0.30865,0.187453 -0.464041,0.280261 -6.334351,3.736624 -11.446276,8.562878 -15.107372,14.280806 -0.198171,0.303848 -0.398419,0.605361 -0.586877,0.912702 -0.234901,0.389513 -0.449607,0.790645 -0.671245,1.188005 -0.275539,0.488243 -0.578566,0.96782 -0.828817,1.463294 -0.754457,1.493772 -1.368339,2.946489 -1.8785,4.412221 -0.398082,1.047395 -0.715117,2.060841 -0.973987,3.040692 -0.630913,2.193529 -0.848128,3.988639 -0.833784,6.909749 -0.03806,0.84664 -0.05925,1.71992 -0.05832,2.63394 0.0041,3.96836 0.182118,5.77774 0.858605,7.65256 0.643985,2.63211 1.805338,4.35275 4.00638,6.55261 1.234758,1.2341 3.288305,2.76231 4.563477,3.39658 0.374495,0.18628 0.880577,0.33494 1.537288,0.46876 0.109126,0.0391 0.224325,0.0831 0.343691,0.11905 l 1.072008,0.56548 4.292993,0.0285 c 2.287904,0.10004 6.526468,0.15018 11.347899,0.18849 1.423162,0.019 3.132061,0.0404 4.77937,0.0521 1.250886,0.005 3.497561,0.005 4.905928,0.009 5.93633,0.0236 12.29556,0.0369 21.18084,0.0359 0.21073,0.001 0.28991,0.003 0.50251,0.004 25.7119,0.17132 47.02334,0.5319 48.35822,0.81101 0.80207,0.43122 1.69967,1.415 2.11796,2.3326 0.0453,0.0958 0.08,0.19199 0.12161,0.28895 0.22623,0.57912 0.35213,1.07386 0.36601,1.55134 -0.0156,0.20972 -0.021,0.4092 -0.0583,0.64361 -0.003,0.0145 -0.003,0.0288 -0.005,0.0434 -0.025,0.1534 -0.0579,0.26935 -0.0844,0.4117 -0.0501,0.18127 -0.11988,0.37666 -0.19604,0.57664 -0.33888,0.52513 -0.80992,1.1158 -1.33752,1.64311 -0.54783,0.54753 -0.95671,0.91952 -1.42687,1.19172 -1.23377,0.31246 -3.22042,0.46802 -5.84517,0.60145 -0.48888,0.0135 -0.91036,0.0632 -1.40328,0.0632 -0.0603,0 -0.10768,0.004 -0.1675,0.004 -4.74637,0.008 -6.65342,0.24174 -8.36019,1.01191 -0.21663,0.065 -0.5098,0.12814 -0.63401,0.19469 -0.27229,0.14587 -0.88704,0.64077 -1.62911,1.26737 -1.65551,1.31105 -3.93083,3.35991 -5.99407,5.4576 -0.10587,0.10764 -0.1707,0.16313 -0.2742,0.26786 -0.1412,0.13737 -0.28408,0.26365 -0.42433,0.4018 -1.03813,1.02243 -1.92683,1.89768 -2.7458,2.68354 -0.24358,0.22957 -0.42495,0.37106 -0.65263,0.58036 -2.45366,2.18891 -4.05575,3.13917 -5.5387,3.31598 -0.24986,-0.004 -0.49964,-0.0341 -0.75314,-0.0955 -0.41625,-0.11166 -0.85165,-0.3197 -1.3065,-0.58656 -1.17463,-0.79424 -2.94352,-2.32129 -5.23473,-4.50151 -0.47712,-0.46796 -0.88917,-0.86432 -1.42934,-1.39633 -0.29976,-0.29525 -0.60382,-0.5672 -0.907,-0.85815 -0.34872,-0.33296 -0.68086,-0.65249 -1.02981,-0.97594 -0.55425,-0.51709 -1.07863,-0.99835 -1.61546,-1.47694 -0.51136,-0.4712 -0.92987,-0.82409 -1.37351,-1.21157 -0.47238,-0.41521 -0.88578,-0.77429 -1.3003,-1.12227 -0.0867,-0.07 -0.19156,-0.16435 -0.27545,-0.23065 -1.00303,-0.83109 -1.85879,-1.49927 -2.26437,-1.70388 -0.31303,-0.15792 -0.73926,-0.28425 -1.25936,-0.39807 l -0.51976,-0.31018 -2.74578,-0.0198 c -3.59236,-0.22777 -9.919272,-0.29765 -23.376971,-0.29765 -0.0742,0 -0.103637,0 -0.177423,0 -0.06174,0 -0.08936,0 -0.15137,0 -0.09909,0 -0.138647,0.001 -0.236985,0.001 -0.08576,-1e-5 -0.138355,-0.001 -0.224579,-0.001 -9.24905,0 -14.37962,0.0272 -18.103779,0.10293 -3.289123,0.0457 -5.575998,0.13836 -6.517662,0.35838 -0.06273,0.0104 -0.166523,0.0177 -0.224573,0.0285 -0.382029,0.0712 -0.665553,0.15262 -0.8859,0.24554 -0.221111,0.093 -0.37757,0.19749 -0.507462,0.31498 -0.130242,0.1178 -0.246922,0.24143 -0.349891,0.38566 -5.33e-4,6.4e-4 -6.98e-4,0.002 -0.0013,0.003 -0.219769,0.30864 -0.377327,0.7364 -0.49506,1.40255 -0.246953,0.93323 -0.316229,2.6464 -0.290336,5.83708 5.1e-5,0.006 -4.4e-5,0.0154 0,0.0211 -0.01288,1.23153 -0.02602,2.43406 -0.02602,4.20135 0,0.0208 -7e-6,0.0338 0,0.0545 -7e-6,0.0403 0,0.0561 0,0.0967 0,0.0113 0.0012,0.0209 0.0012,0.0323 -6e-6,0.0557 -0.0012,0.0777 -0.0012,0.13393 0,0.0945 0.0024,0.15717 0.0025,0.2505 -8.3e-5,0.19154 -0.0025,0.27575 -0.0025,0.4737 0,8.41629 0.03794,10.91949 0.67869,12.90681 0.0011,0.004 0.0014,0.0172 0.0025,0.0211 0.0022,0.008 0.0065,0.017 0.0087,0.0248 0.01555,0.0474 0.03956,0.10063 0.05583,0.14757 0.167487,0.54538 0.428581,1.11986 0.748169,1.70512 0.04639,0.0943 0.06602,0.16386 0.11539,0.26289 1.038128,2.08215 2.454209,3.72739 4.352549,5.04467 0.629864,0.52111 1.258884,0.97492 1.84872,1.27977 0.709704,0.3668 2.180715,0.84018 3.71853,1.27356 0.359934,0.10913 0.704032,0.22569 1.084415,0.32614 0.230481,0.0609 0.485214,0.10811 0.723356,0.16246 0.07841,0.018 0.160901,0.0474 0.238224,0.0645 0.04242,0.009 0.116591,0.0156 0.161294,0.0248 3.101638,0.63562 9.115758,0.78225 29.065814,0.749 4.58904,0.0276 8.64967,0.0708 13.46834,0.0695 13.91884,0.0234 23.16479,-0.001 29.32512,-0.19593 l 10.01162,-0.031 2.73833,-1.10616 c 0.0366,-0.014 0.0841,-0.0241 0.12035,-0.0385 0.14318,-0.0566 0.26857,-0.1174 0.40821,-0.17485 l 0.32756,-0.13268 c 0.0608,-0.0246 0.12039,-0.06 0.18114,-0.0856 4.1249,-1.78586 6.66128,-3.99648 8.27332,-7.22969 0.019,-0.0382 0.0322,-0.0783 0.0509,-0.11657 0.0199,-0.0361 0.0413,-0.0718 0.0608,-0.10788 0.10076,-0.17932 0.21304,-0.35851 0.29902,-0.53572 0.006,-0.0134 0.009,-0.0263 0.0148,-0.0397 0.19987,-0.4171 0.37284,-0.82976 0.48142,-1.22644 0.0853,-0.3118 0.13101,-0.59163 0.19976,-0.89038 0.0195,-0.0721 0.03,-0.14254 0.0484,-0.21454 0.0667,-0.30462 0.15538,-0.62755 0.20473,-0.91766 0.006,-0.0367 0.0125,-0.0726 0.0186,-0.10912 0.16235,-0.89111 0.22668,-1.74374 0.20472,-2.53721 0.002,-0.0517 0.026,-0.16211 0.026,-0.20833 0,-0.29991 -0.0507,-0.60191 -0.12654,-0.90155 -0.0248,-0.22236 -0.0648,-0.44752 -0.12408,-0.63368 -0.17323,-0.65935 -0.43193,-1.2264 -0.80029,-1.6332 -0.15799,-0.17448 -0.34202,-0.32602 -0.54097,-0.46007 -0.30399,-0.23507 -0.64389,-0.42086 -1.03353,-0.53695 -0.35982,-0.10838 -0.75595,-0.16366 -1.18615,-0.16366 -0.23498,0 -0.48608,0.0316 -0.73949,0.0881 h -0.001 c -0.75597,0.11491 -1.44327,0.43174 -1.88098,0.9561 -0.007,0.009 -0.0172,0.0313 -0.0248,0.0409 -0.008,0.009 -0.0219,0.017 -0.0298,0.026 -0.47512,0.54547 -0.982,1.98491 -1.22462,3.36311 -0.0716,0.28853 -0.1717,0.54993 -0.22831,0.83705 -0.35547,1.80297 -0.75047,2.78451 -1.51246,3.60121 -0.078,0.0819 -0.1305,0.15337 -0.21465,0.2381 -0.27988,0.26333 -0.596,0.5149 -0.98392,0.77505 -0.26581,0.17826 -0.56813,0.31937 -0.85115,0.47619 -0.32413,0.17056 -0.64968,0.32361 -0.98888,0.4762 -0.0601,0.0248 -0.12025,0.0488 -0.18115,0.0732 -1.1661,0.45927 -2.69352,0.80878 -4.9692,1.05779 -4.90345,0.25905 -14.80277,0.35855 -33.72731,0.36706 -1.1819,2.8e-4 -1.75939,0.004 -3.02122,0.004 -10.16111,-1.5e-4 -17.930328,-0.005 -23.865829,-0.0645 -4.175704,-0.0675 -7.521393,-0.14901 -10.031467,-0.24305 -1.016873,-0.0446 -2.08507,-0.0858 -2.907075,-0.14509 -0.947618,-0.0714 -1.705227,-0.16191 -2.416983,-0.25794 -0.295023,-0.0371 -0.638961,-0.0692 -0.902025,-0.11036 -0.73479,-0.12406 -1.301858,-0.27575 -1.822661,-0.44023 -1.174209,-0.51251 -2.472999,-1.22742 -3.239599,-1.88617 -0.23208,-0.19943 -0.364577,-0.37021 -0.539725,-0.5444 -0.239133,-0.28588 -0.406061,-0.54246 -0.575709,-0.80358 -0.01868,-0.0304 -0.04039,-0.0622 -0.05831,-0.093 -0.534384,-1.2222 -0.643854,-3.27362 -0.780436,-9.11089 l -0.111596,-4.76322 v -4.07615 h 21.888072 c 17.848913,0 22.333203,0.17101 23.724383,0.9065 0.94348,0.4988 4.28753,3.52882 7.43209,6.73366 3.14454,3.20485 6.63782,6.22544 7.76213,6.71258 0.0568,0.0246 0.12957,0.041 0.18859,0.0645 0.0649,0.0347 0.20652,0.14752 0.2556,0.16617 0.81252,0.30876 1.91189,0.4616 3.07582,0.5444 0.0276,0.003 0.0554,0.004 0.0831,0.006 0.29618,0.0241 0.59289,0.0361 0.89458,0.0459 0.0642,0.003 0.12893,0.006 0.19355,0.007 0.10851,0.002 0.21491,0.006 0.32385,0.006 0.15064,6.3e-4 0.29871,0.005 0.44915,0.003 0.10905,-0.003 0.20759,-0.0112 0.31639,-0.0161 0.19732,-0.007 0.39302,-0.0168 0.58811,-0.0298 0.0537,-0.004 0.10776,-0.004 0.1613,-0.009 h 0.001 c 1.09774,-0.0829 2.14028,-0.25748 3.01255,-0.53323 0.36812,-0.11352 0.70196,-0.2428 0.99011,-0.3869 0.55909,-0.27961 1.80123,-1.25892 3.35128,-2.61039 0.14697,-0.12816 0.3416,-0.32424 0.49381,-0.45883 0.44097,-0.38522 0.85577,-0.73501 1.36359,-1.20287 1.1653,-1.03872 2.36659,-2.14334 3.55722,-3.316 l 2.50632,-2.46776 3.9493,-3.84551 7.67033,-0.31621 c 0.16405,-0.007 0.23823,-0.0132 0.39579,-0.0198 0.27952,-0.0114 0.4289,-0.0224 0.68862,-0.0335 0.9547,-0.0211 1.81364,-0.0622 2.55221,-0.11905 0.0354,-0.003 0.0753,-0.005 0.11043,-0.009 0.0394,-0.003 0.0802,-0.007 0.11911,-0.01 3.07792,-0.1915 4.34944,-0.52617 5.6876,-1.34674 0.27485,-0.15933 0.53559,-0.28313 0.84248,-0.48611 0.44834,-0.29655 0.93487,-0.70075 1.42189,-1.13591 0.0806,-0.0705 0.15368,-0.14528 0.23202,-0.21702 0.96873,-0.89703 1.90144,-1.93088 2.42443,-2.77407 0.76032,-1.22581 1.13985,-2.29127 1.33257,-3.74257 0.39983,-1.27324 0.49687,-2.36552 0.335,-3.80086 -0.0439,-0.38992 -0.12977,-0.7836 -0.21714,-1.17685 -0.13084,-2.05548 -0.56368,-3.06003 -1.85367,-4.91693 -0.472,-0.67943 -1.10893,-1.36887 -1.79412,-2.01514 -0.12936,-0.13527 -0.25763,-0.26367 -0.38836,-0.38442 l -0.001,-0.001 c -0.19691,-0.18178 -0.39413,-0.36118 -0.59184,-0.50595 -0.0504,-0.0369 -0.14463,-0.0809 -0.19976,-0.11905 -0.15663,-0.12004 -0.29737,-0.24864 -0.46157,-0.36458 l -2.69738,-1.90477 -0.76926,-0.005 -0.59305,-0.31273 h -0.0694 l -46.68074,-10e-4 c -0.12824,-2e-5 -0.20368,2e-5 -0.33252,0 -37.975614,-0.25031 -45.815127,-0.32851 -48.355752,-1.0206 h -0.0013 c -0.07147,-0.0319 -0.172943,-0.0566 -0.239469,-0.0905 -0.720624,-0.36726 -1.327543,-0.76762 -1.86981,-1.20041 -0.05139,-0.046 -0.102716,-0.0904 -0.153849,-0.13765 -0.722072,-0.73139 -1.444983,-1.65901 -1.909515,-2.47149 -0.06162,-0.13163 -0.128989,-0.25724 -0.184873,-0.39558 -0.03357,-0.0871 -0.07404,-0.16519 -0.105461,-0.25546 -0.06153,-0.16738 -0.107206,-0.35704 -0.1613,-0.53447 -0.182631,-0.63882 -0.321824,-1.36108 -0.425577,-2.16643 v -3.99555 c 0,-1.14808 0.01614,-1.89073 0.02854,-2.72571 0.122707,-1.3246 0.313597,-2.55068 0.56454,-3.71777 2.084549,-7.866758 8.3536,-16.093153 15.820804,-20.5606 1.727188,-1.033337 3.441175,-1.905519 5.168966,-2.697185 0.312448,-0.136972 0.609186,-0.285614 0.928075,-0.417906 0.15728,-0.06688 0.31513,-0.132077 0.472732,-0.197176 1.081945,-0.436624 2.193885,-0.851121 3.348782,-1.235122 1.293836,-0.430199 2.624276,-0.784638 3.959233,-1.127237 0.119537,-0.02869 0.235739,-0.06003 0.356096,-0.08804 4.644718,-1.045363 9.788798,-1.517866 16.044138,-1.517866 4.34529,0 8.00828,0.211899 11.32929,0.653526 0.51705,0.07965 1.09701,0.13226 1.59685,0.220737 0.0758,0.01231 0.14663,0.02956 0.22209,0.04216 1.00629,0.181747 1.97567,0.386567 2.92321,0.607641 1.59307,0.392242 3.17158,0.832434 4.71982,1.343015 0.68249,0.225073 1.35042,0.470331 2.01373,0.722967 0.22128,0.08624 0.43975,0.185677 0.66008,0.275296 7.64432,3.151277 14.04961,8.125265 18.04174,13.965834 0.0709,0.104719 0.13154,0.209087 0.201,0.313741 0.51894,0.779851 1.00883,1.570071 1.43928,2.377241 1.50405,2.820374 2.73229,6.163184 3.37111,8.880244 0.004,0.0192 0.009,0.0489 0.0137,0.0682 0.0796,0.43966 0.15876,0.87929 0.21465,1.32069 0.0543,0.42957 0.13302,0.86719 0.22333,1.29465 0.009,0.14733 0.0316,0.31467 0.0323,0.45015 0.005,1.04263 0.41996,1.899 1.02734,2.55457 0.0377,0.0554 0.0772,0.15109 0.11415,0.19346 0.0563,0.0646 0.12914,0.11111 0.19108,0.16989 0.003,0.002 0.005,0.004 0.007,0.006 0.45119,0.42522 1.0301,0.70713 1.67006,0.82342 0.0634,0.0149 0.1266,0.0319 0.19231,0.0434 0.008,0.001 0.0165,0.001 0.0248,0.002 0.22603,0.0381 0.45915,0.0657 0.71344,0.0657 0.14203,0 0.28741,-0.0381 0.43177,-0.0682 0.0259,-0.003 0.051,-0.008 0.0769,-0.0124 0.0944,-0.023 0.18728,-0.0497 0.28166,-0.0843 0.0659,-0.0155 0.1305,-0.0391 0.19603,-0.0583 0.10202,-0.0294 0.20435,-0.0534 0.30399,-0.0905 0.14998,-0.058 0.2949,-0.1245 0.44046,-0.20338 0.28444,-0.147 0.55765,-0.31601 0.7978,-0.53323 0.18644,-0.16863 0.34015,-0.38832 0.48018,-0.62997 0.005,-0.009 0.01,-0.0191 0.0148,-0.0285 0.11788,-0.20816 0.20291,-0.46382 0.28785,-0.72048 0.029,-0.0904 0.0589,-0.17788 0.0844,-0.27406 0.0736,-0.20815 0.13543,-0.45424 0.16377,-0.71553 0.0739,-0.29044 0.12313,-0.58177 0.1216,-0.86682 -5.8e-4,-0.10717 -0.0199,-0.2492 -0.0248,-0.36458 0.0772,-1.90538 -0.23869,-4.30012 -0.9802,-6.82171 -0.77,-2.618506 -1.79935,-5.079652 -3.09194,-7.442988 -0.0665,-0.130426 -0.11938,-0.261684 -0.18735,-0.391862 -0.47736,-0.91422 -1.10777,-1.890992 -1.79785,-2.885682 -0.86529,-1.306531 -1.81072,-2.58693 -2.84628,-3.830618 -1.79928,-2.160878 -3.87483,-4.155826 -6.18142,-5.988366 -1.76581,-1.505156 -3.54102,-2.835929 -5.19129,-3.802099 -0.16692,-0.09772 -0.35572,-0.18245 -0.52485,-0.279017 -3.80359,-2.334352 -7.99155,-4.140575 -12.76606,-5.52458 -1.6024,-0.502764 -3.21955,-0.948118 -4.83273,-1.324405 -1.51512,-0.353424 -3.02279,-0.580263 -4.69873,-0.756455 -2.66054,-0.383239 -5.86341,-0.598001 -9.28825,-0.639882 -0.73138,-0.02794 -1.53249,-0.09921 -2.21226,-0.09921 z" />
  </g>
</svg>
