<?xml version="1.0" encoding="UTF-8" standalone="no"?>
<svg
   width="192"
   height="192"
   version="1.1"
   viewBox="0 0 192 192"
   id="svg7"
   sodipodi:docname="fmradio.svg"
   inkscape:version="1.2.1 (9c6d41e410, 2022-07-14)"
   xmlns:inkscape="http://www.inkscape.org/namespaces/inkscape"
   xmlns:sodipodi="http://sodipodi.sourceforge.net/DTD/sodipodi-0.dtd"
   xmlns="http://www.w3.org/2000/svg"
   xmlns:svg="http://www.w3.org/2000/svg"
   xmlns:rdf="http://www.w3.org/1999/02/22-rdf-syntax-ns#"
   xmlns:cc="http://creativecommons.org/ns#"
   xmlns:dc="http://purl.org/dc/elements/1.1/">
  <metadata
     id="metadata11">
    <rdf:RDF>
      <cc:Work
         rdf:about="">
        <dc:format>image/svg+xml</dc:format>
        <dc:type
           rdf:resource="http://purl.org/dc/dcmitype/StillImage" />
      </cc:Work>
    </rdf:RDF>
  </metadata>
  <sodipodi:namedview
     pagecolor="#ffffff"
     bordercolor="#666666"
     borderopacity="1"
     objecttolerance="10"
     gridtolerance="10"
     guidetolerance="10"
     inkscape:pageopacity="0"
     inkscape:pageshadow="2"
     inkscape:window-width="1366"
     inkscape:window-height="688"
     id="namedview9"
     showgrid="false"
     inkscape:zoom="2.5104167"
     inkscape:cx="95.80083"
     inkscape:cy="96"
     inkscape:current-layer="svg7"
     inkscape:document-rotation="0"
     inkscape:showpageshadow="2"
     inkscape:pagecheckerboard="0"
     inkscape:deskcolor="#d1d1d1"
     inkscape:window-x="0"
     inkscape:window-y="0"
     inkscape:window-maximized="1" />
  <defs
     id="defs3">
    <style
       id="current-color-scheme"
       type="text/css">.ColorScheme-Text { color:#dedede; }</style>
  </defs>
  <path
     id="rect1057"
     style="fill:#000000;fill-rule:evenodd;stroke:none;stroke-width:15.2636;stroke-linecap:round;stroke-linejoin:round"
     d="M 35.355469,61.039047 C 24.632852,61.039047 16,69.668528 16,80.386958 V 141.65209 C 16,152.37052 24.632852,161 35.355469,161 H 156.64453 C 167.36715,161 176,152.37052 176,141.65209 V 80.386958 c 0,-10.71843 -8.63285,-19.347911 -19.35547,-19.347911 z M 28,73.034361 H 164 V 149.00469 H 28 Z" />
  <rect
     style="fill:#000000;fill-rule:evenodd;stroke:none;stroke-width:11.7529;stroke-linecap:round;stroke-linejoin:round"
     id="rect1161"
     width="60"
     height="11.995315"
     x="100"
     y="81.031235"
     ry="3.6785421" />
  <rect
     style="fill:#000000;fill-rule:evenodd;stroke:none;stroke-width:11.7529;stroke-linecap:round;stroke-linejoin:round"
     id="rect1163"
     width="60"
     height="11.995315"
     x="100"
     y="97.024994"
     ry="3.6785421" />
  <rect
     style="fill:#000000;fill-rule:evenodd;stroke:none;stroke-width:11.7529;stroke-linecap:round;stroke-linejoin:round"
     id="rect1165"
     width="60"
     height="11.995315"
     x="100"
     y="113.01875"
     ry="3.6785421" />
  <rect
     style="fill:#000000;fill-rule:evenodd;stroke:none;stroke-width:11.7529;stroke-linecap:round;stroke-linejoin:round"
     id="rect1167"
     width="60"
     height="11.995315"
     x="100"
     y="129.0125"
     ry="3.6785421" />
  <path
     id="rect1169"
     style="fill:#000000;fill-rule:evenodd;stroke:none;stroke-width:11.7529;stroke-linecap:round;stroke-linejoin:round"
     d="m 75.335938,21 a 10,9.9960953 0 0 0 -10.000001,9.996095 10,9.9960953 0 0 0 0.398438,2.787973 L 46.589844,61.039047 H 61.253906 L 75.333985,40.99219 a 10,9.9960953 0 0 0 0.002,0 10,9.9960953 0 0 0 10,-9.996095 A 10,9.9960953 0 0 0 75.335986,21 Z" />
  <ellipse
     style="fill:none;fill-rule:evenodd;stroke:#000000;stroke-width:11.9977;stroke-linecap:round;stroke-linejoin:round;stroke-dasharray:none;stroke-opacity:1"
     id="path1233"
     cx="58.026409"
     cy="119.01641"
     rx="20"
     ry="19.992191" />
</svg>
