<?xml version="1.0" encoding="UTF-8" standalone="no"?>
<svg
   id="Layer_4"
   data-name="Layer 4"
   viewBox="0 0 24 24"
   version="1.1"
   sodipodi:docname="infinity_for_reddit.svg"
   inkscape:version="1.2.1 (9c6d41e410, 2022-07-14)"
   xmlns:inkscape="http://www.inkscape.org/namespaces/inkscape"
   xmlns:sodipodi="http://sodipodi.sourceforge.net/DTD/sodipodi-0.dtd"
   xmlns="http://www.w3.org/2000/svg"
   xmlns:svg="http://www.w3.org/2000/svg">
  <defs
     id="defs21" />
  <sodipodi:namedview
     id="namedview19"
     pagecolor="#ffffff"
     bordercolor="#000000"
     borderopacity="0.25"
     inkscape:showpageshadow="2"
     inkscape:pageopacity="0.0"
     inkscape:pagecheckerboard="0"
     inkscape:deskcolor="#d1d1d1"
     showgrid="false"
     inkscape:zoom="26.506287"
     inkscape:cx="14.05327"
     inkscape:cy="11.827383"
     inkscape:window-width="1350"
     inkscape:window-height="721"
     inkscape:window-x="0"
     inkscape:window-y="0"
     inkscape:window-maximized="1"
     inkscape:current-layer="Layer_4" />
  <g
     id="g941"
     transform="translate(23.224936,1.7999997)">
    <path
       d="m -11.224936,3.04 h -0.27 a 6.74,6.74 0 0 0 -4.37,2.27 l -0.09,0.09 a 6.81,6.81 0 0 0 -1.38,2.36 11.19,11.19 0 0 0 -0.76,3.67 2.87,2.87 0 0 0 0.1,1.39 c 0.91,1.49 5.94,-0.13 6.77,-0.41 z"
       id="path2" />
    <path
       d="m -11.224936,12 v 3.75 c -0.5,0 -1.24,0 -2.14,0 -3.06,-0.17 -7.81,-0.76 -7.86,-1.7 0,-0.26 0.49,-0.56 1.48,-1.15 a 9.7,9.7 0 0 1 1.93,-0.9"
       id="path4" />
    <path
       d="m -11.224936,3.04 h 0.27 a 6.74,6.74 0 0 1 4.3699995,2.27 l 0.09,0.09 a 6.81,6.81 0 0 1 1.38,2.36 11.17,11.17 0 0 1 0.76,3.67 2.85,2.85 0 0 1 0,1.2 c -0.78,1.4 -5.46,0.17 -6.8299995,-0.22 z"
       id="path6" />
    <path
       d="m -11.004936,3.04 h -0.44 v 9.77 h 0.44 z"
       id="path8" />
    <path
       d="m -11.224936,12 v 3.75 c 0.5,0 1.2399995,0 2.1399995,0 3.06,-0.14 7.81,-0.73 7.86,-1.67 0,-0.26 -0.49,-0.56 -1.48,-1.15 a 9.7,9.7 0 0 0 -1.93,-0.9"
       id="path10" />
    <ellipse
       cx="-11.224936"
       cy="15.570001"
       rx="2.26"
       ry="1.79"
       id="ellipse12" />
    <circle
       cx="-16.964935"
       cy="15.009999"
       r="1.87"
       id="circle14" />
    <circle
       cx="-5.4849367"
       cy="15.009999"
       r="1.87"
       id="circle16" />
  </g>
</svg>
