<?xml version="1.0" encoding="UTF-8" standalone="no"?>
<!-- Created with Inkscape (http://www.inkscape.org/) -->

<svg
   version="1.1"
   id="svg2"
   width="192"
   height="192"
   viewBox="0 0 192 192"
   sodipodi:docname="jankfood_seal.svg"
   inkscape:version="1.2.1 (9c6d41e410, 2022-07-14)"
   xmlns:inkscape="http://www.inkscape.org/namespaces/inkscape"
   xmlns:sodipodi="http://sodipodi.sourceforge.net/DTD/sodipodi-0.dtd"
   xmlns="http://www.w3.org/2000/svg"
   xmlns:svg="http://www.w3.org/2000/svg">
  <defs
     id="defs6" />
  <sodipodi:namedview
     id="namedview4"
     pagecolor="#ffffff"
     bordercolor="#666666"
     borderopacity="1.0"
     inkscape:showpageshadow="2"
     inkscape:pageopacity="0.0"
     inkscape:pagecheckerboard="0"
     inkscape:deskcolor="#d1d1d1"
     showgrid="false"
     inkscape:zoom="2.5104167"
     inkscape:cx="96.199169"
     inkscape:cy="95.999999"
     inkscape:window-width="1366"
     inkscape:window-height="688"
     inkscape:window-x="0"
     inkscape:window-y="0"
     inkscape:window-maximized="1"
     inkscape:current-layer="g8" />
  <g
     inkscape:groupmode="layer"
     inkscape:label="Image"
     id="g8">
    <path
       style="fill:none;fill-opacity:1;stroke:#000000;stroke-width:9.34829;stroke-dasharray:none;stroke-opacity:1"
       d="m 95.742686,30.675528 c -2.58008,0.01384 -5.094766,0.128048 -7.399527,0.351695 -29.645756,2.877179 -54.187716,24.960268 -58.698129,52.817306 -1.229609,7.594136 -1.747426,9.129282 -4.06003,12.032765 -5.2088,6.539656 -6.082097,11.025216 -3.552525,18.200946 0.0096,0.0275 0.01555,0.0537 0.02507,0.0812 h 0.04386 c 1.155667,1.15043 1.736918,2.51481 2.691021,5.71728 4.908814,16.47682 31.618465,29.53891 63.882817,31.2407 2.508329,0.13228 5.246291,0.19921 8.054271,0.20741 8.423976,0.0242 17.491236,-0.48662 22.991176,-1.3707 21.66102,-3.48193 39.20596,-13.11659 47.31374,-25.98332 1.15566,-1.83396 3.04225,-4.94587 4.00678,-7.95371 0.13554,-0.42254 0.14384,-1.46248 0.28194,-1.85766 0.0903,-3.04636 -2.30829,-5.29189 -3.88459,-8.79538 -1.30415,-2.89852 -2.47012,-7.34865 -3.55253,-13.559778 -0.88624,-5.08528 -2.48125,-11.781744 -3.54312,-14.88239 -7.44977,-21.753579 -23.57001,-38.04198 -43.47304,-43.928806 -5.05352,-1.494711 -13.38686,-2.358315 -21.127184,-2.317577 z"
       id="path874" />
    <path
       id="path857"
       style="fill:#000000;fill-opacity:1;stroke-width:0.6736;stroke:none;stroke-opacity:1"
       d="M 115.07031 57.048828 L 110.9707 60.994141 L 106.86523 64.941406 L 109.75 67.798828 L 112.63477 70.654297 L 116.74023 66.658203 L 120.85352 62.664062 L 117.96094 59.855469 L 115.07031 57.048828 z M 86.923828 57.349609 C 86.059679 57.349609 81.583984 61.427572 81.583984 62.214844 C 81.583984 62.623012 83.342697 64.681214 85.490234 66.791016 L 89.396484 70.628906 L 92.328125 67.830078 L 95.257812 65.035156 L 91.345703 61.191406 C 89.194525 59.078036 87.204318 57.349609 86.923828 57.349609 z M 123.26562 72.623047 C 119.38606 72.623047 117.25541 77.724839 119.43945 81.789062 C 120.66601 84.071644 123.78566 86.95757 125.99023 87.849609 C 128.44188 88.841594 132.28321 88.178348 133.67773 86.519531 C 137.69475 81.741349 130.86374 72.623047 123.26562 72.623047 z M 77.845703 72.632812 C 69.656171 72.676092 63.359766 85.220892 70.185547 87.894531 C 72.334225 88.736159 73.129449 88.687834 75.972656 87.533203 C 84.872777 83.918871 86.296415 72.588189 77.845703 72.632812 z M 101.43945 85.246094 C 92.750718 85.249394 90.286729 86.276339 89.150391 90.378906 C 88.148102 93.997549 89.16304 96.849742 93.191406 101.70898 C 95.958233 105.04704 96.615234 106.32377 96.615234 108.36719 C 96.615234 111.17423 95.318219 112.66294 89.609375 116.39648 C 86.102229 118.69011 86.101992 118.67683 88.943359 122.93555 C 90.196448 124.81371 90.931154 124.8048 93.894531 122.89062 C 95.20292 122.04549 97.375731 120.70635 98.724609 119.91406 L 101.17969 118.47266 L 105.74414 121.44922 C 108.25555 123.08664 110.7396 124.42969 111.26367 124.42969 C 112.24579 124.42969 115.06055 120.54571 115.06055 119.19141 C 115.06055 118.77226 112.90514 116.90273 110.26953 115.0332 C 107.61832 113.15267 105.30673 110.97365 105.0957 110.15625 C 104.59997 108.23605 106.16131 104.6632 108.75 101.79688 C 114.18219 95.782139 114.84412 91.126869 110.8125 87.294922 C 108.67385 85.262179 108.58282 85.243607 101.43945 85.246094 z " />
  </g>
</svg>
