<?xml version="1.0" encoding="UTF-8" standalone="no"?>
<svg
   width="192"
   height="192"
   version="1.1"
   viewBox="0 0 192 192"
   id="svg7"
   sodipodi:docname="kinemasterfree.svg"
   inkscape:version="1.2.1 (9c6d41e410, 2022-07-14)"
   xmlns:inkscape="http://www.inkscape.org/namespaces/inkscape"
   xmlns:sodipodi="http://sodipodi.sourceforge.net/DTD/sodipodi-0.dtd"
   xmlns="http://www.w3.org/2000/svg"
   xmlns:svg="http://www.w3.org/2000/svg"
   xmlns:rdf="http://www.w3.org/1999/02/22-rdf-syntax-ns#"
   xmlns:cc="http://creativecommons.org/ns#"
   xmlns:dc="http://purl.org/dc/elements/1.1/">
  <metadata
     id="metadata11">
    <rdf:RDF>
      <cc:Work
         rdf:about="">
        <dc:format>image/svg+xml</dc:format>
        <dc:type
           rdf:resource="http://purl.org/dc/dcmitype/StillImage" />
      </cc:Work>
    </rdf:RDF>
  </metadata>
  <sodipodi:namedview
     pagecolor="#ffffff"
     bordercolor="#666666"
     borderopacity="1"
     objecttolerance="10"
     gridtolerance="10"
     guidetolerance="10"
     inkscape:pageopacity="0"
     inkscape:pageshadow="2"
     inkscape:window-width="1366"
     inkscape:window-height="688"
     id="namedview9"
     showgrid="false"
     inkscape:zoom="2.5104167"
     inkscape:cx="95.80083"
     inkscape:cy="96"
     inkscape:current-layer="svg7"
     inkscape:document-rotation="0"
     inkscape:showpageshadow="2"
     inkscape:pagecheckerboard="0"
     inkscape:deskcolor="#d1d1d1"
     inkscape:window-x="0"
     inkscape:window-y="0"
     inkscape:window-maximized="1" />
  <defs
     id="defs3">
    <style
       id="current-color-scheme"
       type="text/css">.ColorScheme-Text { color:#dedede; }</style>
  </defs>
  <path
     id="path5"
     style="fill:#000000;fill-opacity:1;stroke-width:10"
     d="M 36,31 C 24.92,31 16,39.92 16,51 v 90 c 0,11.08 8.92,20 20,20 h 120 c 11.08,0 20,-8.92 20,-20 V 51 c 0,-11.08 -8.92,-20 -20,-20 z m 0,10 H 46 V 51 H 26 c 0,-5.54 4.46,-10 10,-10 z m 20,0 h 80 V 91 H 56 Z m 90,0 h 10 c 5.54,0 10,4.46 10,10 H 146 Z M 26,61 H 46 V 71 H 26 Z m 120,0 h 20 V 71 H 146 Z M 26,81 H 46 V 91 H 26 Z m 120,0 h 20 V 91 H 146 Z M 26,101 h 20 v 10 H 26 Z m 30,0 h 80 v 50 H 56 Z m 90,0 h 20 v 10 H 146 Z M 26,121 h 20 v 10 H 26 Z m 120,0 h 20 v 10 H 146 Z M 26,141 h 20 v 10 H 36 c -5.54,0 -10,-4.46 -10,-10 z m 120,0 h 20 c 0,5.54 -4.46,10 -10,10 h -10 z" />
</svg>
