<?xml version="1.0" encoding="UTF-8" standalone="no"?>
<svg
   width="192"
   height="192"
   version="1.1"
   id="svg8"
   sodipodi:docname="libreoffice.svg"
   inkscape:version="1.2.1 (9c6d41e410, 2022-07-14)"
   xmlns:inkscape="http://www.inkscape.org/namespaces/inkscape"
   xmlns:sodipodi="http://sodipodi.sourceforge.net/DTD/sodipodi-0.dtd"
   xmlns="http://www.w3.org/2000/svg"
   xmlns:svg="http://www.w3.org/2000/svg"
   xmlns:rdf="http://www.w3.org/1999/02/22-rdf-syntax-ns#"
   xmlns:cc="http://creativecommons.org/ns#"
   xmlns:dc="http://purl.org/dc/elements/1.1/">
  <defs
     id="defs12" />
  <sodipodi:namedview
     id="namedview10"
     pagecolor="#ffffff"
     bordercolor="#666666"
     borderopacity="1.0"
     inkscape:showpageshadow="2"
     inkscape:pageopacity="0.0"
     inkscape:pagecheckerboard="0"
     inkscape:deskcolor="#d1d1d1"
     showgrid="false"
     inkscape:zoom="2.5104167"
     inkscape:cx="95.80083"
     inkscape:cy="96"
     inkscape:window-width="1366"
     inkscape:window-height="688"
     inkscape:window-x="0"
     inkscape:window-y="0"
     inkscape:window-maximized="1"
     inkscape:current-layer="svg8" />
  <metadata
     id="metadata2">
    <rdf:RDF>
      <cc:Work
         rdf:about="">
        <dc:format>image/svg+xml</dc:format>
        <dc:type
           rdf:resource="http://purl.org/dc/dcmitype/StillImage" />
      </cc:Work>
    </rdf:RDF>
  </metadata>
  <path
     d="m 124.26,16 41.738,41.738 V 26 c 0,-5.54 -4.46,-10 -10,-10 z"
     fill="#dedede"
     style="fill:#000000;stroke-width:10;paint-order:stroke fill markers"
     id="path4" />
  <path
     d="M 46,16 C 35.093,16 26,25.093 26,36 v 120 c 0,10.907 9.093,20 20,20 h 100 c 10.907,0 20,-9.093 20,-20 V 76 a 10.001,10.001 0 0 0 -2.9297,-7.0703 l -50,-50 A 10.001,10.001 0 0 0 106,16 Z m 0,10 h 60 l 50,50 v 80 c 0,5.54 -4.46,10 -10,10 H 46 c -5.54,0 -10,-4.46 -10,-10 V 36 c 0,-5.54 4.46,-10 10,-10 z"
     color="#000000"
     color-rendering="auto"
     dominant-baseline="auto"
     fill="#dedede"
     image-rendering="auto"
     shape-rendering="auto"
     solid-color="#000000"
     style="font-variant-ligatures:normal;font-variant-position:normal;font-variant-caps:normal;font-variant-numeric:normal;font-variant-alternates:normal;font-feature-settings:normal;text-indent:0;text-decoration-line:none;text-decoration-style:solid;text-decoration-color:#000000;text-transform:none;text-orientation:mixed;white-space:normal;shape-padding:0;isolation:auto;mix-blend-mode:normal;fill:#000000;stroke-width:10;paint-order:stroke fill markers"
     id="path6" />
</svg>
