<?xml version="1.0" encoding="UTF-8" standalone="no"?>
<svg
   version="1.1"
   id="svg2"
   width="192"
   height="192"
   viewBox="0 0 192 192"
   xmlns="http://www.w3.org/2000/svg"
   xmlns:svg="http://www.w3.org/2000/svg"
   xmlns:rdf="http://www.w3.org/1999/02/22-rdf-syntax-ns#"
   xmlns:cc="http://creativecommons.org/ns#"
   xmlns:dc="http://purl.org/dc/elements/1.1/">
  <metadata
     id="metadata8">
    <rdf:RDF>
      <cc:Work
         rdf:about="">
        <dc:format>image/svg+xml</dc:format>
        <dc:type
           rdf:resource="http://purl.org/dc/dcmitype/StillImage" />
      </cc:Work>
    </rdf:RDF>
  </metadata>
  <defs
     id="defs6">
    <filter
       style="color-interpolation-filters:sRGB;"
       id="filter862"
       x="-0.033802817"
       y="-0.030000007"
       width="1.0676056"
       height="1.06625">
      <feFlood
         flood-opacity="1"
         flood-color="rgb(0,0,0)"
         result="flood"
         id="feFlood852" />
      <feComposite
         in="flood"
         in2="SourceGraphic"
         operator="in"
         result="composite1"
         id="feComposite854" />
      <feGaussianBlur
         in="composite1"
         stdDeviation="2"
         result="blur"
         id="feGaussianBlur856" />
      <feOffset
         dx="0"
         dy="1"
         result="offset"
         id="feOffset858" />
      <feComposite
         in="offset"
         in2="SourceGraphic"
         operator="out"
         result="composite2"
         id="feComposite860" />
    </filter>
    <filter
       style="color-interpolation-filters:sRGB;"
       id="filter877"
       x="-0.050704225"
       y="-0.04500001"
       width="1.1014085"
       height="1.09">
      <feFlood
         flood-opacity="1"
         flood-color="rgb(255,255,255)"
         result="flood"
         id="feFlood867" />
      <feComposite
         in="flood"
         in2="SourceGraphic"
         operator="out"
         result="composite1"
         id="feComposite869" />
      <feGaussianBlur
         in="composite1"
         stdDeviation="3"
         result="blur"
         id="feGaussianBlur871" />
      <feOffset
         dx="0"
         dy="0"
         result="offset"
         id="feOffset873" />
      <feComposite
         in="offset"
         in2="SourceGraphic"
         operator="in"
         result="composite2"
         id="feComposite875" />
    </filter>
  </defs>
  <g
     id="g10">
    <path
       id="path956"
       style="fill:#000000;fill-opacity:1;stroke-width:0.212207"
       d="m 95.785062,16 c -0.231607,0 -0.492823,-6.1e-5 -0.903924,0.206795 -0.04886,0.02459 -0.106812,0.07005 -0.160643,0.103606 -1.053674,0.393426 -1.955809,1.127081 -3.84793,2.573188 -3.273539,2.50189 -8.560675,7.60687 -10.657343,10.369527 -3.667575,4.832557 -5.997633,9.917099 -6.593834,14.698628 -0.532781,4.272935 0.110277,9.908347 1.59477,14.475321 1.573628,4.841181 5.028633,10.54905 8.391702,13.697256 0.388031,0.36324 0.784253,0.683484 1.167363,0.945649 0.191554,0.131081 0.376712,0.247708 0.592213,0.355805 0.215504,0.108095 0.376056,0.269122 1.032109,0.269122 0.366265,0 0.449667,-0.03752 0.643401,-0.07306 0.193735,-0.03554 0.411593,-0.08138 0.655473,-0.136624 0.487758,-0.110485 1.075597,-0.257676 1.671766,-0.421024 1.912726,-0.52408 1.920341,-0.509997 6.211786,-0.520498 4.306911,-0.01054 4.380886,-0.01183 6.926789,0.563013 l 2.72841,0.615848 a 1.7048125,1.6908622 0 0 0 1.57065,-0.440422 l 1.28721,-1.249856 c 2.43068,-2.360418 4.47806,-5.245991 6.26214,-8.772123 2.90244,-5.736446 4.21829,-12.387523 3.63194,-18.502271 -0.28767,-3.000025 -0.69061,-4.740027 -1.66927,-7.172237 -1.76603,-4.389022 -4.89942,-8.7222 -9.41048,-13.168914 -1.69627,-1.67206 -3.85562,-3.59673 -5.72571,-5.155046 -0.93504,-0.779158 -1.794221,-1.46406 -2.502444,-1.987473 -0.354111,-0.261707 -0.668523,-0.48271 -0.958027,-0.665381 -0.289504,-0.182669 -0.440437,-0.33515 -1.015877,-0.478396 -0.09964,-0.0248 -0.213214,-0.02299 -0.320036,-0.03839 C 96.254061,16.046027 96.085979,16 95.785062,16 Z m 0.0258,11.91245 c 0.09558,0.05685 0.27488,0.168402 0.560998,0.412353 0.589084,0.502271 1.486165,1.397712 2.771292,2.664411 1.991038,1.962471 4.324898,4.519616 4.866728,5.247092 1.32303,1.776338 3.05858,5.215085 3.47671,6.732228 0.37988,1.378317 0.54103,6.019486 0.15855,8.306521 -0.37886,2.2655 -1.57912,6.077824 -2.34971,7.612659 -0.34488,0.686945 -1.0444,1.845953 -1.66926,2.78535 -0.28821,0.43327 -0.55259,0.804304 -0.76327,1.084339 -0.21164,-0.01475 -0.43027,-0.02948 -0.67878,-0.06068 -3.081713,-0.386772 -8.109126,-0.487681 -11.000265,-0.208446 -0.736936,0.07118 -1.436448,0.147587 -1.983477,0.215052 -0.137736,0.01699 -0.235348,0.03166 -0.352915,0.04747 -0.03248,-0.03613 -0.04896,-0.0448 -0.08074,-0.08421 -2.074938,-2.573396 -3.780127,-6.28087 -4.643651,-10.250232 -0.464339,-2.134418 -0.518384,-7.077579 -0.206424,-8.468326 1.03991,-4.635946 4.86322,-10.268511 10.373099,-14.829887 0.654212,-0.541595 1.134478,-0.946664 1.414569,-1.138411 0.07147,-0.04892 0.07271,-0.04717 0.106541,-0.06728 z M 141.26439,47.594 a 1.7048125,1.6908622 0 0 0 -0.17147,0.0091 c -2.50974,0.01173 -4.89925,0.261864 -7.10448,0.784256 -9.40402,2.227706 -18.86487,11.272507 -22.4321,21.144809 -0.3034,0.839645 -0.64415,2.04368 -0.93266,3.179129 -0.14424,0.567725 -0.2725,1.110539 -0.36914,1.573469 -0.0966,0.462926 -0.17417,0.736148 -0.18269,1.238299 -0.0126,0.741016 0.16195,0.781351 0.23389,0.915104 0.0719,0.133753 0.13297,0.224162 0.19769,0.317417 0.12939,0.186515 0.27288,0.369281 0.44321,0.576635 0.34069,0.414711 0.78107,0.910352 1.26933,1.42446 2.11297,2.224851 3.68657,4.617139 5.8364,8.964057 l 1.81285,3.66537 a 1.7048125,1.6908622 0 0 0 0.82069,0.792925 l 1.12783,0.512244 a 1.7048125,1.6908622 0 0 0 4.2e-4,0 c 1.73677,0.78861 4.32824,1.41766 6.59549,1.677072 2.33601,0.26727 3.42128,0.271438 5.93672,0.02023 5.60114,-0.559369 11.9379,-2.767206 16.63108,-5.797722 7.80085,-5.03724 12.49923,-14.21962 14.43993,-27.330532 0.36597,-2.472461 0.56395,-3.871474 0.61302,-4.878079 0.0246,-0.503302 0.0222,-0.925849 -0.0944,-1.396802 -0.11665,-0.470954 -0.43083,-0.973801 -0.70332,-1.24408 -0.45345,-0.44973 -0.58007,-0.426156 -0.83819,-0.555996 -0.25811,-0.129841 -0.55694,-0.265111 -0.90475,-0.414831 -0.69562,-0.299443 -1.5808,-0.651095 -2.55655,-1.019534 -1.95151,-0.736879 -4.24496,-1.53415 -5.98704,-2.046911 -4.7395,-1.395001 -9.39121,-2.110539 -13.68168,-2.110064 z M 50.644088,48.816202 C 43.87504,48.761132 36.275192,50.645899 28.3951,54.332418 l -2.428369,1.136349 a 1.7048125,1.6908622 0 0 0 -0.719977,0.636072 l 0.742883,-0.34012 a 1.7048125,1.6908622 0 0 0 -0.978016,1.73197 l 0.02706,0.230323 0.106945,1.443859 c 0.403276,5.448866 2.713449,13.874884 5.184263,18.969114 2.198775,4.533304 5.556004,8.745527 9.001385,11.046052 4.203114,2.806452 9.721698,4.960327 15.135366,5.940954 2.614643,0.473607 7.293576,0.465849 9.890333,-0.0227 2.141256,-0.402865 4.534435,-1.124085 6.032003,-2.025446 0.522241,-0.314329 1.007723,-0.856863 1.362549,-1.466562 0.354823,-0.609697 0.690897,-1.361177 1.187338,-2.523656 1.883944,-4.411487 4.264829,-8.178281 6.989201,-11.117463 0.326663,-0.35242 0.622274,-0.68388 0.851073,-0.953079 0.114396,-0.134598 0.210252,-0.250748 0.299644,-0.367774 0.0447,-0.05852 0.08643,-0.113143 0.144826,-0.203908 0.0292,-0.04538 0.06264,-0.09688 0.112782,-0.198952 0.05015,-0.102074 0.178123,-0.171082 0.178123,-0.758253 0,-0.551428 -0.07402,-0.585408 -0.134423,-0.80861 -0.06042,-0.223203 -0.136843,-0.473679 -0.228895,-0.759079 C 80.967087,73.350706 80.722079,72.647773 80.453686,71.91092 79.916903,70.437212 79.313705,68.882068 78.870569,67.958675 77.658113,65.432211 75.393626,62.010848 73.539818,59.903532 70.374512,56.305378 65.924951,52.95363 61.78378,51.081878 58.51427,49.604107 54.796573,48.874001 50.793094,48.824045 a 1.7048125,1.6908622 0 0 0 -0.149006,-0.0078 z m 90.251982,8.898015 c 2.24025,-0.0065 4.77691,0.207682 6.64586,0.593147 2.4006,0.495115 4.53214,1.039387 6.05449,1.521458 0.70544,0.223392 1.24175,0.428371 1.62306,0.595621 -0.0212,0.176957 -0.0304,0.307273 -0.0687,0.542789 -0.13671,0.842127 -0.37625,1.99438 -0.67005,3.22825 -0.58757,2.467741 -1.41352,5.319399 -2.02052,6.832944 -1.63933,4.087666 -3.58978,6.651085 -6.58551,8.771293 -2.55525,1.808474 -6.75805,3.512488 -10.33022,4.140878 -1.58388,0.278624 -3.3752,0.408308 -4.88504,0.385936 -1.41404,-0.02094 -2.59329,-0.26122 -2.87033,-0.351265 -0.0466,-0.03657 -0.094,-0.06857 -0.14984,-0.13745 -0.16134,-0.198995 -0.36927,-0.502597 -0.54933,-0.823057 -2.70786,-4.819167 -3.69066,-6.433249 -5.03487,-8.24543 -0.37308,-0.502981 -0.71583,-1.008021 -0.94554,-1.379881 -0.0438,-0.07104 -0.0573,-0.100211 -0.092,-0.15974 0.003,-0.0116 0.002,-0.01729 0.007,-0.02889 0.0896,-0.272663 0.23321,-0.651704 0.40786,-1.068243 0.34931,-0.83307 0.82705,-1.829791 1.26809,-2.614875 3.04959,-5.428709 8.98569,-10.180174 13.99212,-11.43034 0.8606,-0.214904 2.4613,-0.368098 4.20376,-0.373142 z m -91.248281,1.216837 h 4.25e-4 c 0.434237,0.0011 0.930628,0.01501 1.540676,0.03922 5.683107,0.225383 8.763076,1.655783 13.479403,6.33143 1.325666,1.314237 2.793246,3.203229 3.879143,4.909036 0.542946,0.852903 0.99358,1.664355 1.288052,2.309019 0.27091,0.593075 0.340563,1.006028 0.354578,1.005911 -0.04595,0.07345 -0.139335,0.453873 -0.240963,0.598099 -2.181508,3.095926 -3.566182,5.352469 -4.905839,8.007677 -0.403721,0.800179 -0.799592,1.557848 -1.104522,2.119972 -0.127637,0.235292 -0.226375,0.410072 -0.312544,0.560124 -0.191646,0.07202 -0.451819,0.15771 -0.708326,0.223719 -0.85826,0.22086 -4.282252,0.44491 -4.725225,0.386764 -4.625312,-0.607159 -9.46494,-2.265677 -12.435235,-4.171429 -3.470908,-2.226946 -5.901408,-5.632658 -7.795306,-11.260695 -0.302148,-0.897821 -0.897922,-3.040389 -1.392522,-4.964758 -0.247301,-0.962186 -0.473657,-1.88168 -0.635086,-2.585984 -0.02467,-0.107731 -0.03554,-0.167284 -0.057,-0.264171 0.266969,-0.12125 0.451858,-0.216846 0.925132,-0.400384 2.982484,-1.156536 5.260289,-1.780244 8.775412,-2.398176 1.980536,-0.348159 2.767633,-0.448057 4.069767,-0.445375 z m 106.002851,1.69771 c 0.008,0.005 0.0445,0.02254 0.0491,0.02559 0.0169,0.01116 -0.002,0.0175 -0.0491,-0.02559 z m -53.02162,2.42872 c -0.0167,0.01972 -0.0536,0.06741 -0.0628,0.0776 -0.0212,0.02316 -0.0357,-0.0071 0.0628,-0.0776 z m 18.25832,9.813119 c 0.006,0.0064 0.008,0.128226 0.0133,0.155613 -0.007,-0.01263 -0.0265,-0.04492 -0.0315,-0.0549 -0.0192,-0.03802 -0.002,-0.123427 0.0184,-0.100716 z m 11.4693,23.468273 c -3.70242,0.0052 -7.25365,0.595333 -10.26699,1.841764 -0.86291,0.356942 -1.65686,0.765202 -2.27354,1.482249 -0.61668,0.717051 -0.91804,1.524011 -1.24393,2.526131 -1.00411,3.08754 -3.22273,6.95613 -6.29254,10.80418 -0.49799,0.62424 -0.8876,1.15736 -1.18609,1.64941 -0.2985,0.49204 -0.60011,0.83375 -0.60011,1.73734 0,0.7713 0.1871,1.33144 0.42906,2.10056 0.24197,0.76913 0.56866,1.64804 0.94763,2.57112 0.75793,1.84621 1.71144,3.84624 2.62605,5.35607 5.18347,8.55694 13.71322,14.96069 22.12123,16.25971 5.98417,0.92456 12.91572,0.0476 20.13898,-2.43862 1.63091,-0.56135 3.78074,-1.39895 5.6017,-2.15505 0.91047,-0.37806 1.7345,-0.73403 2.37717,-1.03027 0.32135,-0.14813 0.5957,-0.28018 0.83026,-0.40328 0.23458,-0.1231 0.31797,-0.0709 0.77492,-0.52463 0.46275,-0.45948 0.50789,-0.80887 0.56807,-1.08185 0.0601,-0.27297 0.0777,-0.50636 0.0866,-0.75247 0.0177,-0.49224 -0.0139,-1.02814 -0.0745,-1.64943 -0.12126,-1.24257 -0.3691,-2.80182 -0.69958,-4.50287 -0.66096,-3.40211 -1.64112,-7.32352 -2.65393,-10.1 -2.49724,-6.84585 -6.44602,-12.5532 -11.11556,-15.63477 -2.34956,-1.55057 -6.15429,-3.373358 -8.92646,-4.286176 -3.61051,-1.188853 -7.46608,-1.774288 -11.1684,-1.769118 z m -71.831361,1.147078 c -3.628097,0.0017 -4.877748,0.09568 -6.806912,0.511417 -7.502513,1.616801 -14.162655,5.157469 -18.11683,9.867189 -3.812239,4.54069 -6.52816,10.35938 -8.044184,17.08071 -0.562616,2.49433 -1.036358,5.26017 -1.324272,7.51442 -0.143956,1.12712 -0.241866,2.12104 -0.27841,2.92156 -0.01828,0.40027 -0.02298,0.74826 -8.41e-4,1.08228 0.02214,0.33401 -0.129147,0.56549 0.40285,1.31796 0.381052,0.53894 0.480133,0.46951 0.595538,0.5395 0.115425,0.07 0.21095,0.11918 0.315892,0.17128 0.209862,0.10423 0.449066,0.21122 0.734956,0.33352 0.57178,0.2446 1.31869,0.54262 2.162423,0.86599 1.687469,0.64672 3.748998,1.38897 5.432311,1.93588 2.925102,0.95035 6.873138,1.8845 9.375531,2.19385 1.049846,0.12978 2.189206,0.27603 2.417544,0.30876 1.779902,0.255 5.325088,0.15394 7.37622,-0.0954 4.37228,-0.53142 7.622157,-1.80264 11.917522,-4.62423 3.354098,-2.20328 7.614979,-6.33102 9.777554,-9.50437 2.490728,-3.65487 4.319369,-7.78952 5.11559,-11.66191 l 0.360822,-1.75466 a 1.7048125,1.6908622 0 0 0 -0.441142,-1.50945 l -2.093763,-2.16083 c -1.070413,-1.10457 -2.574994,-2.92142 -3.112972,-3.71945 -1.314928,-1.95053 -3.067904,-5.46766 -3.642339,-7.23662 -0.17033,-0.52454 -0.362019,-0.99795 -0.584308,-1.42075 -0.222283,-0.42279 -0.338055,-0.795428 -1.036684,-1.249442 -0.368041,-0.239175 -0.495165,-0.252659 -0.717897,-0.333102 -0.222732,-0.08045 -0.473119,-0.1611 -0.754937,-0.245597 C 68.990905,98.445462 68.307676,98.26378 67.606856,98.099327 65.350054,97.569742 64.42969,97.484045 60.52527,97.485954 Z m 72.078571,8.975196 c 4.24857,0.0277 9.23667,1.39452 13.23842,3.75247 3.59431,2.11786 5.99035,5.45618 8.2007,11.88768 0.53791,1.56521 1.06363,3.3763 1.44701,4.92266 0.30297,1.22197 0.46566,2.20108 0.53644,2.7189 l -2.64684,0.85689 v -4.1e-4 c -4.5784,1.48141 -6.06343,1.80647 -9.43129,2.0663 -2.83124,0.21843 -2.43489,0.22153 -4.73397,-0.004 -1.73011,-0.1701 -3.58648,-0.64134 -4.87421,-1.20859 -1.97557,-0.87023 -6.79056,-4.54468 -8.2269,-6.30088 -1.22474,-1.49748 -2.41548,-3.25225 -3.27071,-4.75011 -0.42761,-0.74894 -0.77185,-1.4366 -0.99214,-1.96766 -0.17321,-0.41756 -0.19516,-0.58734 -0.21807,-0.65714 0.0655,-0.12814 0.13337,-0.26165 0.24555,-0.45692 0.29822,-0.51927 0.73125,-1.21133 1.20439,-1.9107 1.68357,-2.48853 3.42401,-5.61208 4.39187,-7.92142 0.1389,-0.33144 0.0769,-0.2355 0.20766,-0.31122 0.13085,-0.0758 0.62313,-0.25259 1.57147,-0.43258 1.03074,-0.19562 2.16094,-0.29049 3.35062,-0.28275 z m -70.775956,1.15328 c 1.602607,0.004 2.010644,0.13794 2.027593,0.14983 0.01694,0.0119 0.36685,0.5145 1.106185,1.91937 1.657039,3.14866 3.400929,5.88327 5.153048,8.04482 0.50015,0.61704 0.693815,0.91768 0.714985,0.94978 -0.0058,0.0192 -0.0083,-0.0157 -0.01581,0.0404 -0.0058,0.0423 -0.402762,1.23899 -0.992988,2.3957 -0.590225,1.1567 -1.363047,2.45561 -2.069208,3.43916 -1.485961,2.06968 -4.471736,4.92868 -6.732429,6.42844 -3.266969,2.16736 -4.290137,2.54042 -8.072077,2.94426 -2.491568,0.26606 -3.183803,0.25433 -5.715707,-0.0966 -1.779667,-0.24667 -4.146818,-0.7378 -6.242994,-1.26885 -1.864432,-0.47235 -3.456397,-0.99694 -4.190033,-1.30145 0.05927,-0.34239 0.14726,-0.9054 0.504,-2.67557 1.382549,-6.86051 3.795533,-11.98927 6.699114,-14.8691 1.960445,-1.94438 5.035811,-3.73727 8.532372,-4.87477 3.298972,-1.07321 4.231433,-1.22218 7.672956,-1.22385 0.625284,-2.1e-4 1.162724,-0.003 1.621001,-0.002 z m 43.269446,10.14662 c -0.33145,0.01 -0.53562,0.0743 -0.83235,0.13664 -0.39563,0.0832 -0.83497,0.19903 -1.29055,0.34177 -3.719206,1.16529 -8.728101,1.37027 -12.789393,0.49862 -1.925469,-0.41325 -2.776892,-0.78725 -4.080571,-0.54939 -0.651837,0.11893 -1.247918,0.49546 -1.639303,0.84781 -0.391381,0.35238 -0.690646,0.70215 -1.116172,1.14957 -4.463064,4.69265 -7.492714,10.68475 -8.879038,17.47159 -0.425549,2.0833 -0.517642,3.32546 -0.50565,6.84078 0.01288,3.78177 0.107817,4.68334 0.637161,6.634 1.562819,5.75909 5.200321,11.21813 11.006093,16.78929 1.42668,1.36903 3.318879,3.0318 5.023616,4.45128 1.70474,1.41947 2.973252,2.48322 4.03188,3.04867 0.184067,0.0984 0.355593,0.18826 0.493996,0.25883 0.06919,0.0352 0.12905,0.0651 0.187694,0.0933 0.02932,0.0142 0.05644,0.0275 0.09905,0.0462 0.04262,0.0188 -0.126158,0.0312 0.41326,0.12713 0.738459,0.13129 0.712833,-0.0202 0.802382,-0.0471 0.08954,-0.0268 0.13008,-0.0437 0.166052,-0.0582 0.07194,-0.0289 0.111387,-0.0479 0.153151,-0.0677 0.08353,-0.0396 0.162262,-0.0798 0.254697,-0.12798 0.18487,-0.0962 0.412862,-0.22011 0.659218,-0.35785 1.957973,-1.0949 4.761017,-3.50335 7.625527,-6.19027 2.86452,-2.68691 5.60192,-5.51509 7.01749,-7.5235 2.94405,-4.17701 4.81208,-8.11909 5.63706,-12.06353 0.3762,-1.79873 0.44472,-2.9365 0.35291,-5.91536 -0.26216,-8.50712 -2.90194,-15.58437 -8.15988,-21.78254 -1.30199,-1.53481 -2.73687,-3.00761 -4.05727,-3.78755 -0.39059,-0.23069 -0.59043,-0.23772 -0.7462,-0.24476 a 1.7048125,1.6908622 0 0 0 -0.0829,-0.009 c -0.14687,-0.0112 -0.27155,-0.0143 -0.38204,-0.0112 z m -2.12331,11.0539 c 8.4e-4,6.4e-4 4.2e-4,8.4e-4 8.4e-4,0.002 0.078,0.0689 0.41912,0.50189 0.95552,1.2738 1.75195,2.52112 3.18369,5.91309 3.95948,9.48127 0.51016,2.3465 0.40767,7.39147 -0.0542,8.97271 -1.11192,3.80754 -3.31222,7.31997 -6.95383,10.94327 -1.377677,1.37077 -3.247048,3.09146 -3.91826,3.63318 -0.297756,0.24032 -0.57251,0.43452 -0.819027,0.60512 -0.113234,-0.0696 -0.178197,-0.0942 -0.370393,-0.25138 -0.662808,-0.54215 -1.722479,-1.53844 -3.303162,-3.104 -4.541115,-4.49768 -6.933895,-8.1622 -7.835276,-11.59421 -0.457577,-1.74223 -0.664791,-5.43084 -0.389121,-7.47728 0.492195,-3.65381 2.319837,-8.51612 4.165053,-11.20373 0.360761,-0.52546 0.613075,-0.89313 0.75036,-1.05957 0.02396,-0.0291 0.02311,-0.0282 0.02913,-0.0355 -0.0015,0.0384 0.517201,0.0155 1.819922,0.16799 3.539608,0.41434 6.586018,0.38295 9.918224,-0.10939 0.99134,-0.14646 1.644,-0.23191 1.93021,-0.23404 0.0642,-4.2e-4 0.0911,-0.005 0.11402,-0.01 z m -7.204782,35.16568 c -0.02763,0.0162 -0.08335,0.0521 -0.09572,0.0586 -0.0221,0.0117 -0.02278,-0.0245 0.09572,-0.0586 z" />
  </g>
</svg>
