<?xml version="1.0" encoding="UTF-8" standalone="no"?>
<svg
   xml:space="preserve"
   viewBox="0 0 192 192"
   height="192"
   width="192"
   y="0px"
   x="0px"
   id="Layer_1"
   version="1.1"
   sodipodi:docname="mirpay.svg"
   inkscape:version="1.2.1 (9c6d41e410, 2022-07-14)"
   xmlns:inkscape="http://www.inkscape.org/namespaces/inkscape"
   xmlns:sodipodi="http://sodipodi.sourceforge.net/DTD/sodipodi-0.dtd"
   xmlns="http://www.w3.org/2000/svg"
   xmlns:svg="http://www.w3.org/2000/svg"
   xmlns:rdf="http://www.w3.org/1999/02/22-rdf-syntax-ns#"
   xmlns:cc="http://creativecommons.org/ns#"
   xmlns:dc="http://purl.org/dc/elements/1.1/"><sodipodi:namedview
     id="namedview13"
     pagecolor="#ffffff"
     bordercolor="#666666"
     borderopacity="1.0"
     inkscape:showpageshadow="2"
     inkscape:pageopacity="0.0"
     inkscape:pagecheckerboard="0"
     inkscape:deskcolor="#d1d1d1"
     showgrid="false"
     inkscape:zoom="2.5104167"
     inkscape:cx="95.80083"
     inkscape:cy="96"
     inkscape:window-width="1366"
     inkscape:window-height="688"
     inkscape:window-x="0"
     inkscape:window-y="0"
     inkscape:window-maximized="1"
     inkscape:current-layer="Layer_1" /><metadata
     id="metadata22"><rdf:RDF><cc:Work
         rdf:about=""><dc:format>image/svg+xml</dc:format><dc:type
           rdf:resource="http://purl.org/dc/dcmitype/StillImage" /></cc:Work></rdf:RDF></metadata><defs
     id="defs20" /><style
     id="style3"
     type="text/css">
	.st0{fill-rule:evenodd;clip-rule:evenodd;fill:url(#SVGID_1_);}
	.st1{fill-rule:evenodd;clip-rule:evenodd;fill:#4DB45F;}
</style><linearGradient
     y2="3"
     x2="48.5"
     y1="3"
     x1="34.174198"
     gradientUnits="userSpaceOnUse"
     id="SVGID_1_"
     gradientTransform="matrix(3.2989691,0,0,3.2857143,16,73)"><stop
       id="stop6"
       style="stop-color:#00B4E6"
       offset="0" /><stop
       id="stop8"
       style="stop-color:#088CCB"
       offset="1" /></linearGradient><path
     id="path10"
     d="m 159.50515,73 h -30.68041 c 1.64949,10.185714 11.54639,19.714285 22.43299,19.714285 H 175.6701 C 176,91.728572 176,90.414286 176,89.428571 176,80.228571 168.74227,73 159.50515,73 Z"
     class="st0"
     style="fill:#000000;stroke-width:3.29234" /><path
     style="clip-rule:evenodd;fill:#000000;fill-rule:evenodd;stroke-width:3.29234"
     id="path12"
     d="M 131.46392,94.357143 V 119 h 14.84536 v -13.14286 h 13.19587 c 7.25774,0 13.52578,-4.92857 15.50516,-11.499997 z"
     class="st1" /><path
     id="path14"
     d="m 78.680412,73 v 46 h 13.195877 c 0,0 3.298969,0 4.948453,-3.28571 8.907218,-17.742861 11.546388,-23.000005 11.546388,-23.000005 h 1.64949 V 119 h 14.84536 V 73 H 111.6701 c 0,0 -3.29897,0.328571 -4.94845,3.285714 C 99.134021,91.4 95.175258,99.285715 95.175258,99.285715 H 93.525773 V 73 Z"
     class="st1"
     style="stroke-width:3.29234;fill:#000000" /><path
     id="path16"
     d="M 16,119 V 73 h 14.845361 c 0,0 4.28866,0 6.597938,6.571428 5.938144,17.414286 6.597938,19.714287 6.597938,19.714287 0,0 1.319588,-4.271429 6.597938,-19.714287 C 52.948454,73 57.237113,73 57.237113,73 h 14.845361 v 46 H 57.237113 V 94.357143 H 55.587629 L 47.340206,119 H 40.742268 L 32.494845,94.357143 H 30.845361 V 119 Z"
     class="st1"
     style="stroke-width:3.29234;fill:#000000" /></svg>
