<?xml version="1.0" encoding="UTF-8" standalone="no"?>
<svg
   version="1.1"
   id="svg2"
   width="192"
   height="192"
   viewBox="0 0 192 192"
   sodipodi:docname="ozon.svg"
   inkscape:version="1.2.1 (9c6d41e410, 2022-07-14)"
   inkscape:export-filename="/home/smith/Загрузки/Android/Themes/Themes/Uranium/ru.ozon.app.android.png"
   inkscape:export-xdpi="84"
   inkscape:export-ydpi="84"
   xmlns:inkscape="http://www.inkscape.org/namespaces/inkscape"
   xmlns:sodipodi="http://sodipodi.sourceforge.net/DTD/sodipodi-0.dtd"
   xmlns="http://www.w3.org/2000/svg"
   xmlns:svg="http://www.w3.org/2000/svg"
   xmlns:rdf="http://www.w3.org/1999/02/22-rdf-syntax-ns#"
   xmlns:cc="http://creativecommons.org/ns#"
   xmlns:dc="http://purl.org/dc/elements/1.1/">
  <metadata
     id="metadata8">
    <rdf:RDF>
      <cc:Work
         rdf:about="">
        <dc:format>image/svg+xml</dc:format>
        <dc:type
           rdf:resource="http://purl.org/dc/dcmitype/StillImage" />
      </cc:Work>
    </rdf:RDF>
  </metadata>
  <defs
     id="defs6">
    <filter
       style="color-interpolation-filters:sRGB;"
       inkscape:label="Drop Shadow"
       id="filter921"
       x="-0.015000042"
       y="-0.066666664"
       width="1.0300001"
       height="1.1611111">
      <feFlood
         flood-opacity="0.768627"
         flood-color="rgb(0,0,0)"
         result="flood"
         id="feFlood911" />
      <feComposite
         in="flood"
         in2="SourceGraphic"
         operator="in"
         result="composite1"
         id="feComposite913" />
      <feGaussianBlur
         in="composite1"
         stdDeviation="1"
         result="blur"
         id="feGaussianBlur915" />
      <feOffset
         dx="0"
         dy="1"
         result="offset"
         id="feOffset917" />
      <feComposite
         in="offset"
         in2="SourceGraphic"
         operator="out"
         result="composite2"
         id="feComposite919" />
    </filter>
  </defs>
  <sodipodi:namedview
     pagecolor="#ffffff"
     bordercolor="#666666"
     borderopacity="1"
     objecttolerance="10"
     gridtolerance="10"
     guidetolerance="10"
     inkscape:pageopacity="0"
     inkscape:pageshadow="2"
     inkscape:window-width="1366"
     inkscape:window-height="688"
     id="namedview4"
     showgrid="false"
     inkscape:zoom="2.5104167"
     inkscape:cx="95.80083"
     inkscape:cy="96"
     inkscape:current-layer="g10"
     inkscape:showpageshadow="2"
     inkscape:pagecheckerboard="0"
     inkscape:deskcolor="#d1d1d1"
     inkscape:window-x="0"
     inkscape:window-y="0"
     inkscape:window-maximized="1" />
  <g
     inkscape:groupmode="layer"
     inkscape:label="Image"
     id="g10">
    <path
       id="path839"
       style="fill:#000000;stroke-width:0.192216"
       d="m 113.80745,78.000509 c -4.8229,-0.02627 -9.65832,0.963693 -13.78738,2.973432 -7.423532,3.613256 -11.433982,9.37944 -11.051882,15.890729 0.48938,8.3396 8.93235,15.3817 20.209712,16.85639 9.00956,1.17813 18.32312,-1.43618 23.86078,-6.69789 5.56205,-5.28488 6.73111,-12.097773 3.13353,-18.258498 -1.58204,-2.709196 -5.19376,-5.898465 -8.65295,-7.640829 -4.0788,-2.054457 -8.8889,-3.097058 -13.71181,-3.123334 z m -80.485502,0.07079 c -1.38228,0.0113 -2.70423,0.12484 -3.57102,0.345606 -7.50471,1.911427 -12.7988,8.003511 -13.64292,15.699947 -1.00116,9.128248 5.05582,17.526738 14.09307,19.540608 1.93106,0.43032 5.64209,0.37349 7.60075,-0.11621 5.65426,-1.41367 10.35106,-5.57379 12.41758,-10.99886 1.5568,-4.08693 1.54438,-9.022247 -0.0328,-13.186058 -1.11017,-2.930946 -3.87138,-6.440575 -6.49642,-8.257092 -1.3766,-0.952607 -3.87937,-2.108402 -5.57788,-2.575586 -1.1366,-0.312628 -3.01318,-0.466892 -4.7904,-0.452355 z m 52.93307,0.664338 -13.58633,0.05337 c -8.33691,0.03279 -11.55472,0.04686 -12.97943,0.150281 h -0.27776 l -0.0558,0.02952 c -0.6016,0.0637 -0.7879,0.154865 -1.03619,0.290718 -0.97979,0.536084 -1.50183,1.114354 -1.98564,2.199318 -0.94394,2.116832 -0.19759,4.360515 1.89032,5.682642 0.63971,0.405083 0.91781,0.426445 6.74216,0.519357 l 6.07307,0.09691 c -0.002,0.0033 -0.004,0.0071 -0.006,0.01059 l -4.90545,6.579025 c -12.57007,16.859002 -12.47902,16.731932 -12.47902,17.352652 0,0.3722 0.17568,0.77141 0.47248,1.07316 l 0.47249,0.48037 14.7305,-0.0534 c 14.67958,-0.0529 14.73314,-0.0544 15.49303,-0.47128 1.60607,-0.8811 2.38584,-2.21911 2.37845,-4.08142 -0.006,-1.54378 -0.71112,-2.83698 -1.98154,-3.63361 l -0.9379,-0.58825 -7.11635,-0.0553 c -4.1532,-0.0322 -7.11672,-0.12898 -7.11672,-0.2328 0,-0.0979 3.85893,-5.349859 8.57514,-11.67077 5.4137,-7.255742 7.62002,-10.195153 8.31897,-11.592786 0.002,-0.0033 0.0144,-0.02102 0.0156,-0.02347 0.009,-0.01875 0.0166,-0.03812 0.0249,-0.05716 0.45195,-0.943202 0.17222,-1.147536 -0.2502,-1.576997 z m 85.290802,0.0099 c -1.56012,0 -3.23316,1.117391 -3.91729,2.616468 -0.32352,0.708897 -0.35398,1.367385 -0.35781,7.69269 -0.002,3.804545 -0.0738,6.961229 -0.15899,7.014724 -0.0851,0.0535 -1.30757,-0.835632 -2.71652,-1.975601 -6.56051,-5.308058 -17.49033,-14.113887 -18.24343,-14.698328 -0.99309,-0.770684 -1.55084,-0.815312 -2.27494,-0.182078 l -0.53504,0.467497 V 94.57305 c 0,13.74557 0.0261,14.95963 0.33547,15.77452 0.40727,1.07268 1.54426,2.2438 2.54637,2.6229 0.89878,0.34002 2.63224,0.24773 3.45336,-0.18397 0.32042,-0.16846 0.86123,-0.58942 1.20188,-0.93575 1.2138,-1.23405 1.22249,-1.29375 1.32736,-9.02629 l 0.0953,-7.027968 10.67545,8.623518 c 5.8715,4.74303 10.88414,8.68224 11.13899,8.75374 0.57604,0.1616 1.35235,-0.25668 1.67811,-0.90433 0.0155,-0.0308 0.0296,-0.0898 0.0432,-0.16278 l 0.007,-0.007 v -0.0371 c 0.14532,-0.89762 0.17653,-4.59244 0.14297,-15.098064 -0.0453,-14.175124 -0.0635,-14.859438 -0.41329,-15.575784 -0.75147,-1.539181 -2.43341,-2.642588 -4.0286,-2.642588 z M 33.488378,86.953419 c 0.51229,-0.01231 1.02754,0.02368 1.54033,0.109776 7.24515,1.216466 10.10453,10.118303 4.92035,15.318005 -1.31766,1.32159 -2.65875,2.07201 -4.35664,2.43779 -1.55731,0.33551 -2.26263,0.33472 -3.78958,-0.003 -1.69137,-0.37411 -3.05485,-1.15289 -4.37413,-2.49874 -1.75441,-1.78974 -2.55605,-3.772387 -2.55605,-6.322374 0,-2.527979 0.80328,-4.507449 2.56163,-6.313289 1.66969,-1.714779 3.83419,-2.674807 6.05409,-2.728138 z m 80.142592,0.0064 c 4.56171,0.0094 9.04051,1.287446 12.38556,3.714234 4.35431,3.158991 4.41948,7.229672 0.1683,10.506377 -2.45974,1.89591 -6.20381,3.27791 -10.06595,3.71575 -6.24788,0.7083 -12.78392,-1.19958 -16.294292,-4.75636 -2.76247,-2.798996 -2.7816,-5.469048 -0.0596,-8.229834 1.529942,-1.551724 3.388652,-2.697706 5.792342,-3.571146 2.56959,-0.933722 5.33658,-1.384659 8.07361,-1.379021 z" />
  </g>
</svg>
