<?xml version="1.0" encoding="UTF-8" standalone="no"?>
<svg
   viewBox="0 0 24 24"
   version="1.1"
   id="svg25"
   sodipodi:docname="rabo_wallet.svg"
   inkscape:version="1.2.1 (9c6d41e410, 2022-07-14)"
   xmlns:inkscape="http://www.inkscape.org/namespaces/inkscape"
   xmlns:sodipodi="http://sodipodi.sourceforge.net/DTD/sodipodi-0.dtd"
   xmlns="http://www.w3.org/2000/svg"
   xmlns:svg="http://www.w3.org/2000/svg">
  <sodipodi:namedview
     id="namedview27"
     pagecolor="#ffffff"
     bordercolor="#000000"
     borderopacity="0.25"
     inkscape:showpageshadow="2"
     inkscape:pageopacity="0.0"
     inkscape:pagecheckerboard="0"
     inkscape:deskcolor="#d1d1d1"
     showgrid="false"
     inkscape:zoom="20.061081"
     inkscape:cx="12.312397"
     inkscape:cy="11.988387"
     inkscape:window-width="1350"
     inkscape:window-height="721"
     inkscape:window-x="0"
     inkscape:window-y="0"
     inkscape:window-maximized="1"
     inkscape:current-layer="svg25" />
  <defs
     id="defs4">
    <style
       id="style2">
      .cls-1, .cls-2, .cls-3, .cls-4, .cls-5 {
        fill: #1d1d1b;
      }

      .cls-1, .cls-2, .cls-3, .cls-4 {
        stroke: #1d1d1b;
      }

      .cls-1 {
        stroke-miterlimit: 10;
      }

      .cls-1, .cls-2, .cls-3 {
        stroke-width: 0.25px;
      }

      .cls-2 {
        stroke-linecap: round;
      }

      .cls-2, .cls-3, .cls-4 {
        stroke-linejoin: round;
      }

      .cls-4 {
        stroke-width: 0.17px;
      }
    </style>
  </defs>
  <g
     id="g16"
     style="fill:#000000;fill-opacity:1;stroke:#000000;stroke-opacity:1;stroke-linejoin:round;stroke-linecap:round">
    <path
       class="cls-1"
       d="m 18.84,12.84 a 4.48,4.48 0 0 0 -3.41,0.21 4.39,4.39 0 0 0 0.57,8.14 4.47,4.47 0 0 0 5.66,-2.74 4.4,4.4 0 0 0 -2.82,-5.61 z m 2,5.34 A 3.57,3.57 0 0 1 19,20.24 3.65,3.65 0 0 1 16.23,20.41 3.6,3.6 0 0 1 14,15.85 a 3.66,3.66 0 0 1 4.61,-2.23 3.58,3.58 0 0 1 2.21,4.56 z"
       id="path6"
       style="fill:#000000;fill-opacity:1;stroke:#000000;stroke-opacity:1;stroke-linejoin:round;stroke-linecap:round" />
    <path
       class="cls-2"
       d="m 20.41,8.15 h 0.84 A 5.74,5.74 0 0 0 17.31,2.9 5.87,5.87 0 0 0 15.51,2.59 V 3.43 A 4.37,4.37 0 0 1 17,3.67 4.9,4.9 0 0 1 20.41,8.15 Z"
       id="path8"
       style="fill:#000000;fill-opacity:1;stroke:#000000;stroke-opacity:1;stroke-linejoin:round;stroke-linecap:round" />
    <path
       class="cls-2"
       d="M 18.37,8.23 H 19.2 A 3.67,3.67 0 0 0 16.66,4.79 3.56,3.56 0 0 0 15.46,4.59 V 5.41 A 2.94,2.94 0 0 1 18.4,8.27 Z"
       id="path10"
       style="fill:#000000;fill-opacity:1;stroke:#000000;stroke-opacity:1;stroke-linejoin:round;stroke-linecap:round" />
    <path
       class="cls-1"
       d="m 7.58,18.15 a 0.61,0.61 0 0 0 0.38,0.78 0.62,0.62 0 0 0 0.79,-0.38 0.62,0.62 0 0 0 -1.17,-0.4 z"
       id="path12"
       style="fill:#000000;fill-opacity:1;stroke:#000000;stroke-opacity:1;stroke-linejoin:round;stroke-linecap:round" />
    <path
       class="cls-3"
       d="m 11.2,20.09 a 0.78,0.78 0 0 1 -1,0.49 L 5,18.83 a 0.79,0.79 0 0 1 -0.5,-1 l 0.67,-1.92 5.83,1.95 0.25,-0.74 -5.75,-2 1.27,-3.66 C 7.01,11.4 7.31,11.35 7.54,11.31 A 2.13,2.13 0 0 0 9.19,10.36 0.86,0.86 0 0 0 9.19,9.55 1.28,1.28 0 0 0 8.41,9 H 7.59 L 8.52,6.3 a 0.8,0.8 0 0 1 1,-0.48 l 5.18,1.75 a 0.78,0.78 0 0 1 0.5,1 l -1.11,3.22 0.74,0.25 1.11,-3.21 a 1.55,1.55 0 0 0 -1,-2 L 9.79,5.09 a 1.57,1.57 0 0 0 -2,1 l -1,3 c -0.8,0 -1.63,0.05 -1.83,0.07 a 14.93,14.93 0 0 0 -2.75,1.2 l 0.41,0.73 A 24,24 0 0 1 5,9.92 c 0.23,0 0.84,0 1.46,-0.05 H 7.3 c 0.44,0 0.79,0 1,0 0.21,0 0.16,0.13 0.15,0.19 -0.14,0.27 -0.46,0.44 -1,0.53 L 7,10.59 C 6.65,10.66 5.79,10.84 5.75,10.87 5.71,10.9 5.06,12.21 4.52,12.47 A 4.54,4.54 0 0 1 2.68,12.72 L 2.6,13.54 A 5.56,5.56 0 0 0 4.88,13.22 2.17,2.17 0 0 0 5.37,12.9 v 0 l -1.23,3.66 c -0.3,0 -2,0.51 -2,0.51 l 0.19,0.81 c 0,0 1.1,-0.32 1.52,-0.4 v 0.1 a 1.57,1.57 0 0 0 1,2 l 5.17,1.75 a 1.59,1.59 0 0 0 2,-1 L 12.1,20.1 11.35,19.85 Z"
       id="path14"
       style="fill:#000000;fill-opacity:1;stroke:#000000;stroke-opacity:1;stroke-linejoin:round;stroke-linecap:round" />
  </g>
  <g
     id="g876"
     style="stroke:#000000;stroke-opacity:1;stroke-width:0.2;stroke-dasharray:none;stroke-linejoin:round;stroke-linecap:round">
    <rect
       class="cls-4"
       x="14.69"
       y="16.309999"
       width="2.73"
       height="0.44"
       id="rect18"
       style="fill:#000000;fill-opacity:1;stroke:#000000;stroke-opacity:1;stroke-width:0.2;stroke-dasharray:none;stroke-linejoin:round;stroke-linecap:round" />
    <rect
       class="cls-4"
       x="14.69"
       y="17.370001"
       width="2.73"
       height="0.44"
       id="rect20"
       style="fill:#000000;fill-opacity:1;stroke:#000000;stroke-opacity:1;stroke-width:0.2;stroke-dasharray:none;stroke-linejoin:round;stroke-linecap:round" />
    <path
       class="cls-5"
       d="m 17.66,18.68 a 1.5,1.5 0 0 1 -0.52,-0.09 1.61,1.61 0 0 1 0,-3.06 1.5,1.5 0 0 1 0.52,-0.09 1.46,1.46 0 0 1 0.77,0.21 l 0.31,-1 a 2.44,2.44 0 0 0 -1.08,-0.24 2.74,2.74 0 0 0 -0.64,0.08 2.62,2.62 0 0 0 0,5.08 2.74,2.74 0 0 0 0.64,0.08 2.44,2.44 0 0 0 1.08,-0.24 l -0.31,-1 a 1.46,1.46 0 0 1 -0.77,0.27 z"
       id="path22"
       style="fill:#000000;fill-opacity:1;stroke:#000000;stroke-opacity:1;stroke-width:0.2;stroke-dasharray:none;stroke-linejoin:round;stroke-linecap:round" />
  </g>
</svg>
