<?xml version="1.0" encoding="UTF-8" standalone="no"?>
<svg
   viewBox="0 0 192 192"
   version="1.1"
   id="svg21"
   sodipodi:docname="scanner.svg"
   width="192"
   height="192"
   inkscape:version="1.2.1 (9c6d41e410, 2022-07-14)"
   xmlns:inkscape="http://www.inkscape.org/namespaces/inkscape"
   xmlns:sodipodi="http://sodipodi.sourceforge.net/DTD/sodipodi-0.dtd"
   xmlns="http://www.w3.org/2000/svg"
   xmlns:svg="http://www.w3.org/2000/svg">
  <defs
     id="defs25" />
  <sodipodi:namedview
     id="namedview23"
     pagecolor="#ffffff"
     bordercolor="#666666"
     borderopacity="1.0"
     inkscape:showpageshadow="2"
     inkscape:pageopacity="0.0"
     inkscape:pagecheckerboard="0"
     inkscape:deskcolor="#d1d1d1"
     showgrid="false"
     inkscape:zoom="2.5104167"
     inkscape:cx="96.199169"
     inkscape:cy="95.999999"
     inkscape:window-width="1366"
     inkscape:window-height="688"
     inkscape:window-x="0"
     inkscape:window-y="0"
     inkscape:window-maximized="1"
     inkscape:current-layer="svg21" />
  <path
     id="path12"
     d="m 23.013897,16.000004 a 7.1111107,7.1111107 0 0 0 -7.013893,7.013893 v 24.80903 a 2.7555554,2.7555554 0 0 0 2.760417,2.760408 h 1.597227 a 2.7555554,2.7555554 0 0 0 2.847218,-2.760408 V 27.458341 a 4.3555553,4.3555553 0 0 1 4.253475,-4.253475 h 20.364586 a 2.7555554,2.7555554 0 0 0 2.760408,-2.847218 v -1.597227 a 2.7555554,2.7555554 0 0 0 -2.760408,-2.760417 z m 121.163183,0 a 2.7555554,2.7555554 0 0 0 -2.76042,2.760417 v 1.597227 a 2.7555554,2.7555554 0 0 0 2.76042,2.847218 h 20.36459 a 4.3555553,4.3555553 0 0 1 4.25346,4.253475 v 20.364586 a 2.7555554,2.7555554 0 0 0 2.84723,2.760408 h 1.59722 A 2.7555554,2.7555554 0 0 0 176,47.822927 v -24.80903 a 7.1111107,7.1111107 0 0 0 -7.01389,-7.013893 z M 18.760421,141.41666 a 2.7555554,2.7555554 0 0 0 -2.760417,2.76042 v 24.80903 A 7.1111107,7.1111107 0 0 0 23.013897,176 h 24.80903 a 2.7555554,2.7555554 0 0 0 2.760408,-2.76042 v -1.59722 a 2.7555554,2.7555554 0 0 0 -2.760408,-2.84723 H 27.458341 a 4.3555553,4.3555553 0 0 1 -4.253475,-4.25346 v -20.36459 a 2.7555554,2.7555554 0 0 0 -2.847218,-2.76042 z m 152.881939,0 a 2.7555554,2.7555554 0 0 0 -2.84723,2.76042 v 20.36459 a 4.3555553,4.3555553 0 0 1 -4.25346,4.25346 h -20.36459 a 2.7555554,2.7555554 0 0 0 -2.76042,2.84723 v 1.59722 A 2.7555554,2.7555554 0 0 0 144.17708,176 h 24.80903 A 7.1111107,7.1111107 0 0 0 176,168.98611 v -24.80903 a 2.7555554,2.7555554 0 0 0 -2.76042,-2.76042 z"
     style="stroke-width:8.88888" />
  <rect
     style="fill:#000000;fill-rule:evenodd;stroke-width:84.4522;stroke-linecap:round;stroke-linejoin:round"
     id="rect923"
     width="9.375"
     height="94"
     x="47.562504"
     y="49"
     ry="0" />
  <rect
     style="fill:#000000;fill-rule:evenodd;stroke-width:59.7168;stroke-linecap:round;stroke-linejoin:round"
     id="rect973"
     width="4.6875"
     height="94"
     x="60.062504"
     y="49"
     ry="0" />
  <rect
     style="fill:#000000;fill-rule:evenodd;stroke-width:59.7168;stroke-linecap:round;stroke-linejoin:round"
     id="rect975"
     width="4.6875"
     height="94"
     x="71"
     y="49"
     ry="0" />
  <rect
     style="fill:#000000;fill-rule:evenodd;stroke-width:84.4522;stroke-linecap:round;stroke-linejoin:round"
     id="rect977"
     width="9.375"
     height="94"
     x="78.8125"
     y="49"
     ry="0" />
  <rect
     style="fill:#000000;fill-rule:evenodd;stroke-width:84.4522;stroke-linecap:round;stroke-linejoin:round"
     id="rect979"
     width="9.375"
     height="94"
     x="91.3125"
     y="49"
     ry="0" />
  <rect
     style="fill:#000000;fill-rule:evenodd;stroke-width:84.4522;stroke-linecap:round;stroke-linejoin:round"
     id="rect981"
     width="9.375"
     height="94"
     x="106.9375"
     y="49"
     ry="0" />
  <rect
     style="fill:#000000;fill-rule:evenodd;stroke-width:59.7168;stroke-linecap:round;stroke-linejoin:round"
     id="rect983"
     width="4.6875"
     height="94"
     x="119.4375"
     y="49"
     ry="0" />
  <rect
     style="fill:#000000;fill-rule:evenodd;stroke-width:59.7168;stroke-linecap:round;stroke-linejoin:round"
     id="rect985"
     width="4.6875"
     height="94"
     x="127.25"
     y="49"
     ry="0" />
  <rect
     style="fill:#000000;fill-rule:evenodd;stroke-width:84.4522;stroke-linecap:round;stroke-linejoin:round"
     id="rect989"
     width="9.375"
     height="94"
     x="138.1875"
     y="49"
     ry="0" />
</svg>
