<?xml version="1.0" encoding="UTF-8" standalone="no"?>
<svg
   width="192"
   height="192"
   viewBox="0 0 192 192"
   fill="none"
   version="1.1"
   id="svg14"
   sodipodi:docname="sd_maid.svg"
   inkscape:version="1.2.1 (9c6d41e410, 2022-07-14)"
   xmlns:inkscape="http://www.inkscape.org/namespaces/inkscape"
   xmlns:sodipodi="http://sodipodi.sourceforge.net/DTD/sodipodi-0.dtd"
   xmlns="http://www.w3.org/2000/svg"
   xmlns:svg="http://www.w3.org/2000/svg">
  <defs
     id="defs18" />
  <sodipodi:namedview
     id="namedview16"
     pagecolor="#ffffff"
     bordercolor="#666666"
     borderopacity="1.0"
     inkscape:showpageshadow="2"
     inkscape:pageopacity="0.0"
     inkscape:pagecheckerboard="0"
     inkscape:deskcolor="#d1d1d1"
     showgrid="false"
     inkscape:zoom="2.5104167"
     inkscape:cx="95.80083"
     inkscape:cy="96"
     inkscape:window-width="1366"
     inkscape:window-height="688"
     inkscape:window-x="0"
     inkscape:window-y="0"
     inkscape:window-maximized="1"
     inkscape:current-layer="svg14" />
  <path
     d="m 32.879349,105.91576 c 0,-35.396884 28.682459,-64.091726 64.064079,-64.091726 v 0 c 35.381812,0 64.064072,28.694842 64.064072,64.091726 v 54.97615 c 0,5.03412 -4.07972,9.1156 -9.11166,9.1156 H 41.990718 c -5.03204,0 -9.111369,-4.08148 -9.111369,-9.1156 z"
     stroke="#000000"
     stroke-width="11.985"
     stroke-linejoin="round"
     id="path2" />
  <path
     d="M 61.999384,51.534903 48.410034,26.286643"
     stroke="#000000"
     stroke-width="11.985"
     stroke-linecap="round"
     stroke-linejoin="round"
     id="path4" />
  <path
     d="m 131.88747,51.534903 13.58934,-25.24826"
     stroke="#000000"
     stroke-width="11.985"
     stroke-linecap="round"
     stroke-linejoin="round"
     id="path6" />
  <ellipse
     style="fill:#000000;fill-rule:evenodd;stroke-width:2.62199;stroke-linecap:round;stroke-linejoin:round"
     id="path853"
     cx="72.676727"
     cy="79.696419"
     rx="10.677347"
     ry="10.681956" />
  <ellipse
     style="fill:#000000;fill-rule:evenodd;stroke-width:2.62199;stroke-linecap:round;stroke-linejoin:round"
     id="circle1435"
     cx="121.21013"
     cy="79.696419"
     rx="10.677347"
     ry="10.681956" />
  <path
     id="path1707"
     style="fill:#000000;fill-rule:evenodd;stroke:#000000;stroke-width:2.76262;stroke-linecap:round;stroke-linejoin:round;stroke-opacity:1"
     inkscape:transform-center-x="-0.10943599"
     inkscape:transform-center-y="3.8924276"
     d="M 73.393357,17.381853 A 5.8245896,5.8271042 0 0 0 68.395934,20.35391 L 61.627801,32.409043 56.340316,41.820241 46.142614,41.679888 32.272682,41.492119 a 5.8245896,5.8271042 0 0 0 -5.156674,8.67909 l 6.771925,12.055134 6.77003,12.055134 a 5.8245896,5.8271042 0 0 0 10.074471,0.138455 l 7.099904,-11.865469 5.657173,-9.458614 10.392973,-0.140352 13.868037,-0.189666 a 5.8245896,5.8271042 0 0 0 4.919693,-8.817544 L 85.572205,32.080922 a 5.8245896,5.8271042 0 0 0 -0.0019,0 l -7.099899,-11.86547 a 5.8245896,5.8271042 0 0 0 -5.077049,-2.833599 z" />
  <path
     id="path951"
     style="fill:#000000;fill-rule:evenodd;stroke-width:24.6396;stroke-linecap:round;stroke-linejoin:round"
     d="m 154.90944,102.1343 c 0.0241,0.0918 0,0 0,0 -3.5e-4,4.60069 -27.4743,8.50256 -59.112565,8.50242 -30.080171,-0.008 -54.99425,-3.39779 -57.046875,-7.76172 -7.180378,2.9313 -11.645239,8.43856 -11.695312,14.42578 0.02546,6.92202 5.935043,13.11149 14.845703,15.54883 4.944342,6.81368 14.658268,11.08616 25.253906,11.10742 0.397671,-0.0142 0.794893,-0.0343 1.191406,-0.0606 6.464081,6.30617 16.634069,10.03191 27.451172,10.05664 10.817105,-0.0247 20.987095,-3.75047 27.451175,-10.05664 0.39716,0.0262 0.79504,0.0464 1.19336,0.0606 10.24872,-0.0198 19.70191,-4.01942 24.78906,-10.48828 10.3004,-1.78496 17.57714,-8.46903 17.60156,-16.16797 -0.007,-6.63157 -3.55615,-12.5256 -11.92259,-15.16648 z m -0.17702,9.4282 c 2.88141,1.84035 4.08664,4.08369 4.0957,5.72852 -0.0201,2.6738 -3.36382,6.97779 -10.96484,8.29492 -1.9471,0.33772 -3.70032,1.38409 -4.92187,2.9375 -3.0921,3.93237 -10.30146,7.39313 -18.45118,7.42773 -0.23602,-0.0104 -0.47175,-0.0213 -0.70703,-0.0371 -2.26885,-0.15235 -4.49534,0.66794 -6.12304,2.25586 -4.5856,4.47423 -12.87873,7.75583 -21.863285,7.78125 -8.984458,-0.0255 -17.279646,-3.30702 -21.865234,-7.78125 -1.627233,-1.5874 -3.852905,-2.40764 -6.121094,-2.25586 -0.233365,0.0157 -0.467063,0.0267 -0.701172,0.0371 -8.427998,-0.0356 -15.789149,-3.74202 -18.734375,-7.80078 -1.068918,-1.47281 -2.607997,-2.53722 -4.363281,-3.01758 -6.41904,-1.75599 -8.909766,-5.43076 -8.945313,-7.81836 0.03106,-1.48041 0.965492,-3.42613 3.333985,-5.16211 1.166462,0.51326 2.306454,1.04853 3.591797,1.43555 3.768411,1.13468 8.310083,1.9963 13.691406,2.72852 10.762643,1.46442 24.770315,2.31626 40.111328,2.32031 h 0.002 c 16.133185,0 30.718195,-0.93259 41.658205,-2.52344 5.46999,-0.79542 9.98037,-1.71206 13.72656,-3 1.23266,-0.42379 2.39094,-0.93396 3.55078,-1.55078 z"
     sodipodi:nodetypes="cccccccccccccccccccscccccccccssssssc" />
</svg>
