<?xml version="1.0" encoding="UTF-8" standalone="no"?>
<svg
   width="192"
   version="1.1"
   height="192"
   id="svg57"
   sodipodi:docname="sim.svg"
   inkscape:version="1.2.1 (9c6d41e410, 2022-07-14)"
   inkscape:export-filename="/home/smith/Загрузки/Android/Themes/Themes/Uranium/com.android.stk.StkLauncherActivityII.png"
   inkscape:export-xdpi="96"
   inkscape:export-ydpi="96"
   xmlns:inkscape="http://www.inkscape.org/namespaces/inkscape"
   xmlns:sodipodi="http://sodipodi.sourceforge.net/DTD/sodipodi-0.dtd"
   xmlns="http://www.w3.org/2000/svg"
   xmlns:svg="http://www.w3.org/2000/svg"
   xmlns:rdf="http://www.w3.org/1999/02/22-rdf-syntax-ns#"
   xmlns:cc="http://creativecommons.org/ns#"
   xmlns:dc="http://purl.org/dc/elements/1.1/">
  <sodipodi:namedview
     pagecolor="#ffffff"
     bordercolor="#666666"
     borderopacity="1"
     objecttolerance="10"
     gridtolerance="10"
     guidetolerance="10"
     inkscape:pageopacity="0"
     inkscape:pageshadow="2"
     inkscape:window-width="1366"
     inkscape:window-height="688"
     id="namedview59"
     showgrid="false"
     inkscape:current-layer="layer1"
     inkscape:snap-bbox="true"
     inkscape:bbox-paths="true"
     inkscape:bbox-nodes="true"
     inkscape:snap-bbox-edge-midpoints="true"
     inkscape:snap-bbox-midpoints="true"
     inkscape:object-paths="true"
     inkscape:snap-intersection-paths="true"
     inkscape:snap-smooth-nodes="true"
     inkscape:snap-midpoints="true"
     inkscape:snap-object-midpoints="true"
     inkscape:snap-center="true"
     inkscape:snap-text-baseline="true"
     inkscape:snap-page="true"
     inkscape:zoom="2.4499259"
     inkscape:cx="109.39106"
     inkscape:cy="95.921268"
     showguides="true"
     inkscape:guide-bbox="true"
     inkscape:document-rotation="0"
     inkscape:showpageshadow="2"
     inkscape:pagecheckerboard="0"
     inkscape:deskcolor="#d1d1d1"
     inkscape:window-x="0"
     inkscape:window-y="0"
     inkscape:window-maximized="1" />
  <defs
     id="defs5455">
    <filter
       style="color-interpolation-filters:sRGB;"
       inkscape:label="Drop Shadow"
       id="filter885"
       x="-0.03"
       y="-0.03"
       width="1.06"
       height="1.06625">
      <feFlood
         flood-opacity="1"
         flood-color="rgb(0,0,0)"
         result="flood"
         id="feFlood875" />
      <feComposite
         in="flood"
         in2="SourceGraphic"
         operator="in"
         result="composite1"
         id="feComposite877" />
      <feGaussianBlur
         in="composite1"
         stdDeviation="2"
         result="blur"
         id="feGaussianBlur879" />
      <feOffset
         dx="0"
         dy="1"
         result="offset"
         id="feOffset881" />
      <feComposite
         in="offset"
         in2="SourceGraphic"
         operator="out"
         result="composite2"
         id="feComposite883" />
    </filter>
  </defs>
  <metadata
     id="metadata5458">
    <rdf:RDF>
      <cc:Work
         rdf:about="">
        <dc:format>image/svg+xml</dc:format>
        <dc:type
           rdf:resource="http://purl.org/dc/dcmitype/StillImage" />
      </cc:Work>
    </rdf:RDF>
  </metadata>
  <g
     inkscape:label="Capa 1"
     inkscape:groupmode="layer"
     id="layer1"
     transform="translate(-376.57144,-363.79797)">
    <path
       id="path3629"
       style="fill:#000000;fill-opacity:1;stroke:#000000;stroke-width:7.84547;stroke-dasharray:none;stroke-opacity:1"
       d="m 429.07776,383.7207 c -18.02042,0 -32.58359,14.56318 -32.58359,32.58359 v 86.98551 c 0,18.02042 14.56317,32.58544 32.58359,32.58544 h 86.9855 c 18.02041,0 32.58545,-14.56502 32.58545,-32.58544 v -86.98551 c 0,-18.02041 -14.56504,-32.58359 -32.58545,-32.58359 z m 0,3.711 H 471.249 v 47.26225 H 452.512 L 441.95293,424.1349 a 0.47553045,0.47553045 0 0 0 -0.33617,-0.13931 h -41.41159 v -7.6913 c 0,-16.02866 12.84393,-28.87259 28.87259,-28.87259 z m 44.81241,0 h 42.17309 c 16.02867,0 28.87445,12.84393 28.87445,28.87259 v 7.6913 h -41.40416 a 0.47553045,0.47553045 0 0 0 -0.33618,0.13931 l -10.80981,10.80979 a 0.47553045,0.47553045 0 0 0 -0.11144,0.49407 0.47553045,0.47553045 0 0 0 -0.0279,0.15787 v 49.02303 h -39.34616 v -47.26597 h 20.51262 a 0.47553045,0.47553045 0 0 0 0.47549,-0.47548 v -1.28158 -0.42719 z m -73.685,39.22363 h 40.50891 l 9.52824,9.52823 v 23.47325 h -50.03715 z m 104.23105,0 h 40.50149 v 33.00148 h -50.02972 v -23.47325 z m -104.23105,35.66121 h 50.03715 v 23.47326 l -9.52824,9.52822 h -40.50891 z m 94.70282,0 h 50.02972 v 33.00148 h -40.50149 l -9.52823,-9.52822 z M 452.512,487.2794 h 18.737 v 44.88484 h -42.17124 c -16.02867,0 -28.87259,-12.84577 -28.87259,-28.87444 v -5.31204 h 41.41159 a 0.47553045,0.47553045 0 0 0 0.33617,-0.1393 z m 21.37817,0 h 18.74813 l 10.55907,10.55906 a 0.47553045,0.47553045 0 0 0 0.33618,0.1393 h 41.40416 v 5.31204 c 0,16.02867 -12.84578,28.87444 -28.87445,28.87444 h -42.17309 z" />
  </g>
</svg>
