<?xml version="1.0" encoding="UTF-8" standalone="no"?>
<svg
   width="192"
   height="192"
   viewBox="0 0 192 192"
   fill="none"
   version="1.1"
   id="svg4"
   sodipodi:docname="spotify.svg"
   inkscape:version="1.2.1 (9c6d41e410, 2022-07-14)"
   xmlns:inkscape="http://www.inkscape.org/namespaces/inkscape"
   xmlns:sodipodi="http://sodipodi.sourceforge.net/DTD/sodipodi-0.dtd"
   xmlns="http://www.w3.org/2000/svg"
   xmlns:svg="http://www.w3.org/2000/svg">
  <defs
     id="defs8" />
  <sodipodi:namedview
     id="namedview6"
     pagecolor="#ffffff"
     bordercolor="#000000"
     borderopacity="0.25"
     inkscape:showpageshadow="2"
     inkscape:pageopacity="0.0"
     inkscape:pagecheckerboard="0"
     inkscape:deskcolor="#d1d1d1"
     showgrid="false"
     inkscape:zoom="3.145318"
     inkscape:cx="77.098723"
     inkscape:cy="106.66648"
     inkscape:window-width="1350"
     inkscape:window-height="721"
     inkscape:window-x="0"
     inkscape:window-y="0"
     inkscape:window-maximized="1"
     inkscape:current-layer="svg4" />
  <path
     d="m 38.738852,65.27779 c -2.590953,0.707839 -4.117513,3.381953 -3.409673,5.972906 0.707839,2.590952 3.382034,4.117512 5.972906,3.409673 z m 4.624664,27.811447 c -2.574337,0.765873 -4.040431,3.473624 -3.274558,6.048042 0.765874,2.574171 3.473625,4.040431 6.047962,3.274481 z m 4.587622,27.938053 c -2.546373,0.8543 -3.91804,3.61093 -3.063656,6.15763 0.854303,2.54588 3.611091,3.91812 6.157464,3.06381 z m 85.874052,16.20257 c 2.36514,1.27335 5.31386,0.38825 6.58802,-1.97608 1.27335,-2.36514 0.38824,-5.31467 -1.97608,-6.58802 z m 11.99347,-25.44428 c 2.38378,1.23769 5.31953,0.30881 6.55722,-2.07497 1.23768,-2.38378 0.30881,-5.31953 -2.07497,-6.55722 z m 11.96186,-25.437878 c 2.39594,1.214342 5.32278,0.256615 6.53696,-2.139162 1.21418,-2.395695 0.25612,-5.322128 -2.139,-6.53647 z M 41.302085,74.660369 C 55.000109,70.918133 69.445932,68.915628 84.377994,68.915628 V 59.18922 c -15.804926,0 -31.11259,2.119952 -45.639142,6.08857 z m 4.834835,27.751391 c 12.092762,-3.597316 24.931053,-5.534168 38.241074,-5.534168 v -9.726408 c -14.257698,0 -28.029886,2.075291 -41.014478,5.938053 z m 4.908026,27.83697 c 10.444703,-3.50474 21.656009,-5.4095 33.333048,-5.4095 v -9.72641 c -12.740378,0 -24.996057,2.07902 -36.426856,5.91447 z m 33.333048,-5.4095 c 17.940116,0 34.787876,4.49603 49.447196,12.39063 l 4.61194,-8.5641 c -16.04777,-8.64191 -34.47688,-13.55294 -54.059136,-13.55294 z m 0,-27.961638 c 22.211626,0 43.118546,5.393938 61.440666,14.907988 l 4.48225,-8.63219 C 130.62115,92.934668 108.17989,87.151184 84.377994,87.151184 Z m 0,-27.961964 c 26.475846,0 51.431376,6.295661 73.402526,17.432074 l 4.39796,-8.675632 C 138.86995,65.857889 112.41007,59.18922 84.377994,59.18922 Z"
     fill="#000000"
     id="path2"
     style="stroke-width:12.711;stroke-dasharray:none" />
  <circle
     style="fill:none;fill-opacity:0;stroke:#000000;stroke-width:12.096;stroke-linecap:round;stroke-linejoin:round;stroke-dasharray:none"
     id="path439"
     cx="96"
     cy="96"
     r="80.81926" />
</svg>
