<?xml version="1.0" encoding="UTF-8" standalone="no"?>
<svg
   id="Layer_1"
   data-name="Layer 1"
   viewBox="0 0 192 192"
   version="1.1"
   sodipodi:docname="strelka.svg"
   inkscape:version="1.2.1 (9c6d41e410, 2022-07-14)"
   xmlns:inkscape="http://www.inkscape.org/namespaces/inkscape"
   xmlns:sodipodi="http://sodipodi.sourceforge.net/DTD/sodipodi-0.dtd"
   xmlns="http://www.w3.org/2000/svg"
   xmlns:svg="http://www.w3.org/2000/svg">
  <sodipodi:namedview
     id="namedview21"
     pagecolor="#ffffff"
     bordercolor="#666666"
     borderopacity="1.0"
     inkscape:showpageshadow="2"
     inkscape:pageopacity="0.0"
     inkscape:pagecheckerboard="0"
     inkscape:deskcolor="#d1d1d1"
     showgrid="false"
     inkscape:zoom="2.5104167"
     inkscape:cx="96.199169"
     inkscape:cy="95.999999"
     inkscape:window-width="1366"
     inkscape:window-height="688"
     inkscape:window-x="0"
     inkscape:window-y="0"
     inkscape:window-maximized="1"
     inkscape:current-layer="Layer_1" />
  <defs
     id="defs4">
    <style
       id="style2">.cls-1,.cls-2{fill-rule:evenodd;}.cls-2{fill:none;stroke:#000;stroke-miterlimit:10;stroke-width:12px;}</style>
  </defs>
  <path
     id="rect802"
     style="fill:#000000;fill-rule:evenodd;stroke:none;stroke-width:8.0897;stroke-linecap:round;stroke-linejoin:round"
     d="M 33.613281 46 C 23.855095 46 16 53.855095 16 63.613281 L 16 128.38672 C 16 138.14491 23.855095 146 33.613281 146 L 158.38672 146 C 168.14491 146 176 138.14491 176 128.38672 L 176 63.613281 C 176 53.855095 168.14491 46 158.38672 46 L 33.613281 46 z M 35.304688 58 L 156.69531 58 C 160.74238 58 164 61.257625 164 65.304688 L 164 126.69531 C 164 130.74238 160.74238 134 156.69531 134 L 35.304688 134 C 31.257625 134 28 130.74238 28 126.69531 L 28 65.304688 C 28 61.257625 31.257625 58 35.304688 58 z " />
  <rect
     style="fill:#000000;fill-rule:evenodd;stroke:none;stroke-width:10.3519;stroke-linecap:round;stroke-linejoin:round"
     id="rect1071"
     width="50"
     height="40"
     x="34"
     y="76"
     ry="4.8000002" />
  <path
     id="path1125"
     style="fill:#000000;fill-rule:evenodd;stroke:none;stroke-width:7.03992;stroke-linecap:round;stroke-linejoin:round"
     d="M 123.78906 62.5 A 33.5 33.5 0 0 0 90.289062 96 A 33.5 33.5 0 0 0 123.78906 129.5 A 33.5 33.5 0 0 0 157.28906 96 A 33.5 33.5 0 0 0 123.78906 62.5 z M 123.78906 74.5 A 21.5 21.5 0 0 1 145.28906 96 A 21.5 21.5 0 0 1 123.78906 117.5 A 21.5 21.5 0 0 1 102.28906 96 A 21.5 21.5 0 0 1 123.78906 74.5 z " />
  <circle
     style="fill:#000000;fill-rule:evenodd;stroke:none;stroke-width:1.9964;stroke-linecap:round;stroke-linejoin:round"
     id="circle1127"
     cx="123.78906"
     cy="96"
     r="9.5" />
</svg>
