<?xml version="1.0" encoding="UTF-8" standalone="no"?>
<svg
   height="192"
   id="svg7384"
   version="1.1"
   width="192"
   sodipodi:docname="vpn_hood.svg"
   inkscape:version="1.2.1 (9c6d41e410, 2022-07-14)"
   xmlns:inkscape="http://www.inkscape.org/namespaces/inkscape"
   xmlns:sodipodi="http://sodipodi.sourceforge.net/DTD/sodipodi-0.dtd"
   xmlns="http://www.w3.org/2000/svg"
   xmlns:svg="http://www.w3.org/2000/svg"
   xmlns:rdf="http://www.w3.org/1999/02/22-rdf-syntax-ns#"
   xmlns:cc="http://creativecommons.org/ns#"
   xmlns:dc="http://purl.org/dc/elements/1.1/">
  <sodipodi:namedview
     pagecolor="#ffffff"
     bordercolor="#666666"
     borderopacity="1"
     objecttolerance="10"
     gridtolerance="10"
     guidetolerance="10"
     inkscape:pageopacity="0"
     inkscape:pageshadow="2"
     inkscape:window-width="1366"
     inkscape:window-height="688"
     id="namedview13"
     showgrid="false"
     inkscape:zoom="2.5104167"
     inkscape:cx="95.80083"
     inkscape:cy="96"
     inkscape:current-layer="svg7384"
     inkscape:document-rotation="0"
     inkscape:showpageshadow="2"
     inkscape:pagecheckerboard="0"
     inkscape:deskcolor="#d1d1d1"
     inkscape:window-x="0"
     inkscape:window-y="0"
     inkscape:window-maximized="1" />
  <metadata
     id="metadata20854">
    <rdf:RDF>
      <cc:Work
         rdf:about="">
        <dc:format>image/svg+xml</dc:format>
        <dc:type
           rdf:resource="http://purl.org/dc/dcmitype/StillImage" />
      </cc:Work>
    </rdf:RDF>
  </metadata>
  <defs
     id="defs7386">
    <rect
       x="-43.759855"
       y="71.825726"
       width="203.75985"
       height="89.99222"
       id="rect901" />
    <linearGradient
       id="linearGradient5606"
       inkscape:swatch="solid">
      <stop
         id="stop5608"
         offset="0"
         style="stop-color:#000000;stop-opacity:1;" />
    </linearGradient>
    <linearGradient
       id="linearGradient4526"
       inkscape:swatch="solid">
      <stop
         id="stop4528"
         offset="0"
         style="stop-color:#ffffff;stop-opacity:1;" />
    </linearGradient>
  </defs>
  <path
     id="path5451"
     style="color:#000000;display:inline;overflow:visible;visibility:visible;opacity:1;fill:#000000;fill-opacity:1;fill-rule:nonzero;stroke:none;stroke-width:84.4043;marker:none;enable-background:accumulate"
     d="M 96,16 C 96,16 78.545067,44.583333 32,44.583333 32,141.7344 96,176 96,176 96,176 160,141.7344 160,44.583333 113.45493,44.583333 96,16 96,16 Z m 0,14.479167 c 2.898133,3.255824 2.74112,4.368167 8.33333,8.291666 9.72139,6.820962 25.19375,12.407962 44.29167,14.5 -1.8512,41.152228 -15.34516,69.325847 -29.125,87.166667 -10.46923,13.555 -18.55963,19.58787 -23.5,22.875 -4.940373,-3.28713 -13.030453,-9.32 -23.5,-22.875 C 58.72048,122.59668 45.226201,94.423061 43.374999,53.270833 62.472922,51.178795 77.94528,45.591795 87.666667,38.770833 93.26208,34.845039 93.10176,33.735826 96,30.479167 Z" />
  <path
     id="path905"
     style="font-size:40px;-inkscape-font-specification:'Droid Sans';white-space:pre;stroke:#000000;stroke-width:4.2832;stroke-linecap:round;stroke-linejoin:round;stroke-dasharray:none;stroke-opacity:1"
     d="m 54.141518,66.6416 10.138608,30.7168 h 3.893059 L 78.35343,66.6416 h -4.122062 l -6.09982,19.350324 c -0.430248,1.358646 -0.804982,2.633266 -1.124199,3.823836 -0.319216,1.17658 -0.582917,2.28311 -0.791103,3.3196 -0.235941,-1.03649 -0.499644,-2.14302 -0.791102,-3.3196 C 65.133685,88.62519 64.78671,87.3926 64.384218,86.11798 L 58.242763,66.6416 Z m 28.354794,0 v 30.7168 h 3.87224 V 85.403641 h 3.122775 c 2.109605,0 3.879181,-0.266129 5.308716,-0.798385 1.443417,-0.546262 2.602317,-1.267612 3.476687,-2.164043 0.87438,-0.910438 1.49894,-1.953943 1.87367,-3.130509 0.38861,-1.176566 0.58292,-2.402159 0.58292,-3.676771 0,-1.428687 -0.20819,-2.703304 -0.62456,-3.823843 -0.41636,-1.120538 -1.06174,-2.058992 -1.93611,-2.815357 -0.87439,-0.77037 -1.98471,-1.351651 -3.330969,-1.74384 C 93.49542,66.844698 91.892392,66.6416 90.032607,66.6416 Z m 24.565828,0 v 30.7168 h 3.58079 V 80.697373 c 0,-0.798384 -0.0208,-1.694818 -0.0625,-2.689296 -0.0278,-0.994479 -0.0694,-1.946939 -0.12491,-2.857377 -0.0555,-1.064512 -0.12492,-2.13603 -0.20819,-3.214548 h 0.16655 l 14.9685,25.422248 h 4.47598 V 66.6416 h -3.62242 v 16.8081 1.197576 c 0.0139,0.434209 0.0278,0.88943 0.0417,1.365654 0.0278,0.46223 0.0486,0.93145 0.0625,1.40769 0.0278,0.46221 0.0486,0.91743 0.0625,1.36565 0.0555,1.03649 0.10409,2.087 0.14573,3.15152 h -0.14573 L 111.49648,66.6416 Z m -20.693588,3.340609 h 3.33096 c 2.414944,0 4.191459,0.483235 5.329535,1.449699 1.138073,0.952457 1.707113,2.42317 1.707113,4.412126 0,1.134545 -0.1596,2.101013 -0.47882,2.899398 -0.319218,0.784377 -0.798044,1.428688 -1.436478,1.932931 -0.624554,0.490235 -1.422597,0.847408 -2.394127,1.071516 -0.957649,0.224107 -2.081851,0.336161 -3.372596,0.336161 h -2.685587 z" />
</svg>
