<?xml version="1.0" encoding="UTF-8" standalone="no"?>
<svg
   height="192"
   id="svg7384"
   version="1.1"
   width="192"
   sodipodi:docname="vpn_hood.svg"
   inkscape:version="1.2.1 (9c6d41e410, 2022-07-14)"
   xml:space="preserve"
   xmlns:inkscape="http://www.inkscape.org/namespaces/inkscape"
   xmlns:sodipodi="http://sodipodi.sourceforge.net/DTD/sodipodi-0.dtd"
   xmlns="http://www.w3.org/2000/svg"
   xmlns:svg="http://www.w3.org/2000/svg"
   xmlns:rdf="http://www.w3.org/1999/02/22-rdf-syntax-ns#"
   xmlns:cc="http://creativecommons.org/ns#"
   xmlns:dc="http://purl.org/dc/elements/1.1/"><sodipodi:namedview
     pagecolor="#ffffff"
     bordercolor="#666666"
     borderopacity="1"
     objecttolerance="10"
     gridtolerance="10"
     guidetolerance="10"
     inkscape:pageopacity="0"
     inkscape:pageshadow="2"
     inkscape:window-width="1350"
     inkscape:window-height="721"
     id="namedview13"
     showgrid="false"
     inkscape:zoom="1.9475032"
     inkscape:cx="56.482577"
     inkscape:cy="114.76233"
     inkscape:current-layer="svg7384"
     inkscape:document-rotation="0"
     inkscape:showpageshadow="2"
     inkscape:pagecheckerboard="0"
     inkscape:deskcolor="#d1d1d1"
     inkscape:window-x="0"
     inkscape:window-y="0"
     inkscape:window-maximized="1" /><metadata
     id="metadata20854"><rdf:RDF><cc:Work
         rdf:about=""><dc:format>image/svg+xml</dc:format><dc:type
           rdf:resource="http://purl.org/dc/dcmitype/StillImage" /></cc:Work></rdf:RDF></metadata><defs
     id="defs7386"><rect
       x="-43.759855"
       y="71.825726"
       width="203.75985"
       height="89.99222"
       id="rect901" /><linearGradient
       id="linearGradient5606"
       inkscape:swatch="solid"><stop
         id="stop5608"
         offset="0"
         style="stop-color:#000000;stop-opacity:1;" /></linearGradient><linearGradient
       id="linearGradient4526"
       inkscape:swatch="solid"><stop
         id="stop4528"
         offset="0"
         style="stop-color:#ffffff;stop-opacity:1;" /></linearGradient></defs><path
     style="fill:none;stroke:#000000;stroke-width:8;stroke-linecap:round;stroke-linejoin:round;stroke-dasharray:none;stroke-opacity:1"
     d="m 118.05065,155.9963 -1.3082,-1.46127 2.57531,-2.47241 c 6.44284,-6.18537 16.41186,-13.0726 28.77862,-19.88207 1.77496,-0.97735 3.26424,-1.80992 3.30951,-1.85017 0.33983,-0.30218 -10.72296,-23.04091 -13.91805,-28.6075 -12.57625,-21.910744 -23.47566,-28.208489 -33.85819,-19.563478 -1.84453,1.535848 -5.0103,5.321773 -6.6674,7.973501 -0.44896,0.718438 -0.91829,1.302686 -1.04295,1.298324 -0.12466,-0.0044 -0.71074,-0.724542 -1.30239,-1.600407 -1.68773,-2.498453 -6.3206,-7.168738 -8.64261,-8.712408 -3.13336,-2.083056 -5.09164,-2.710183 -8.4155,-2.694999 -2.08794,0.0095 -3.19164,0.177385 -4.50144,0.684577 -8.81007,3.411523 -17.23814,15.103955 -26.83357,37.22678 -2.72552,6.28386 -5.79371,13.84533 -5.66012,13.94924 0.062,0.0482 2.6023,1.37345 5.6451,2.94494 11.50124,5.93994 21.46259,12.73686 27.1137,18.50047 l 1.91073,1.94877 -1.56053,1.77701 -1.56053,1.77701 -2.50167,-2.39611 c -10.88345,-10.42417 -25.13216,-16.0363 -42.8418,-16.87408 -3.74842,-0.17732 -4.37978,-0.27901 -4.37978,-0.70543 0,-1.02652 1.85795,-8.03073 3.38925,-12.77696 C 30.42727,110.06969 38.08742,94.352728 47.12437,80.681789 60.6078,60.284286 77.12116,44.230019 93.08732,35.996654 l 2.91267,-1.501999 3.22721,1.756897 c 17.22895,9.379454 33.93082,26.448245 47.73973,48.78847 7.66449,12.399713 14.66628,27.217668 19.21697,40.669018 1.18061,3.48979 3.42721,11.17626 3.42721,11.72582 0,0.3098 -0.56342,0.4147 -2.22832,0.4149 -6.52985,6.1e-4 -16.01712,1.56821 -22.43861,3.70724 -8.1498,2.71474 -16.38395,7.65106 -22.38951,13.42235 -1.45414,1.39742 -2.76807,2.52668 -2.91986,2.50949 -0.15178,-0.0172 -0.86465,-0.68884 -1.58416,-1.49254 z M 73.47153,123.39708 c -4.54374,-1.19038 -8.64444,-4.19091 -9.73868,-7.12589 -1.00193,-2.68738 0.0278,-4.79409 2.98466,-6.10614 1.37359,-0.60951 2.11275,-0.71713 4.8479,-0.70585 2.69119,0.0111 3.63513,0.15304 5.68309,0.85457 7.81824,2.67813 11.55471,8.4234 7.68683,11.81944 -2.15976,1.8963 -7.00911,2.43093 -11.4638,1.26387 z m 35.14772,0.16291 c -2.36958,-0.84412 -4.17269,-2.82972 -4.16029,-4.58133 0.0163,-2.29852 2.82707,-5.72892 6.0198,-7.3468 5.72955,-2.90338 12.8682,-2.98324 15.73943,-0.17608 1.34154,1.31161 1.6669,2.67403 1.09693,4.59335 -0.90084,3.03344 -5.462,6.36313 -10.26142,7.49093 -2.48321,0.58352 -6.82358,0.59378 -8.43444,0.0199 z"
     id="path907" /></svg>
