<?xml version="1.0" encoding="UTF-8" standalone="no"?>
<svg
   inkscape:export-ydpi="96"
   inkscape:export-xdpi="96"
   inkscape:export-filename="/home/smith/Загрузки/Android/Themes/Themes/Uranium/com.android.thememanager.png"
   inkscape:version="1.2.1 (9c6d41e410, 2022-07-14)"
   sodipodi:docname="wallpaper_style.svg"
   id="svg121"
   version="1.1"
   viewBox="0 0 192 192"
   height="192"
   width="192"
   xmlns:inkscape="http://www.inkscape.org/namespaces/inkscape"
   xmlns:sodipodi="http://sodipodi.sourceforge.net/DTD/sodipodi-0.dtd"
   xmlns="http://www.w3.org/2000/svg"
   xmlns:svg="http://www.w3.org/2000/svg"
   xmlns:rdf="http://www.w3.org/1999/02/22-rdf-syntax-ns#"
   xmlns:cc="http://creativecommons.org/ns#"
   xmlns:dc="http://purl.org/dc/elements/1.1/">
  <metadata
     id="metadata125">
    <rdf:RDF>
      <cc:Work
         rdf:about="">
        <dc:format>image/svg+xml</dc:format>
        <dc:type
           rdf:resource="http://purl.org/dc/dcmitype/StillImage" />
      </cc:Work>
    </rdf:RDF>
  </metadata>
  <sodipodi:namedview
     inkscape:current-layer="svg121"
     inkscape:cy="96"
     inkscape:cx="95.80083"
     inkscape:zoom="2.5104167"
     showgrid="false"
     id="namedview123"
     inkscape:window-height="688"
     inkscape:window-width="1366"
     inkscape:pageshadow="2"
     inkscape:pageopacity="0"
     guidetolerance="10"
     gridtolerance="10"
     objecttolerance="10"
     borderopacity="1"
     inkscape:document-rotation="0"
     bordercolor="#666666"
     pagecolor="#ffffff"
     inkscape:showpageshadow="2"
     inkscape:pagecheckerboard="0"
     inkscape:deskcolor="#d1d1d1"
     inkscape:window-x="0"
     inkscape:window-y="0"
     inkscape:window-maximized="1" />
  <defs
     id="defs91">
    <linearGradient
       gradientUnits="userSpaceOnUse"
       gradientTransform="scale(0.77129653,1.2965182)"
       y2="72.092407"
       y1="5.5907011"
       x2="60.40419"
       x1="73.963478"
       id="deepin-draw-d">
      <stop
         id="stop35"
         stop-color="#0082FF"
         offset="0%" />
      <stop
         id="stop37"
         stop-color="#53A0FD"
         offset="47.525%" />
      <stop
         id="stop39"
         stop-color="#68FFAD"
         offset="100%" />
    </linearGradient>
    <linearGradient
       gradientUnits="userSpaceOnUse"
       gradientTransform="scale(0.72523231,1.3788685)"
       y2="57.8955"
       y1="7.3064718"
       x2="90.474342"
       x1="82.803726"
       id="deepin-draw-e">
      <stop
         id="stop42"
         stop-color="#BC6FFF"
         offset="0%" />
      <stop
         id="stop44"
         stop-color="#3EFF90"
         offset="100%" />
    </linearGradient>
    <linearGradient
       gradientUnits="userSpaceOnUse"
       gradientTransform="scale(0.75624172,1.3223285)"
       y2="70.876137"
       y1="20.989935"
       x2="71.29631"
       x1="90.712852"
       id="deepin-draw-f">
      <stop
         id="stop47"
         stop-color="#D10BFF"
         offset="0%" />
      <stop
         id="stop49"
         stop-color="#FFEE28"
         offset="100%" />
    </linearGradient>
    <linearGradient
       gradientUnits="userSpaceOnUse"
       gradientTransform="scale(0.99930143,1.0006991)"
       y2="59.591129"
       y1="26.886307"
       x2="49.781918"
       x1="98.74437"
       id="deepin-draw-g">
      <stop
         id="stop52"
         stop-color="#FF035B"
         offset="0%" />
      <stop
         id="stop54"
         stop-color="#FFC800"
         offset="100%" />
    </linearGradient>
    <linearGradient
       gradientUnits="userSpaceOnUse"
       gradientTransform="scale(1.6273828,0.61448358)"
       y2="45.186455"
       y1="43.227684"
       x2="39.012806"
       x1="64.310699"
       id="deepin-draw-h">
      <stop
         id="stop57"
         stop-color="#E06C00"
         offset="0%" />
      <stop
         id="stop59"
         stop-color="#FFFF46"
         offset="100%" />
    </linearGradient>
    <linearGradient
       gradientUnits="userSpaceOnUse"
       gradientTransform="scale(0.77129697,1.2965175)"
       y2="41.80941"
       y1="89.17672"
       x2="51.546772"
       x1="82.363037"
       id="deepin-draw-i">
      <stop
         id="stop62"
         stop-color="#FFD900"
         offset="0%" />
      <stop
         id="stop64"
         stop-color="#FFD800"
         offset="14.463%" />
      <stop
         id="stop66"
         stop-color="#CE4F02"
         offset="25.088%" />
      <stop
         id="stop68"
         stop-color="#D30079"
         offset="33.457%" />
      <stop
         id="stop70"
         stop-color="#53A0FD"
         offset="53.45%" />
      <stop
         id="stop72"
         stop-color="#0064A2"
         offset="100%" />
    </linearGradient>
    <linearGradient
       gradientUnits="userSpaceOnUse"
       gradientTransform="scale(0.57356304,1.7434875)"
       y2="67.009804"
       y1="67.009804"
       x2="220.96722"
       x1="156.25233"
       id="deepin-draw-j">
      <stop
         id="stop75"
         stop-color="#FFF"
         offset="0%" />
      <stop
         id="stop77"
         stop-color="#EDEDED"
         offset="100%" />
    </linearGradient>
    <linearGradient
       gradientUnits="userSpaceOnUse"
       gradientTransform="scale(0.57356304,1.7434875)"
       y2="67.009804"
       y1="67.009804"
       x2="221.82823"
       x1="105.60283"
       id="deepin-draw-l">
      <stop
         id="stop80"
         stop-color="#828282"
         offset="0%" />
      <stop
         id="stop82"
         stop-color="#353535"
         offset="100%" />
    </linearGradient>
    <path
       inkscape:connector-curvature="0"
       d="m 118.22444,93.002506 c 2.40168,-0.0073 4.51201,1.591479 5.15497,3.9055 l 3.65704,13.161604 c 0.78856,2.838 -0.87285,5.77791 -3.71085,6.56647 -0.46494,0.12918 -0.94526,0.19467 -1.42781,0.19467 H 94.9539 c -2.945518,0 -5.333333,-2.38781 -5.333333,-5.33333 0,-0.44483 0.05565,-0.88791 0.165658,-1.31893 l 3.343621,-13.100605 c 0.601296,-2.355932 2.71992,-4.006944 5.151364,-4.014381 z m -0.89602,-63.835839 v 58.666666 h -16 V 29.166667 Z M 111.99508,2.5 c 2.94552,0 5.33334,2.3878147 5.33334,5.3333333 v 0 15.9999997 h -16 V 7.8333333 C 101.32842,4.8878147 103.71623,2.5 106.66175,2.5 v 0 z"
       id="deepin-draw-k" />
    <linearGradient
       gradientUnits="userSpaceOnUse"
       gradientTransform="matrix(0.55681795,0,0,0.83964355,244.71795,11.272479)"
       y2="90.151794"
       y1="76.430931"
       x2="126.34122"
       x1="110.26191"
       id="deepin-draw-m">
      <stop
         id="stop86"
         stop-color="#686868"
         offset="0%" />
      <stop
         id="stop88"
         offset="100%" />
    </linearGradient>
    <filter
       id="filter1185"
       inkscape:label="Drop Shadow"
       style="color-interpolation-filters:sRGB;"
       x="-0.086050547"
       y="-0.056277876"
       width="1.1721011"
       height="1.159454">
      <feFlood
         id="feFlood1175"
         result="flood"
         flood-color="rgb(0,0,0)"
         flood-opacity="0.54902" />
      <feComposite
         id="feComposite1177"
         result="composite1"
         operator="in"
         in2="SourceGraphic"
         in="flood" />
      <feGaussianBlur
         id="feGaussianBlur1179"
         result="blur"
         stdDeviation="3"
         in="composite1" />
      <feOffset
         id="feOffset1181"
         result="offset"
         dy="6"
         dx="0" />
      <feComposite
         id="feComposite1183"
         result="composite2"
         operator="out"
         in2="SourceGraphic"
         in="offset" />
    </filter>
    <clipPath
       clipPathUnits="userSpaceOnUse"
       id="clipPath987">
      <path
         inkscape:connector-curvature="0"
         style="fill:none;fill-opacity:1;fill-rule:evenodd;stroke-width:0.683761"
         id="path989"
         d="m 95.999997,16 c 10.492863,0 6.184433,21.318196 18.918753,21.166749 13.99285,-0.166415 27.50179,1.592582 43.24348,14.871556 11.9392,10.071369 17.83776,29.430712 17.83776,43.961692 0,44.182783 -35.81721,79.999993 -79.999993,79.999993 C 51.817219,175.99999 16,140.18278 16,95.999997 16,51.817219 51.817219,16 95.999997,16 Z M 72.57096,42.548604 c -3.899868,6.754768 -2.269991,14.996873 3.64043,18.409257 5.910419,3.412383 13.863233,0.702846 17.763099,-6.051922 C 97.874355,48.151171 96.24448,39.909066 90.334064,36.496683 84.423635,33.084299 76.470826,35.793837 72.57096,42.548604 Z"
         fill="url(#deepin-draw-b)" />
    </clipPath>
    <filter
       style="color-interpolation-filters:sRGB;"
       inkscape:label="Drop Shadow"
       id="filter910"
       x="-0.030000002"
       y="-0.030000002"
       width="1.06"
       height="1.06625">
      <feFlood
         flood-opacity="1"
         flood-color="rgb(0,0,0)"
         result="flood"
         id="feFlood900" />
      <feComposite
         in="flood"
         in2="SourceGraphic"
         operator="in"
         result="composite1"
         id="feComposite902" />
      <feGaussianBlur
         in="composite1"
         stdDeviation="2"
         result="blur"
         id="feGaussianBlur904" />
      <feOffset
         dx="0"
         dy="1"
         result="offset"
         id="feOffset906" />
      <feComposite
         in="offset"
         in2="SourceGraphic"
         operator="out"
         result="composite2"
         id="feComposite908" />
    </filter>
  </defs>
  <path
     id="path93"
     style="color:#000000;font-style:normal;font-variant:normal;font-weight:normal;font-stretch:normal;font-size:medium;line-height:normal;font-family:sans-serif;font-variant-ligatures:normal;font-variant-position:normal;font-variant-caps:normal;font-variant-numeric:normal;font-variant-alternates:normal;font-variant-east-asian:normal;font-feature-settings:normal;font-variation-settings:normal;text-indent:0;text-align:start;text-decoration:none;text-decoration-line:none;text-decoration-style:solid;text-decoration-color:#000000;letter-spacing:normal;word-spacing:normal;text-transform:none;writing-mode:lr-tb;direction:ltr;text-orientation:mixed;dominant-baseline:auto;baseline-shift:baseline;text-anchor:start;white-space:normal;shape-padding:0;shape-margin:0;inline-size:0;clip-rule:nonzero;display:inline;overflow:visible;visibility:visible;opacity:1;isolation:auto;mix-blend-mode:normal;color-interpolation:sRGB;color-interpolation-filters:linearRGB;solid-color:#000000;solid-opacity:1;fill:#000000;fill-opacity:1;fill-rule:evenodd;stroke:#000000;stroke-width:7.61904;stroke-linecap:round;stroke-linejoin:round;stroke-miterlimit:4;stroke-dasharray:none;stroke-dashoffset:0;stroke-opacity:1;color-rendering:auto;image-rendering:auto;shape-rendering:auto;text-rendering:auto;enable-background:accumulate;stop-color:#000000;stop-opacity:1"
     d="m 96,19.809524 c -42.078838,0 -76.190476,34.111641 -76.190476,76.190477 0,42.078839 34.111638,76.190479 76.190476,76.190479 42.07883,0 76.19048,-34.11164 76.19048,-76.190479 0,-13.839028 -5.6178,-32.275778 -16.98848,-41.867561 C 140.20992,41.4858 127.34364,39.809144 114.01711,39.967635 101.88919,40.11187 105.9932,19.809524 96,19.809524 Z m 0,1.904762 c 1.853324,0 2.714905,0.711431 3.718381,2.287946 1.003469,1.576515 1.808239,4.002789 2.687869,6.560641 0.87963,2.55785 1.8405,5.266626 3.58631,7.492559 1.74583,2.225933 4.48669,3.859328 8.04873,3.816965 13.15235,-0.156419 25.28811,1.360858 39.93304,13.714657 10.68747,9.015469 16.31139,27.089385 16.31139,40.412947 0,41.049429 -33.2363,74.285719 -74.28572,74.285719 -41.049429,0 -74.285714,-33.23629 -74.285714,-74.285719 C 21.714286,54.950574 54.950571,21.714286 96,21.714286 Z M 85.265253,36.018601 c -5.124763,0.01875 -10.299123,3.051381 -13.227306,8.12314 -4.16453,7.213172 -2.484877,16.295806 4.162946,20.133929 6.647823,3.838123 15.355561,0.752976 19.520089,-6.460193 4.164514,-7.21317 2.483018,-16.297666 -4.164807,-20.135789 -1.661955,-0.959532 -3.451669,-1.486155 -5.267857,-1.623884 -0.340534,-0.02583 -0.681414,-0.03845 -1.023065,-0.0372 z m -0.331101,1.912203 c 1.961805,-0.0628 3.910588,0.383219 5.669642,1.39881 5.628968,3.249888 7.181416,11.100369 3.467262,17.533482 -3.714162,6.433113 -11.288811,9.012537 -16.917782,5.762649 -5.628972,-3.24989 -7.181424,-11.09851 -3.467262,-17.531622 2.553487,-4.422765 6.932168,-7.025154 11.24814,-7.163319 z" />
  <ellipse
     style="opacity:1;fill:#000000;fill-rule:evenodd;stroke:none;stroke-width:4.9902;stroke-linecap:round;stroke-linejoin:round;stroke-dasharray:none;stroke-opacity:1"
     id="path961"
     cx="-103.63029"
     cy="120.44901"
     rx="12.367838"
     ry="15.109156"
     transform="matrix(-0.20736227,-0.97826422,0.99725312,-0.074069,0,0)" />
  <ellipse
     style="opacity:1;fill:#000000;fill-rule:evenodd;stroke:none;stroke-width:4.9902;stroke-linecap:round;stroke-linejoin:round;stroke-dasharray:none;stroke-opacity:1"
     id="ellipse963"
     cx="-67.739174"
     cy="156.02805"
     rx="12.367838"
     ry="15.109156"
     transform="matrix(0.24939526,-0.96840178,0.92612217,0.3772237,0,0)" />
  <ellipse
     style="opacity:1;fill:#000000;fill-rule:evenodd;stroke:none;stroke-width:4.9902;stroke-linecap:round;stroke-linejoin:round;stroke-dasharray:none;stroke-opacity:1"
     id="ellipse965"
     cx="45.8419"
     cy="168.16832"
     rx="12.367838"
     ry="15.109156"
     transform="matrix(0.89350463,-0.44905398,0.32495612,0.94572909,0,0)" />
  <ellipse
     style="opacity:1;fill:#000000;fill-rule:evenodd;stroke:none;stroke-width:4.9902;stroke-linecap:round;stroke-linejoin:round;stroke-dasharray:none;stroke-opacity:1"
     id="ellipse967"
     cx="-101.30231"
     cy="-112.40308"
     rx="12.367838"
     ry="15.109156"
     transform="matrix(-0.97928458,-0.2024888,0.33220431,-0.94320745,0,0)" />
</svg>
