<?xml version="1.0" encoding="UTF-8" standalone="no"?>
<svg
   width="192"
   height="192"
   version="1.1"
   id="svg9"
   sodipodi:docname="weather_mi8.svg"
   inkscape:version="1.2.1 (9c6d41e410, 2022-07-14)"
   xmlns:inkscape="http://www.inkscape.org/namespaces/inkscape"
   xmlns:sodipodi="http://sodipodi.sourceforge.net/DTD/sodipodi-0.dtd"
   xmlns="http://www.w3.org/2000/svg"
   xmlns:svg="http://www.w3.org/2000/svg"
   xmlns:rdf="http://www.w3.org/1999/02/22-rdf-syntax-ns#"
   xmlns:cc="http://creativecommons.org/ns#"
   xmlns:dc="http://purl.org/dc/elements/1.1/">
  <metadata
     id="metadata13">
    <rdf:RDF>
      <cc:Work
         rdf:about="">
        <dc:format>image/svg+xml</dc:format>
        <dc:type
           rdf:resource="http://purl.org/dc/dcmitype/StillImage" />
      </cc:Work>
    </rdf:RDF>
  </metadata>
  <sodipodi:namedview
     pagecolor="#ffffff"
     bordercolor="#666666"
     borderopacity="1"
     objecttolerance="10"
     gridtolerance="10"
     guidetolerance="10"
     inkscape:pageopacity="0"
     inkscape:pageshadow="2"
     inkscape:window-width="1366"
     inkscape:window-height="688"
     id="namedview11"
     showgrid="false"
     inkscape:zoom="2.5104167"
     inkscape:cx="95.80083"
     inkscape:cy="96"
     inkscape:current-layer="svg9"
     inkscape:document-rotation="0"
     inkscape:showpageshadow="2"
     inkscape:pagecheckerboard="0"
     inkscape:deskcolor="#d1d1d1"
     inkscape:window-x="0"
     inkscape:window-y="0"
     inkscape:window-maximized="1" />
  <defs
     id="defs3">
    <style
       id="current-color-scheme"
       type="text/css">
   .ColorScheme-Text { color:#ffffff; } .ColorScheme-Highlight { color:#5294e2; }
  </style>
  </defs>
  <path
     id="path5"
     style="opacity:1;fill:#000000;fill-opacity:1;stroke-width:11.2157"
     d="m 72.088102,16 c -2.219151,0 -4.022967,1.783221 -4.022967,4.002259 V 36.03012 c 0,2.219151 1.803929,4.00226 4.022967,4.00226 2.21915,0 4.002259,-1.78322 4.002259,-4.00226 V 20.002259 C 76.090361,17.783108 74.30714,16 72.088102,16 Z M 35.256401,31.274849 c -1.023922,0 -2.035487,0.37697 -2.820031,1.161521 -1.569196,1.569198 -1.569197,4.089803 0,5.658886 l 11.317772,11.338479 c 1.569198,1.569198 4.11051,1.569198 5.679593,0 1.569198,-1.569196 1.569198,-4.110508 0,-5.679593 L 38.095256,32.43637 C 37.31068,31.651796 36.280287,31.274849 35.256401,31.274849 Z m 73.644579,0 c -1.02391,0 -2.0562,0.37697 -2.84074,1.161521 L 94.721762,43.754142 c -1.569196,1.569198 -1.569196,4.11051 0,5.679593 1.569199,1.569198 4.110508,1.569198 5.679598,0 l 11.31776,-11.338479 c 1.5692,-1.569196 1.5692,-4.0898 0,-5.658886 -0.78459,-0.784574 -1.79426,-1.161521 -2.81814,-1.161521 z M 72.088102,48.057606 A 24.034278,24.034278 0 0 0 48.057606,72.088102 24.034278,24.034278 0 0 0 72.088102,96.099774 24.034278,24.034278 0 0 0 81.310618,94.13253 c 3.010573,-3.423287 6.54785,-6.34736 10.504517,-8.610693 A 24.034278,24.034278 0 0 0 96.099774,72.088102 24.034278,24.034278 0 0 0 72.088102,48.057606 Z M 20.002259,68.065135 C 17.783108,68.065135 16,69.869064 16,72.088102 c 0,2.21915 1.783221,4.002259 4.002259,4.002259 H 36.03012 c 2.219151,0 4.00226,-1.783221 4.00226,-4.002259 0,-2.219151 -1.78322,-4.022967 -4.00226,-4.022967 z m 88.123121,0 c -2.21916,0 -4.00227,1.803929 -4.00227,4.022967 0,2.21915 1.78322,4.002259 4.00227,4.002259 h 16.02785 c 2.21915,0 4.00227,-1.783221 4.00227,-4.002259 0,-2.219151 -1.78323,-4.022967 -4.00227,-4.022967 z M 46.572289,93.560241 c -1.023922,0 -2.033605,0.376979 -2.818147,1.161521 L 32.43637,106.08094 c -1.569196,1.56921 -1.569196,4.0691 0,5.63818 1.569197,1.56908 4.089801,1.5692 5.658886,0 l 11.338479,-11.31776 c 1.569198,-1.56909 1.569198,-4.110513 0,-5.679598 -0.784574,-0.784542 -1.83756,-1.161521 -2.861446,-1.161521 z m 25.515813,10.562869 c -2.011424,0 -3.665743,1.46951 -3.960843,3.39609 1.902268,-0.82183 3.88502,-1.49222 5.939383,-1.97289 0.101045,-0.23431 0.22066,-0.45868 0.325677,-0.69089 -0.651052,-0.45829 -1.443022,-0.73231 -2.304217,-0.73231 z" />
  <path
     id="path7"
     style="opacity:1;fill:none;fill-opacity:1;stroke:#000000;stroke-width:11.5663;stroke-dasharray:none;stroke-opacity:1"
     d="m 111.33133,86.094664 c -15.447083,0 -28.310128,10.324288 -33.111021,24.419106 -14.49427,1.87463 -25.774525,14.36689 -25.774525,29.66868 0,16.59464 13.194387,30.03442 29.453528,30.03442 h 64.780548 c 13.00754,0 23.53701,-10.7566 23.53701,-24.03185 0,-13.27616 -10.52891,-24.03183 -23.53701,-24.03183 0,-19.91198 -15.83555,-36.058526 -35.34853,-36.058526 z" />
</svg>
